<svg id="svg" version="1.1" xmlns="http://www.w3.org/2000/svg" xmlns:xlink="http://www.w3.org/1999/xlink" width="400" height="112.5" viewBox="0, 0, 400,112.5"><g id="svgg"><path id="path0" d="M217.375 27.754 C 216.881 28.282,216.777 38.441,217.259 39.130 L 217.519 39.500 214.593 39.500 C 211.344 39.500,211.404 39.527,212.333 38.500 C 212.700 38.095,213.000 37.667,213.000 37.548 C 213.000 37.430,213.068 37.333,213.150 37.333 C 213.233 37.333,213.439 36.996,213.608 36.584 C 213.778 36.172,213.973 35.834,214.042 35.834 C 214.110 35.834,214.167 35.608,214.167 35.333 C 214.167 35.058,214.242 34.833,214.333 34.833 C 214.758 34.833,214.532 28.850,214.091 28.409 L 213.682 28.000 208.083 28.000 L 202.485 28.000 202.076 28.409 C 201.675 28.809,201.447 30.500,201.794 30.500 C 201.864 30.500,201.995 30.669,202.085 30.875 C 202.249 31.248,202.271 31.250,206.542 31.294 L 210.833 31.339 210.833 32.503 C 210.833 33.168,210.762 33.667,210.667 33.667 C 210.575 33.667,210.500 33.854,210.500 34.083 C 210.500 34.313,210.425 34.500,210.333 34.500 C 210.242 34.500,210.167 34.620,210.167 34.766 C 210.167 34.913,209.942 35.243,209.667 35.500 C 209.392 35.757,209.167 36.049,209.167 36.150 C 209.167 36.251,209.099 36.333,209.017 36.333 C 208.935 36.333,208.484 36.708,208.016 37.167 C 207.548 37.625,207.080 38.000,206.977 38.000 C 206.874 38.000,206.668 38.133,206.520 38.295 C 206.371 38.457,205.932 38.738,205.544 38.920 C 205.155 39.101,204.836 39.306,204.835 39.375 C 204.834 39.444,204.683 39.500,204.500 39.500 C 204.317 39.500,204.167 39.575,204.167 39.667 C 204.167 39.758,204.054 39.833,203.917 39.833 C 203.779 39.833,203.667 39.908,203.667 40.000 C 203.667 40.092,203.517 40.167,203.333 40.167 C 203.150 40.167,203.000 40.242,203.000 40.333 C 203.000 40.425,202.849 40.500,202.664 40.500 C 201.298 40.500,200.701 42.379,201.719 43.476 C 202.123 43.910,204.655 43.952,204.797 43.526 C 204.832 43.420,204.990 43.333,205.147 43.333 C 205.509 43.333,206.330 42.958,206.332 42.792 C 206.333 42.723,206.502 42.665,206.708 42.663 C 206.915 42.661,207.271 42.513,207.500 42.333 C 207.729 42.154,208.010 42.006,208.125 42.004 C 208.240 42.002,208.333 41.925,208.333 41.833 C 208.333 41.742,208.446 41.667,208.583 41.667 C 208.721 41.667,208.833 41.592,208.833 41.500 C 208.833 41.408,208.983 41.333,209.167 41.333 C 209.491 41.333,209.500 41.444,209.500 45.583 C 209.500 48.306,209.560 49.833,209.667 49.833 C 209.758 49.833,209.833 49.951,209.833 50.095 C 209.833 50.828,209.893 50.833,218.004 50.833 C 225.558 50.833,225.699 50.827,225.785 50.500 C 225.833 50.317,225.938 50.167,226.019 50.167 C 226.100 50.167,226.167 49.754,226.167 49.250 C 226.167 48.746,226.092 48.333,226.000 48.333 C 225.908 48.333,225.833 48.183,225.833 48.000 C 225.833 47.673,225.722 47.667,219.684 47.667 C 214.231 47.667,213.524 47.637,213.434 47.403 C 213.145 46.648,213.002 46.667,219.008 46.667 L 224.682 46.667 225.091 46.258 C 225.516 45.832,225.709 44.167,225.333 44.167 C 225.242 44.167,225.167 44.054,225.167 43.917 C 225.167 43.778,225.019 43.667,224.833 43.667 C 224.650 43.667,224.500 43.592,224.500 43.500 C 224.500 43.392,222.528 43.333,218.917 43.333 C 215.306 43.333,213.333 43.274,213.333 43.167 C 213.333 43.059,215.306 43.000,218.917 43.000 C 222.528 43.000,224.500 42.941,224.500 42.833 C 224.500 42.742,224.618 42.667,224.762 42.667 C 225.464 42.667,225.786 41.016,225.292 39.951 L 225.083 39.503 222.792 39.501 C 220.704 39.500,220.164 39.394,220.667 39.083 C 220.765 39.022,220.833 37.998,220.833 36.573 C 220.833 35.080,220.897 34.167,221.000 34.167 C 221.092 34.167,221.167 34.314,221.167 34.494 C 221.167 34.924,221.799 35.500,222.272 35.500 C 222.478 35.500,222.693 35.575,222.750 35.667 C 222.807 35.758,222.999 35.833,223.177 35.833 C 223.354 35.833,223.500 35.758,223.500 35.667 C 223.500 35.575,223.695 35.500,223.933 35.500 C 225.383 35.500,226.138 32.730,224.982 31.650 C 223.988 30.721,221.167 31.020,221.167 32.055 C 221.167 32.208,221.092 32.333,221.000 32.333 C 220.898 32.333,220.833 31.520,220.833 30.228 C 220.833 28.137,220.830 28.119,220.375 27.728 C 219.705 27.152,217.924 27.168,217.375 27.754 M244.167 27.500 C 244.167 27.592,244.086 27.667,243.988 27.667 C 243.338 27.667,243.333 27.741,243.333 38.488 C 243.333 44.775,243.394 48.833,243.489 48.833 C 243.574 48.833,243.692 48.983,243.750 49.167 C 243.808 49.350,244.001 49.500,244.178 49.500 C 244.355 49.500,244.500 49.575,244.500 49.667 C 244.500 49.758,244.800 49.833,245.167 49.833 C 245.533 49.833,245.833 49.758,245.833 49.667 C 245.833 49.575,245.989 49.500,246.179 49.500 C 247.021 49.500,247.000 49.783,247.000 38.583 C 247.000 27.736,246.996 27.667,246.345 27.667 C 246.247 27.667,246.167 27.592,246.167 27.500 C 246.167 27.407,245.722 27.333,245.167 27.333 C 244.611 27.333,244.167 27.407,244.167 27.500 M232.333 27.833 C 232.333 27.925,232.182 28.000,231.998 28.000 C 231.681 28.000,231.015 28.296,230.833 28.518 C 230.787 28.574,230.517 28.739,230.233 28.885 C 229.949 29.030,229.579 29.360,229.411 29.616 C 229.243 29.873,229.007 30.182,228.886 30.304 C 228.765 30.425,228.667 30.668,228.667 30.845 C 228.667 31.022,228.592 31.167,228.500 31.167 C 228.408 31.167,228.333 31.279,228.333 31.417 C 228.333 31.554,228.258 31.667,228.167 31.667 C 228.075 31.667,228.000 31.817,228.000 32.000 C 228.000 32.183,227.925 32.333,227.833 32.333 C 227.742 32.333,227.667 32.558,227.667 32.833 C 227.667 33.108,227.592 33.333,227.500 33.333 C 227.408 33.333,227.333 33.746,227.333 34.250 C 227.333 34.785,227.260 35.167,227.157 35.167 C 226.839 35.167,227.175 40.383,227.516 40.742 C 227.599 40.829,227.667 41.072,227.667 41.283 C 227.667 41.494,227.742 41.667,227.833 41.667 C 227.925 41.667,228.000 41.854,228.000 42.083 C 228.000 42.313,228.075 42.500,228.167 42.500 C 228.258 42.500,228.333 42.612,228.333 42.750 C 228.333 42.887,228.408 43.000,228.500 43.000 C 228.592 43.000,228.667 43.115,228.667 43.256 C 228.667 43.817,230.100 45.500,230.578 45.500 C 230.718 45.500,230.833 45.557,230.833 45.627 C 230.833 46.262,236.086 46.661,236.292 46.042 C 236.330 45.927,236.505 45.833,236.681 45.833 C 236.856 45.833,237.000 45.758,237.000 45.667 C 237.000 45.575,237.102 45.500,237.226 45.500 C 237.629 45.500,239.167 43.646,239.167 43.159 C 239.167 43.072,239.242 43.000,239.333 43.000 C 239.425 43.000,239.500 42.850,239.500 42.667 C 239.500 42.483,239.575 42.333,239.667 42.333 C 239.758 42.333,239.833 42.108,239.833 41.833 C 239.833 41.558,239.908 41.333,240.000 41.333 C 240.092 41.333,240.167 41.150,240.167 40.927 C 240.167 40.703,240.242 40.473,240.333 40.417 C 240.425 40.360,240.500 39.760,240.500 39.083 C 240.500 38.407,240.575 37.807,240.667 37.750 C 240.758 37.693,240.833 37.389,240.833 37.073 C 240.833 36.758,240.758 36.500,240.667 36.500 C 240.570 36.500,240.500 35.948,240.500 35.177 C 240.500 34.449,240.425 33.807,240.333 33.750 C 240.242 33.693,240.167 33.426,240.167 33.157 C 240.167 32.887,240.092 32.667,240.000 32.667 C 239.908 32.667,239.833 32.442,239.833 32.167 C 239.833 31.892,239.758 31.667,239.667 31.667 C 239.575 31.667,239.500 31.554,239.500 31.417 C 239.500 31.279,239.425 31.167,239.333 31.167 C 239.242 31.167,239.167 31.051,239.167 30.910 C 239.167 30.674,239.082 30.537,238.574 29.953 C 238.477 29.841,238.348 29.619,238.287 29.458 C 238.227 29.298,237.912 29.040,237.588 28.886 C 237.265 28.731,237.000 28.544,237.000 28.469 C 237.000 28.394,236.850 28.333,236.667 28.333 C 236.483 28.333,236.333 28.258,236.333 28.167 C 236.333 28.075,236.150 28.000,235.927 28.000 C 235.703 28.000,235.473 27.925,235.417 27.833 C 235.360 27.742,234.643 27.667,233.823 27.667 C 232.941 27.667,232.333 27.735,232.333 27.833 M235.255 31.564 C 235.390 31.699,235.500 31.900,235.500 32.010 C 235.500 32.121,235.640 32.333,235.812 32.482 C 236.001 32.645,236.172 33.098,236.244 33.626 C 236.311 34.107,236.433 34.500,236.516 34.500 C 236.713 34.500,236.713 39.452,236.516 39.574 C 236.433 39.625,236.313 40.042,236.250 40.500 C 236.187 40.958,236.067 41.333,235.984 41.333 C 235.901 41.333,235.833 41.449,235.833 41.591 C 235.833 41.924,235.091 42.667,234.758 42.667 C 234.616 42.667,234.500 42.742,234.500 42.833 C 234.500 43.069,233.566 43.041,233.132 42.792 C 232.556 42.462,232.000 41.872,232.000 41.591 C 232.000 41.449,231.925 41.333,231.833 41.333 C 231.742 41.333,231.667 41.152,231.667 40.931 C 231.667 40.709,231.593 40.503,231.502 40.472 C 231.042 40.317,231.034 34.066,231.494 33.606 C 231.589 33.511,231.667 33.277,231.667 33.087 C 231.667 32.896,231.817 32.632,232.000 32.500 C 232.183 32.368,232.333 32.158,232.333 32.035 C 232.333 31.244,234.573 30.883,235.255 31.564 M228.083 62.167 C 228.027 62.258,227.787 62.333,227.551 62.333 C 226.937 62.333,226.356 63.084,226.229 64.042 C 226.171 64.477,226.058 64.833,225.979 64.833 C 225.899 64.833,225.833 65.058,225.833 65.333 C 225.833 65.608,225.758 65.833,225.667 65.833 C 225.575 65.833,225.500 66.021,225.500 66.250 C 225.500 66.479,225.425 66.667,225.333 66.667 C 225.242 66.667,225.167 66.892,225.167 67.167 C 225.167 67.442,225.092 67.667,225.000 67.667 C 224.908 67.667,224.833 67.892,224.833 68.167 C 224.833 68.442,224.758 68.667,224.667 68.667 C 224.575 68.667,224.500 68.854,224.500 69.083 C 224.500 69.313,224.425 69.500,224.333 69.500 C 224.242 69.500,224.167 69.725,224.167 70.000 C 224.167 70.275,224.097 70.500,224.012 70.500 C 223.927 70.500,223.806 70.912,223.743 71.417 C 223.680 71.921,223.562 72.333,223.481 72.333 C 223.400 72.333,223.333 72.558,223.333 72.833 C 223.333 73.108,223.258 73.333,223.167 73.333 C 223.075 73.333,223.000 73.521,223.000 73.750 C 223.000 73.979,222.925 74.167,222.833 74.167 C 222.742 74.167,222.667 74.392,222.667 74.667 C 222.667 74.942,222.592 75.167,222.500 75.167 C 222.408 75.167,222.333 75.392,222.333 75.667 C 222.333 75.942,222.258 76.167,222.167 76.167 C 222.075 76.167,222.000 76.350,222.000 76.573 C 222.000 76.797,221.925 77.027,221.833 77.083 C 221.742 77.140,221.667 77.365,221.667 77.583 C 221.667 77.802,221.599 78.022,221.516 78.074 C 221.433 78.125,221.313 78.542,221.250 79.000 C 221.187 79.458,221.067 79.833,220.984 79.833 C 220.901 79.833,220.833 80.133,220.833 80.500 C 220.833 80.867,220.758 81.167,220.667 81.167 C 220.575 81.167,220.500 81.400,220.500 81.686 C 220.500 83.120,223.472 84.087,224.027 82.833 C 224.148 82.558,224.305 82.333,224.374 82.333 C 224.443 82.333,224.500 82.108,224.500 81.833 C 224.500 81.558,224.575 81.333,224.667 81.333 C 224.758 81.333,224.833 81.146,224.833 80.917 C 224.833 80.688,224.908 80.500,225.000 80.500 C 225.092 80.500,225.167 80.275,225.167 80.000 C 225.167 79.725,225.242 79.500,225.333 79.500 C 225.425 79.500,225.500 79.279,225.500 79.010 C 225.500 78.740,225.575 78.473,225.667 78.417 C 225.758 78.360,225.833 78.135,225.833 77.917 C 225.833 77.698,225.903 77.477,225.988 77.424 C 226.074 77.371,226.195 76.917,226.258 76.414 C 226.320 75.911,226.438 75.500,226.519 75.500 C 226.600 75.500,226.667 75.275,226.667 75.000 C 226.667 74.725,226.742 74.500,226.833 74.500 C 226.925 74.500,227.000 74.313,227.000 74.083 C 227.000 73.854,227.075 73.667,227.167 73.667 C 227.258 73.667,227.333 73.442,227.333 73.167 C 227.333 72.892,227.408 72.667,227.500 72.667 C 227.592 72.667,227.667 72.442,227.667 72.167 C 227.667 71.892,227.742 71.667,227.833 71.667 C 227.925 71.667,228.000 71.484,228.000 71.260 C 228.000 71.036,228.075 70.807,228.167 70.750 C 228.258 70.693,228.333 70.468,228.333 70.250 C 228.333 70.032,228.401 69.811,228.484 69.760 C 228.567 69.708,228.687 69.291,228.750 68.833 C 228.813 68.375,228.933 68.000,229.016 68.000 C 229.099 68.000,229.167 67.775,229.167 67.500 C 229.167 67.225,229.210 67.000,229.262 67.000 C 229.506 67.000,229.833 67.519,229.833 67.905 C 229.833 68.140,229.908 68.333,230.000 68.333 C 230.092 68.333,230.167 68.521,230.167 68.750 C 230.167 68.979,230.242 69.167,230.333 69.167 C 230.425 69.167,230.500 69.392,230.500 69.667 C 230.500 69.942,230.575 70.167,230.667 70.167 C 230.758 70.167,230.833 70.392,230.833 70.667 C 230.833 70.942,230.900 71.167,230.981 71.167 C 231.062 71.167,231.181 71.515,231.245 71.941 C 231.309 72.367,231.423 72.836,231.498 72.983 C 231.573 73.130,231.730 73.587,231.846 74.000 C 231.963 74.412,232.120 74.821,232.196 74.908 C 232.271 74.995,232.333 75.277,232.333 75.533 C 232.333 75.790,232.408 76.000,232.500 76.000 C 232.592 76.000,232.667 76.225,232.667 76.500 C 232.667 76.775,232.742 77.000,232.833 77.000 C 232.925 77.000,233.000 77.225,233.000 77.500 C 233.000 77.775,233.075 78.000,233.167 78.000 C 233.258 78.000,233.333 78.188,233.333 78.417 C 233.333 78.646,233.392 78.833,233.464 78.833 C 233.536 78.833,233.688 79.265,233.802 79.792 C 233.915 80.319,234.053 80.956,234.106 81.208 C 234.160 81.460,234.271 81.667,234.352 81.667 C 234.434 81.667,234.500 81.835,234.500 82.042 C 234.501 82.844,235.186 83.333,236.311 83.333 C 236.881 83.333,237.333 83.260,237.333 83.167 C 237.333 83.075,237.456 83.000,237.607 83.000 C 237.757 83.000,237.980 82.869,238.101 82.708 C 238.359 82.369,238.414 80.500,238.167 80.500 C 238.075 80.500,238.000 80.279,238.000 80.010 C 238.000 79.740,237.925 79.473,237.833 79.417 C 237.742 79.360,237.667 79.135,237.667 78.917 C 237.667 78.698,237.592 78.473,237.500 78.417 C 237.408 78.360,237.333 78.135,237.333 77.917 C 237.333 77.698,237.258 77.473,237.167 77.417 C 237.075 77.360,237.000 77.131,237.000 76.907 C 237.000 76.683,236.925 76.500,236.833 76.500 C 236.742 76.500,236.667 76.275,236.667 76.000 C 236.667 75.725,236.601 75.500,236.521 75.500 C 236.442 75.500,236.327 75.128,236.267 74.674 C 236.206 74.219,236.084 73.802,235.995 73.747 C 235.906 73.692,235.833 73.426,235.833 73.157 C 235.833 72.887,235.758 72.667,235.667 72.667 C 235.575 72.667,235.500 72.484,235.500 72.260 C 235.500 72.036,235.425 71.807,235.333 71.750 C 235.242 71.693,235.167 71.464,235.167 71.240 C 235.167 71.016,235.092 70.833,235.000 70.833 C 234.908 70.833,234.833 70.608,234.833 70.333 C 234.833 70.058,234.758 69.833,234.667 69.833 C 234.575 69.833,234.500 69.608,234.500 69.333 C 234.500 69.058,234.425 68.833,234.333 68.833 C 234.242 68.833,234.167 68.646,234.167 68.417 C 234.167 68.188,234.100 68.000,234.019 68.000 C 233.938 68.000,233.820 67.587,233.757 67.083 C 233.694 66.579,233.573 66.167,233.488 66.167 C 233.403 66.167,233.333 65.942,233.333 65.667 C 233.333 65.392,233.258 65.167,233.167 65.167 C 233.075 65.167,233.000 64.942,233.000 64.667 C 233.000 64.392,232.925 64.167,232.833 64.167 C 232.742 64.167,232.667 63.996,232.667 63.787 C 232.667 63.578,232.517 63.299,232.333 63.167 C 232.150 63.035,232.000 62.829,232.000 62.709 C 232.000 62.589,231.773 62.446,231.497 62.391 C 231.220 62.336,230.953 62.225,230.903 62.145 C 230.778 61.943,228.210 61.962,228.083 62.167 M246.796 62.391 L 246.343 62.781 246.296 70.861 C 246.246 79.586,246.298 79.098,245.371 79.625 C 244.664 80.027,243.005 79.735,243.001 79.208 C 243.001 79.094,242.925 79.000,242.833 79.000 C 242.738 79.000,242.667 78.499,242.667 77.831 C 242.667 76.733,242.519 76.224,242.054 75.715 C 241.743 75.375,239.586 75.430,239.169 75.787 C 238.665 76.218,238.666 80.026,239.170 80.922 C 239.598 81.685,240.244 82.333,240.576 82.333 C 240.717 82.333,240.834 82.390,240.835 82.458 C 240.837 82.658,241.692 83.000,242.190 83.000 C 242.441 83.000,242.693 83.075,242.750 83.167 C 242.807 83.259,243.554 83.333,244.417 83.333 C 245.279 83.333,246.027 83.259,246.083 83.167 C 246.140 83.075,246.392 83.000,246.643 83.000 C 247.142 83.000,247.997 82.658,247.999 82.458 C 247.999 82.390,248.150 82.333,248.333 82.333 C 248.517 82.333,248.667 82.261,248.667 82.172 C 248.667 82.084,248.929 81.749,249.250 81.428 C 249.571 81.107,249.833 80.692,249.833 80.506 C 249.833 80.319,249.908 80.167,250.000 80.167 C 250.109 80.167,250.167 77.194,250.167 71.583 C 250.167 65.972,250.109 63.000,250.000 63.000 C 249.908 63.000,249.833 62.850,249.833 62.667 C 249.833 62.444,249.722 62.333,249.500 62.333 C 249.317 62.333,249.167 62.258,249.167 62.167 C 249.167 61.801,247.273 61.980,246.796 62.391 M259.083 62.167 C 259.027 62.258,258.792 62.333,258.562 62.333 C 258.088 62.333,257.667 62.681,257.667 63.071 C 257.667 63.215,257.592 63.333,257.500 63.333 C 257.408 63.333,257.333 63.483,257.333 63.667 C 257.333 63.850,257.258 64.000,257.167 64.000 C 257.075 64.000,257.000 64.151,257.000 64.336 C 257.000 64.520,256.932 64.801,256.849 64.961 C 256.626 65.387,256.167 66.991,256.167 67.343 C 256.167 67.510,256.092 67.693,256.000 67.750 C 255.908 67.807,255.833 68.032,255.833 68.250 C 255.833 68.468,255.758 68.693,255.667 68.750 C 255.575 68.807,255.500 69.032,255.500 69.250 C 255.500 69.468,255.425 69.693,255.333 69.750 C 255.242 69.807,255.167 70.074,255.167 70.343 C 255.167 70.613,255.092 70.833,255.000 70.833 C 254.908 70.833,254.833 71.021,254.833 71.250 C 254.833 71.479,254.758 71.667,254.667 71.667 C 254.575 71.667,254.500 71.892,254.500 72.167 C 254.500 72.442,254.425 72.667,254.333 72.667 C 254.242 72.667,254.167 72.892,254.167 73.167 C 254.167 73.442,254.097 73.667,254.012 73.667 C 253.927 73.667,253.806 74.079,253.743 74.583 C 253.680 75.087,253.562 75.500,253.481 75.500 C 253.400 75.500,253.333 75.688,253.333 75.917 C 253.333 76.146,253.258 76.333,253.167 76.333 C 253.075 76.333,253.000 76.558,253.000 76.833 C 253.000 77.108,252.925 77.333,252.833 77.333 C 252.742 77.333,252.667 77.558,252.667 77.833 C 252.667 78.108,252.592 78.333,252.500 78.333 C 252.408 78.333,252.333 78.521,252.333 78.750 C 252.333 78.979,252.258 79.167,252.167 79.167 C 252.075 79.167,252.000 79.392,252.000 79.667 C 252.000 79.942,251.925 80.167,251.833 80.167 C 251.738 80.167,251.667 80.671,251.667 81.345 C 251.667 82.557,251.864 83.000,252.405 83.000 C 252.549 83.000,252.667 83.075,252.667 83.167 C 252.667 83.412,254.652 83.375,254.887 83.125 C 255.140 82.856,255.424 82.254,255.690 81.417 C 255.807 81.050,255.954 80.675,256.016 80.583 C 256.078 80.492,256.182 80.023,256.247 79.542 C 256.312 79.060,256.433 78.667,256.516 78.667 C 256.599 78.667,256.667 78.442,256.667 78.167 C 256.667 77.892,256.742 77.667,256.833 77.667 C 256.925 77.667,257.000 77.442,257.000 77.167 C 257.000 76.892,257.075 76.667,257.167 76.667 C 257.258 76.667,257.333 76.479,257.333 76.250 C 257.333 76.021,257.408 75.833,257.500 75.833 C 257.592 75.833,257.667 75.608,257.667 75.333 C 257.667 75.058,257.742 74.833,257.833 74.833 C 257.925 74.833,258.000 74.608,258.000 74.333 C 258.000 74.058,258.075 73.833,258.167 73.833 C 258.258 73.833,258.333 73.650,258.333 73.427 C 258.333 73.203,258.401 72.978,258.484 72.926 C 258.567 72.875,258.687 72.458,258.750 72.000 C 258.813 71.542,258.933 71.125,259.016 71.074 C 259.099 71.022,259.167 70.797,259.167 70.573 C 259.167 70.350,259.242 70.167,259.333 70.167 C 259.425 70.167,259.500 69.942,259.500 69.667 C 259.500 69.392,259.575 69.167,259.667 69.167 C 259.758 69.167,259.833 68.942,259.833 68.667 C 259.833 68.392,259.908 68.167,260.000 68.167 C 260.092 68.167,260.167 68.023,260.167 67.847 C 260.167 67.350,260.346 67.000,260.601 67.000 C 260.748 67.000,260.833 67.184,260.833 67.500 C 260.833 67.775,260.903 68.000,260.988 68.000 C 261.073 68.000,261.194 68.413,261.257 68.919 C 261.321 69.424,261.439 69.879,261.519 69.929 C 261.600 69.979,261.667 70.198,261.667 70.417 C 261.667 70.635,261.742 70.860,261.833 70.917 C 261.925 70.973,262.000 71.198,262.000 71.417 C 262.000 71.635,262.075 71.860,262.167 71.917 C 262.258 71.973,262.333 72.198,262.333 72.417 C 262.333 72.635,262.408 72.860,262.500 72.917 C 262.592 72.973,262.667 73.203,262.667 73.427 C 262.667 73.650,262.742 73.833,262.833 73.833 C 262.925 73.833,263.000 74.058,263.000 74.333 C 263.000 74.608,263.075 74.833,263.167 74.833 C 263.258 74.833,263.333 75.058,263.333 75.333 C 263.333 75.608,263.401 75.833,263.484 75.833 C 263.567 75.833,263.687 76.208,263.750 76.666 C 263.813 77.125,263.933 77.542,264.016 77.593 C 264.099 77.644,264.167 77.865,264.167 78.083 C 264.167 78.302,264.242 78.527,264.333 78.583 C 264.425 78.640,264.500 78.869,264.500 79.093 C 264.500 79.317,264.575 79.500,264.667 79.500 C 264.758 79.500,264.833 79.725,264.833 80.000 C 264.833 80.275,264.908 80.500,265.000 80.500 C 265.092 80.500,265.167 80.688,265.167 80.917 C 265.167 81.146,265.242 81.333,265.333 81.333 C 265.425 81.333,265.500 81.558,265.500 81.833 C 265.500 82.108,265.575 82.333,265.667 82.333 C 265.758 82.333,265.833 82.451,265.833 82.595 C 265.833 83.111,266.281 83.333,267.321 83.333 C 267.885 83.333,268.333 83.259,268.333 83.167 C 268.333 83.075,268.414 83.000,268.512 83.000 C 268.968 83.000,269.167 82.497,269.167 81.345 C 269.167 80.697,269.100 80.167,269.019 80.167 C 268.938 80.167,268.820 79.754,268.757 79.250 C 268.694 78.746,268.573 78.333,268.488 78.333 C 268.403 78.333,268.333 78.108,268.333 77.833 C 268.333 77.558,268.258 77.333,268.167 77.333 C 268.075 77.333,268.000 77.150,268.000 76.927 C 268.000 76.703,267.925 76.473,267.833 76.417 C 267.742 76.360,267.667 76.135,267.667 75.917 C 267.667 75.698,267.592 75.473,267.500 75.417 C 267.408 75.360,267.333 75.093,267.333 74.823 C 267.333 74.554,267.258 74.333,267.167 74.333 C 267.075 74.333,267.000 74.108,267.000 73.833 C 267.000 73.558,266.925 73.333,266.833 73.333 C 266.742 73.333,266.667 73.108,266.667 72.833 C 266.667 72.558,266.592 72.333,266.500 72.333 C 266.408 72.333,266.333 72.192,266.333 72.019 C 266.333 71.659,265.877 70.059,265.651 69.627 C 265.568 69.468,265.500 69.187,265.500 69.002 C 265.500 68.818,265.425 68.667,265.333 68.667 C 265.242 68.667,265.167 68.442,265.167 68.167 C 265.167 67.892,265.092 67.667,265.000 67.667 C 264.908 67.667,264.833 67.442,264.833 67.167 C 264.833 66.892,264.758 66.667,264.667 66.667 C 264.575 66.667,264.500 66.479,264.500 66.250 C 264.500 66.021,264.425 65.833,264.333 65.833 C 264.242 65.833,264.167 65.608,264.167 65.333 C 264.167 65.058,264.092 64.833,264.000 64.833 C 263.908 64.833,263.833 64.638,263.833 64.400 C 263.833 63.429,263.089 62.333,262.429 62.333 C 262.193 62.333,262.000 62.258,262.000 62.167 C 262.000 62.069,261.420 62.000,260.593 62.000 C 259.819 62.000,259.140 62.075,259.083 62.167 M293.750 62.167 C 293.693 62.258,293.459 62.333,293.228 62.333 C 292.755 62.333,292.333 62.681,292.333 63.071 C 292.333 63.215,292.258 63.333,292.167 63.333 C 292.075 63.333,292.000 63.483,292.000 63.667 C 292.000 63.850,291.934 64.000,291.852 64.000 C 291.771 64.000,291.660 64.206,291.606 64.458 C 291.553 64.710,291.415 65.348,291.302 65.875 C 291.188 66.402,291.036 66.833,290.964 66.833 C 290.892 66.833,290.833 67.016,290.833 67.240 C 290.833 67.464,290.758 67.693,290.667 67.750 C 290.575 67.807,290.500 68.032,290.500 68.250 C 290.500 68.468,290.425 68.693,290.333 68.750 C 290.242 68.807,290.167 69.032,290.167 69.250 C 290.167 69.468,290.092 69.693,290.000 69.750 C 289.908 69.807,289.833 70.074,289.833 70.343 C 289.833 70.613,289.758 70.833,289.667 70.833 C 289.575 70.833,289.500 71.021,289.500 71.250 C 289.500 71.479,289.425 71.667,289.333 71.667 C 289.242 71.667,289.167 71.892,289.167 72.167 C 289.167 72.442,289.100 72.667,289.019 72.667 C 288.938 72.667,288.820 73.079,288.757 73.583 C 288.694 74.087,288.573 74.500,288.488 74.500 C 288.403 74.500,288.333 74.725,288.333 75.000 C 288.333 75.275,288.258 75.500,288.167 75.500 C 288.075 75.500,288.000 75.688,288.000 75.917 C 288.000 76.146,287.925 76.333,287.833 76.333 C 287.742 76.333,287.667 76.558,287.667 76.833 C 287.667 77.108,287.592 77.333,287.500 77.333 C 287.408 77.333,287.333 77.558,287.333 77.833 C 287.333 78.108,287.258 78.333,287.167 78.333 C 287.075 78.333,287.000 78.516,287.000 78.740 C 287.000 78.964,286.925 79.193,286.833 79.250 C 286.742 79.307,286.667 79.532,286.667 79.750 C 286.667 79.968,286.592 80.193,286.500 80.250 C 285.931 80.602,286.429 83.000,287.071 83.000 C 287.215 83.000,287.333 83.075,287.333 83.167 C 287.333 83.260,287.785 83.333,288.356 83.333 C 289.476 83.333,290.166 82.845,290.166 82.052 C 290.167 81.851,290.242 81.640,290.333 81.583 C 290.425 81.527,290.500 81.302,290.500 81.083 C 290.500 80.865,290.575 80.640,290.667 80.583 C 290.758 80.527,290.833 80.260,290.833 79.990 C 290.833 79.721,290.903 79.500,290.988 79.500 C 291.073 79.500,291.194 79.087,291.257 78.583 C 291.320 78.079,291.438 77.667,291.519 77.667 C 291.600 77.667,291.667 77.442,291.667 77.167 C 291.667 76.892,291.742 76.667,291.833 76.667 C 291.925 76.667,292.000 76.479,292.000 76.250 C 292.000 76.021,292.075 75.833,292.167 75.833 C 292.258 75.833,292.333 75.608,292.333 75.333 C 292.333 75.058,292.408 74.833,292.500 74.833 C 292.592 74.833,292.667 74.608,292.667 74.333 C 292.667 74.058,292.742 73.833,292.833 73.833 C 292.925 73.833,293.000 73.650,293.000 73.427 C 293.000 73.203,293.075 72.973,293.167 72.917 C 293.258 72.860,293.333 72.635,293.333 72.417 C 293.333 72.198,293.401 71.978,293.484 71.926 C 293.567 71.875,293.687 71.458,293.750 71.000 C 293.813 70.542,293.933 70.167,294.016 70.167 C 294.099 70.167,294.167 69.942,294.167 69.667 C 294.167 69.392,294.242 69.167,294.333 69.167 C 294.425 69.167,294.500 68.942,294.500 68.667 C 294.500 68.392,294.575 68.167,294.667 68.167 C 294.758 68.167,294.833 67.994,294.833 67.783 C 294.833 67.404,295.109 67.000,295.367 67.000 C 295.440 67.000,295.500 67.225,295.500 67.500 C 295.500 67.775,295.575 68.000,295.667 68.000 C 295.758 68.000,295.833 68.188,295.833 68.417 C 295.833 68.646,295.908 68.833,296.000 68.833 C 296.092 68.833,296.167 69.050,296.167 69.314 C 296.167 69.809,296.580 71.358,296.849 71.873 C 296.932 72.032,297.000 72.309,297.000 72.488 C 297.000 72.667,297.075 72.860,297.167 72.917 C 297.258 72.973,297.333 73.203,297.333 73.427 C 297.333 73.650,297.408 73.833,297.500 73.833 C 297.592 73.833,297.667 74.058,297.667 74.333 C 297.667 74.608,297.742 74.833,297.833 74.833 C 297.925 74.833,298.000 75.058,298.000 75.333 C 298.000 75.608,298.075 75.833,298.167 75.833 C 298.258 75.833,298.333 76.021,298.333 76.250 C 298.333 76.479,298.400 76.667,298.481 76.667 C 298.562 76.667,298.680 77.078,298.742 77.581 C 298.805 78.083,298.926 78.538,299.012 78.591 C 299.097 78.643,299.167 78.869,299.167 79.093 C 299.167 79.317,299.242 79.500,299.333 79.500 C 299.425 79.500,299.500 79.725,299.500 80.000 C 299.500 80.275,299.575 80.500,299.667 80.500 C 299.758 80.500,299.833 80.688,299.833 80.917 C 299.833 81.146,299.908 81.333,300.000 81.333 C 300.092 81.333,300.167 81.558,300.167 81.833 C 300.167 82.108,300.242 82.333,300.333 82.333 C 300.425 82.333,300.500 82.451,300.500 82.595 C 300.500 83.111,300.947 83.333,301.988 83.333 C 302.552 83.333,303.000 83.259,303.000 83.167 C 303.000 83.075,303.149 83.000,303.330 83.000 C 303.886 83.000,304.044 79.810,303.514 79.281 C 303.415 79.182,303.333 78.927,303.333 78.717 C 303.333 78.506,303.258 78.333,303.167 78.333 C 303.075 78.333,303.000 78.108,303.000 77.833 C 303.000 77.558,302.925 77.333,302.833 77.333 C 302.742 77.333,302.667 77.108,302.667 76.833 C 302.667 76.558,302.592 76.333,302.500 76.333 C 302.408 76.333,302.333 76.150,302.333 75.927 C 302.333 75.703,302.258 75.473,302.167 75.417 C 302.075 75.360,302.000 75.093,302.000 74.823 C 302.000 74.554,301.925 74.333,301.833 74.333 C 301.742 74.333,301.667 74.108,301.667 73.833 C 301.667 73.558,301.601 73.333,301.521 73.333 C 301.442 73.333,301.327 72.961,301.267 72.507 C 301.206 72.052,301.084 71.635,300.995 71.580 C 300.906 71.525,300.833 71.302,300.833 71.083 C 300.833 70.865,300.758 70.640,300.667 70.583 C 300.575 70.527,300.500 70.302,300.500 70.083 C 300.500 69.865,300.425 69.640,300.333 69.583 C 300.242 69.527,300.167 69.297,300.167 69.073 C 300.167 68.850,300.092 68.667,300.000 68.667 C 299.908 68.667,299.833 68.442,299.833 68.167 C 299.833 67.892,299.758 67.667,299.667 67.667 C 299.575 67.667,299.500 67.442,299.500 67.167 C 299.500 66.892,299.425 66.667,299.333 66.667 C 299.242 66.667,299.167 66.479,299.167 66.250 C 299.167 66.021,299.101 65.833,299.021 65.833 C 298.942 65.833,298.827 65.461,298.767 65.007 C 298.576 63.566,297.805 62.333,297.095 62.333 C 296.860 62.333,296.667 62.258,296.667 62.167 C 296.667 62.069,296.087 62.000,295.260 62.000 C 294.486 62.000,293.807 62.075,293.750 62.167 M323.667 62.147 C 323.667 62.228,323.517 62.334,323.333 62.382 C 323.108 62.441,323.000 62.609,323.000 62.901 C 323.000 63.139,322.925 63.333,322.833 63.333 C 322.724 63.333,322.667 66.556,322.667 72.667 C 322.667 78.778,322.724 82.000,322.833 82.000 C 322.925 82.000,323.000 82.225,323.000 82.500 C 323.000 82.889,323.074 83.000,323.333 83.000 C 323.517 83.000,323.667 83.075,323.667 83.167 C 323.667 83.261,324.139 83.333,324.750 83.333 C 325.361 83.333,325.833 83.261,325.833 83.167 C 325.833 83.075,325.946 83.000,326.083 83.000 C 326.222 83.000,326.333 82.852,326.333 82.667 C 326.333 82.483,326.408 82.333,326.500 82.333 C 326.609 82.333,326.667 79.056,326.667 72.833 C 326.667 66.611,326.609 63.333,326.500 63.333 C 326.408 63.333,326.333 63.127,326.332 62.875 C 326.331 62.541,326.209 62.360,325.882 62.208 C 325.371 61.971,323.667 61.924,323.667 62.147 M334.333 62.167 C 334.333 62.258,334.229 62.333,334.101 62.333 C 333.684 62.333,333.667 62.752,333.667 72.828 L 333.667 82.795 334.077 83.064 C 334.834 83.560,336.475 83.382,337.122 82.736 C 337.392 82.465,337.436 63.000,337.167 63.000 C 337.075 63.000,337.000 62.850,337.000 62.667 C 337.000 62.444,336.889 62.333,336.667 62.333 C 336.483 62.333,336.333 62.258,336.333 62.167 C 336.333 62.074,335.889 62.000,335.333 62.000 C 334.778 62.000,334.333 62.074,334.333 62.167 M340.875 62.421 L 340.500 62.821 340.500 72.843 C 340.500 82.724,340.505 82.866,340.833 82.952 C 341.017 83.000,341.167 83.105,341.167 83.186 C 341.167 83.267,341.654 83.333,342.250 83.333 C 342.861 83.333,343.333 83.261,343.333 83.167 C 343.333 83.075,343.446 83.000,343.583 83.000 C 343.722 83.000,343.833 82.852,343.833 82.667 C 343.833 82.483,343.908 82.333,344.000 82.333 C 344.109 82.333,344.167 79.031,344.167 72.760 C 344.167 66.557,344.108 63.150,344.000 63.083 C 343.908 63.027,343.833 62.854,343.832 62.698 C 343.829 61.946,341.523 61.729,340.875 62.421 M207.167 62.667 C 206.938 62.846,206.656 62.994,206.542 62.996 C 206.427 62.998,206.333 63.075,206.333 63.167 C 206.333 63.258,206.253 63.333,206.155 63.333 C 205.924 63.333,205.500 63.757,205.500 63.988 C 205.500 64.086,205.425 64.167,205.333 64.167 C 205.242 64.167,205.167 64.317,205.167 64.500 C 205.167 64.683,205.092 64.833,205.000 64.833 C 204.895 64.833,204.833 66.028,204.833 68.083 C 204.833 70.139,204.895 71.333,205.000 71.333 C 205.092 71.333,205.167 71.483,205.167 71.667 C 205.167 71.850,205.242 72.000,205.333 72.000 C 205.425 72.000,205.500 72.116,205.500 72.258 C 205.500 72.890,207.031 73.833,208.057 73.833 C 208.382 73.833,208.693 73.908,208.750 74.000 C 208.812 74.101,210.006 74.167,211.772 74.167 C 214.804 74.167,215.167 74.245,215.167 74.905 C 215.167 75.049,215.242 75.167,215.333 75.167 C 215.434 75.167,215.500 75.861,215.500 76.917 C 215.500 77.972,215.434 78.667,215.333 78.667 C 215.242 78.667,215.167 78.752,215.167 78.856 C 215.167 79.740,210.191 80.382,209.408 79.598 C 209.278 79.469,209.082 79.333,208.971 79.296 C 208.848 79.255,208.747 78.781,208.711 78.073 C 208.592 75.755,208.385 75.498,206.647 75.505 C 204.827 75.513,204.833 75.503,204.833 78.227 C 204.833 79.631,204.897 80.500,205.000 80.500 C 205.092 80.500,205.167 80.650,205.167 80.833 C 205.167 81.017,205.242 81.167,205.333 81.167 C 205.425 81.167,205.500 81.252,205.500 81.356 C 205.500 81.600,206.288 82.281,206.875 82.543 C 207.127 82.656,207.333 82.805,207.333 82.874 C 207.333 82.943,207.629 83.000,207.990 83.000 C 208.351 83.000,208.693 83.075,208.750 83.167 C 208.813 83.268,210.082 83.333,212.000 83.333 C 213.918 83.333,215.187 83.268,215.250 83.167 C 215.307 83.075,215.597 83.000,215.895 83.000 C 216.207 83.000,216.589 82.858,216.795 82.667 C 216.992 82.483,217.237 82.333,217.339 82.333 C 217.691 82.333,218.833 80.984,218.833 80.570 C 218.833 80.348,218.908 80.167,219.000 80.167 C 219.105 80.167,219.167 78.972,219.167 76.917 C 219.167 75.129,219.100 73.667,219.019 73.667 C 218.937 73.667,218.825 73.423,218.769 73.125 C 218.659 72.541,218.004 71.667,217.677 71.667 C 217.567 71.667,217.364 71.554,217.226 71.417 C 217.089 71.279,216.794 71.167,216.571 71.167 C 216.349 71.167,216.167 71.092,216.167 71.000 C 216.167 70.894,214.944 70.833,212.833 70.833 C 210.722 70.833,209.500 70.772,209.500 70.667 C 209.500 70.575,209.359 70.500,209.188 70.500 C 208.784 70.500,208.667 69.918,208.667 67.922 C 208.667 66.309,208.869 65.833,209.555 65.833 C 209.708 65.833,209.833 65.758,209.833 65.667 C 209.833 65.564,210.636 65.500,211.907 65.500 C 213.109 65.500,214.024 65.570,214.083 65.667 C 214.140 65.758,214.300 65.833,214.438 65.833 C 214.730 65.833,215.167 66.226,215.167 66.488 C 215.167 66.586,215.242 66.667,215.333 66.667 C 215.429 66.667,215.500 67.171,215.500 67.845 C 215.500 69.057,215.698 69.500,216.238 69.500 C 216.382 69.500,216.500 69.575,216.500 69.667 C 216.500 69.758,216.838 69.833,217.250 69.833 C 217.662 69.833,218.000 69.758,218.000 69.667 C 218.000 69.575,218.155 69.500,218.345 69.500 C 219.046 69.500,219.167 69.146,219.167 67.095 C 219.167 65.921,219.102 65.167,219.000 65.167 C 218.908 65.167,218.833 64.957,218.833 64.701 C 218.833 64.202,217.711 63.000,217.244 63.000 C 217.110 63.000,217.000 62.925,217.000 62.833 C 217.000 62.742,216.850 62.667,216.667 62.667 C 216.483 62.667,216.333 62.592,216.333 62.500 C 216.333 62.139,207.639 62.297,207.167 62.667 M273.667 62.500 C 273.667 62.592,273.517 62.667,273.333 62.667 C 273.150 62.667,273.000 62.742,273.000 62.833 C 273.000 62.925,272.890 63.000,272.756 63.000 C 272.289 63.000,271.167 64.202,271.167 64.701 C 271.167 64.957,271.092 65.167,271.000 65.167 C 270.891 65.167,270.833 67.778,270.833 72.667 C 270.833 77.556,270.891 80.167,271.000 80.167 C 271.092 80.167,271.167 80.363,271.167 80.603 C 271.167 81.061,272.304 82.333,272.713 82.333 C 272.831 82.333,273.035 82.483,273.167 82.667 C 273.333 82.897,273.598 83.000,274.027 83.000 C 274.368 83.000,274.693 83.075,274.750 83.167 C 274.813 83.268,276.057 83.333,277.927 83.333 C 279.864 83.333,281.000 83.272,281.000 83.167 C 281.000 83.075,281.300 83.000,281.667 83.000 C 282.033 83.000,282.333 82.925,282.333 82.833 C 282.333 82.742,282.483 82.667,282.667 82.667 C 282.850 82.667,283.000 82.592,283.000 82.500 C 283.000 82.408,283.077 82.333,283.172 82.333 C 283.381 82.333,284.336 81.369,284.625 80.867 C 284.776 80.604,284.833 79.394,284.832 76.461 L 284.831 72.417 284.382 72.208 C 284.135 72.094,283.451 72.000,282.861 72.000 C 281.181 72.000,281.167 72.032,281.167 75.859 C 281.167 77.842,281.105 79.000,281.000 79.000 C 280.908 79.000,280.833 79.112,280.833 79.250 C 280.833 79.389,280.685 79.500,280.500 79.500 C 280.317 79.500,280.167 79.575,280.167 79.667 C 280.167 79.769,279.360 79.833,278.081 79.833 C 275.922 79.833,275.629 79.761,274.884 79.049 L 274.500 78.682 274.500 72.674 C 274.500 69.309,274.565 66.667,274.647 66.667 C 274.728 66.667,274.834 66.517,274.881 66.334 C 274.929 66.151,275.107 65.958,275.276 65.905 C 275.445 65.852,275.714 65.739,275.873 65.655 C 276.264 65.446,279.453 65.456,279.583 65.667 C 279.640 65.758,279.842 65.833,280.033 65.833 C 280.607 65.833,280.822 66.318,280.828 67.625 C 280.831 68.316,280.905 68.833,281.000 68.833 C 281.092 68.833,281.167 68.968,281.167 69.133 C 281.167 69.544,281.490 69.833,281.950 69.833 C 282.161 69.833,282.333 69.908,282.333 70.000 C 282.333 70.092,282.516 70.167,282.740 70.167 C 282.964 70.167,283.193 70.092,283.250 70.000 C 283.307 69.908,283.504 69.833,283.688 69.833 C 284.089 69.833,284.500 69.460,284.500 69.095 C 284.500 68.951,284.575 68.833,284.667 68.833 C 284.764 68.833,284.833 68.278,284.833 67.500 C 284.833 66.722,284.764 66.167,284.667 66.167 C 284.575 66.167,284.500 65.792,284.500 65.333 C 284.500 64.875,284.425 64.500,284.333 64.500 C 284.242 64.500,284.165 64.406,284.164 64.292 C 284.160 63.969,283.239 63.000,282.936 63.000 C 282.788 63.000,282.667 62.925,282.667 62.833 C 282.667 62.742,282.517 62.667,282.333 62.667 C 282.150 62.667,282.000 62.592,282.000 62.500 C 282.000 62.393,280.500 62.333,277.833 62.333 C 275.167 62.333,273.667 62.393,273.667 62.500 M308.333 62.500 C 308.333 62.592,308.183 62.667,308.000 62.667 C 307.817 62.667,307.667 62.742,307.667 62.833 C 307.667 62.925,307.551 63.000,307.410 63.000 C 307.077 63.000,305.833 64.231,305.833 64.560 C 305.833 64.700,305.758 64.860,305.667 64.917 C 305.559 64.983,305.500 67.748,305.500 72.667 C 305.500 77.585,305.559 80.350,305.667 80.417 C 305.758 80.473,305.833 80.665,305.833 80.843 C 305.833 81.021,305.908 81.167,306.000 81.167 C 306.092 81.167,306.167 81.247,306.167 81.345 C 306.167 81.537,306.576 82.000,306.745 82.000 C 306.801 82.000,307.008 82.150,307.205 82.333 C 307.402 82.517,307.661 82.667,307.781 82.667 C 307.902 82.667,308.000 82.734,308.000 82.817 C 308.000 83.181,315.544 83.522,315.893 83.174 C 315.988 83.078,316.352 83.000,316.700 83.000 C 317.048 83.000,317.333 82.925,317.333 82.833 C 317.333 82.742,317.427 82.666,317.542 82.666 C 317.821 82.666,318.833 81.790,318.833 81.548 C 318.833 81.442,318.983 81.308,319.167 81.250 C 319.350 81.192,319.500 81.004,319.500 80.832 C 319.500 80.660,319.575 80.473,319.667 80.417 C 319.763 80.357,319.833 79.468,319.833 78.316 C 319.833 75.762,319.653 75.500,317.902 75.500 C 316.393 75.500,316.167 75.755,316.167 77.459 C 316.167 78.648,316.143 78.724,315.600 79.267 L 315.033 79.833 312.667 79.833 L 310.300 79.833 309.733 79.267 L 309.167 78.700 309.167 72.751 C 309.167 66.296,309.234 65.833,310.168 65.833 C 310.340 65.833,310.527 65.758,310.583 65.667 C 310.643 65.570,311.557 65.500,312.760 65.500 C 314.031 65.500,314.833 65.564,314.833 65.667 C 314.833 65.758,314.983 65.833,315.167 65.833 C 315.350 65.833,315.500 65.903,315.500 65.989 C 315.500 66.074,315.650 66.192,315.833 66.250 C 316.131 66.344,316.167 66.502,316.167 67.724 C 316.167 69.319,316.409 69.833,317.162 69.833 C 317.424 69.833,317.673 69.927,317.714 70.042 C 317.775 70.208,317.860 70.208,318.143 70.042 C 318.337 69.927,318.689 69.833,318.926 69.833 C 319.741 69.833,319.833 69.554,319.833 67.095 C 319.833 65.698,319.770 64.833,319.667 64.833 C 319.575 64.833,319.500 64.683,319.500 64.500 C 319.500 64.317,319.425 64.167,319.333 64.167 C 319.242 64.167,319.167 64.067,319.167 63.945 C 319.167 63.823,318.979 63.623,318.750 63.500 C 318.521 63.377,318.333 63.215,318.333 63.139 C 318.333 63.062,318.183 63.000,318.000 63.000 C 317.817 63.000,317.667 62.925,317.667 62.833 C 317.667 62.742,317.517 62.667,317.333 62.667 C 317.150 62.667,317.000 62.592,317.000 62.500 C 317.000 62.393,315.444 62.333,312.667 62.333 C 309.889 62.333,308.333 62.393,308.333 62.500 M328.283 70.397 C 327.302 71.295,327.433 74.167,328.454 74.167 C 328.571 74.167,328.667 74.223,328.668 74.292 C 328.670 74.520,329.557 74.833,330.200 74.833 C 330.548 74.833,330.833 74.758,330.833 74.667 C 330.833 74.575,330.965 74.498,331.125 74.495 C 331.485 74.488,332.000 74.113,332.000 73.857 C 332.000 73.752,332.075 73.667,332.167 73.667 C 332.258 73.667,332.333 73.484,332.333 73.260 C 332.333 73.036,332.408 72.807,332.500 72.750 C 332.592 72.693,332.667 72.468,332.667 72.250 C 332.667 72.032,332.592 71.807,332.500 71.750 C 332.408 71.693,332.333 71.499,332.333 71.318 C 332.333 69.902,329.521 69.263,328.283 70.397 M277.333 71.000 C 277.333 71.092,277.196 71.167,277.028 71.167 C 276.089 71.167,275.346 73.754,276.042 74.601 C 277.821 76.769,280.833 76.006,280.833 73.388 C 280.833 72.178,280.215 71.167,279.474 71.167 C 279.305 71.167,279.167 71.092,279.167 71.000 C 279.167 70.908,278.754 70.833,278.250 70.833 C 277.746 70.833,277.333 70.908,277.333 71.000 M228.667 74.333 C 228.667 74.425,228.551 74.500,228.409 74.500 C 228.076 74.500,227.333 75.242,227.333 75.576 C 227.333 75.717,227.258 75.833,227.167 75.833 C 226.891 75.833,227.003 77.380,227.317 77.917 C 227.950 79.000,230.396 79.262,231.222 78.335 C 231.686 77.815,231.913 75.500,231.500 75.500 C 231.408 75.500,231.333 75.350,231.333 75.167 C 231.333 74.981,231.222 74.833,231.083 74.833 C 230.946 74.833,230.833 74.758,230.833 74.667 C 230.833 74.575,230.683 74.500,230.500 74.500 C 230.317 74.500,230.167 74.425,230.167 74.333 C 230.167 74.242,229.829 74.167,229.417 74.167 C 229.004 74.167,228.667 74.242,228.667 74.333 M259.461 74.396 C 258.808 74.685,258.333 75.252,258.333 75.743 C 258.333 75.976,258.258 76.167,258.167 76.167 C 258.075 76.167,258.000 76.354,258.000 76.583 C 258.000 76.813,258.075 77.000,258.167 77.000 C 258.258 77.000,258.333 77.225,258.333 77.500 C 258.333 77.775,258.408 78.000,258.500 78.000 C 258.592 78.000,258.667 78.110,258.667 78.244 C 258.667 79.020,261.345 79.101,262.149 78.350 C 262.679 77.855,262.969 75.500,262.500 75.500 C 262.408 75.500,262.333 75.382,262.333 75.238 C 262.333 74.874,261.922 74.500,261.522 74.500 C 261.337 74.500,261.140 74.425,261.083 74.333 C 260.945 74.110,260.026 74.145,259.461 74.396 M294.417 74.333 C 294.360 74.425,294.202 74.500,294.066 74.500 C 293.669 74.500,293.000 75.280,293.000 75.742 C 293.000 75.976,292.925 76.167,292.833 76.167 C 292.742 76.167,292.667 76.354,292.667 76.583 C 292.667 76.813,292.742 77.000,292.833 77.000 C 292.925 77.000,293.000 77.225,293.000 77.500 C 293.000 77.775,293.075 78.000,293.167 78.000 C 293.258 78.000,293.333 78.085,293.333 78.190 C 293.333 78.995,295.994 79.117,296.816 78.350 C 297.345 77.855,297.635 75.500,297.167 75.500 C 297.075 75.500,297.000 75.382,297.000 75.238 C 297.000 74.874,296.589 74.500,296.188 74.500 C 296.004 74.500,295.807 74.425,295.750 74.333 C 295.693 74.242,295.393 74.167,295.083 74.167 C 294.773 74.167,294.473 74.242,294.417 74.333 " stroke="none" fill="#fcfcfc" fill-rule="evenodd"></path><path id="path1" d="M106.000 24.985 C 106.000 25.085,105.707 25.167,105.347 25.167 C 104.988 25.167,104.669 25.236,104.639 25.321 C 104.608 25.406,104.471 25.499,104.333 25.529 C 104.013 25.598,103.000 26.667,103.000 26.935 C 103.000 27.047,102.906 27.170,102.792 27.208 C 102.626 27.264,102.583 33.270,102.583 56.500 C 102.583 79.730,102.626 85.736,102.792 85.792 C 102.906 85.830,103.000 85.972,103.000 86.107 C 103.000 86.242,103.064 86.314,103.142 86.266 C 103.219 86.217,103.382 86.363,103.503 86.589 C 103.624 86.815,103.827 87.000,103.955 87.000 C 104.082 87.000,104.140 87.075,104.083 87.167 C 104.027 87.258,104.121 87.333,104.292 87.333 C 104.464 87.333,104.915 87.483,105.294 87.667 C 106.048 88.031,108.833 88.162,108.833 87.833 C 108.833 87.742,109.084 87.667,109.391 87.667 C 109.737 87.667,110.063 87.540,110.250 87.333 C 110.416 87.150,110.625 87.000,110.715 87.000 C 110.905 87.000,111.657 86.161,111.686 85.917 C 111.697 85.825,111.697 85.694,111.686 85.625 C 111.676 85.556,111.742 85.500,111.833 85.500 C 111.944 85.500,112.000 75.685,112.000 56.389 C 112.000 40.378,111.949 27.329,111.886 27.392 C 111.772 27.505,111.258 26.528,111.307 26.292 C 111.322 26.223,111.276 26.185,111.205 26.208 C 111.135 26.231,110.895 26.081,110.674 25.875 C 110.452 25.669,110.093 25.500,109.875 25.500 C 109.654 25.500,109.526 25.427,109.583 25.333 C 109.644 25.236,109.457 25.161,109.135 25.154 C 108.832 25.147,108.433 25.100,108.250 25.050 C 107.519 24.849,106.000 24.806,106.000 24.985 M177.072 24.994 C 176.984 25.083,176.669 25.174,176.372 25.197 C 176.076 25.219,175.833 25.297,175.833 25.369 C 175.833 25.441,175.679 25.500,175.490 25.500 C 175.301 25.500,175.193 25.575,175.250 25.667 C 175.340 25.812,175.259 25.851,174.911 25.827 C 174.776 25.818,174.314 26.309,174.369 26.404 C 174.395 26.449,174.274 26.590,174.100 26.718 C 173.925 26.845,173.836 27.036,173.901 27.141 C 173.966 27.247,173.940 27.333,173.843 27.333 C 173.720 27.333,173.667 36.116,173.667 56.611 C 173.667 72.714,173.716 85.839,173.777 85.779 C 173.877 85.679,174.115 85.997,174.442 86.667 C 174.636 87.063,174.955 87.333,175.228 87.333 C 175.367 87.333,175.527 87.408,175.583 87.500 C 175.640 87.592,175.902 87.667,176.167 87.667 C 176.431 87.667,176.693 87.742,176.750 87.833 C 176.807 87.925,177.482 88.000,178.250 88.000 C 179.018 88.000,179.693 87.925,179.750 87.833 C 179.807 87.742,180.069 87.667,180.333 87.667 C 180.598 87.667,180.860 87.592,180.917 87.500 C 180.973 87.408,181.131 87.333,181.267 87.333 C 181.598 87.333,182.333 86.584,182.333 86.248 C 182.333 86.101,182.408 86.027,182.500 86.083 C 182.592 86.140,182.667 86.069,182.667 85.927 C 182.667 85.784,182.741 85.667,182.832 85.667 C 182.940 85.667,182.997 75.616,182.999 56.500 C 183.001 40.458,182.940 27.333,182.865 27.333 C 182.790 27.333,182.626 27.071,182.500 26.750 C 182.374 26.429,182.163 26.167,182.030 26.167 C 181.898 26.167,181.668 26.035,181.520 25.874 C 181.173 25.497,180.528 25.208,180.002 25.193 C 179.775 25.187,179.562 25.103,179.530 25.007 C 179.448 24.761,178.378 24.790,178.277 25.042 C 178.210 25.208,178.190 25.208,178.180 25.042 C 178.173 24.927,178.032 24.833,177.867 24.833 C 177.702 24.833,177.466 24.927,177.342 25.042 C 177.163 25.208,177.141 25.208,177.235 25.042 C 177.376 24.793,177.296 24.770,177.072 24.994 M73.400 26.606 C 73.161 26.730,72.898 26.790,72.816 26.739 C 72.734 26.689,72.667 26.726,72.667 26.823 C 72.667 26.921,72.544 27.000,72.395 27.000 C 71.962 27.000,71.406 27.735,71.480 28.208 C 71.491 28.277,71.425 28.333,71.333 28.333 C 71.242 28.333,71.167 28.446,71.167 28.583 C 71.167 28.721,71.092 28.833,71.000 28.833 C 70.908 28.833,70.833 28.968,70.833 29.133 C 70.833 29.298,70.740 29.534,70.625 29.658 C 70.458 29.837,70.458 29.859,70.625 29.765 C 70.740 29.700,70.833 29.726,70.833 29.823 C 70.833 29.921,70.758 30.000,70.667 30.000 C 70.575 30.000,70.500 30.113,70.500 30.250 C 70.500 30.387,70.425 30.500,70.333 30.500 C 70.242 30.500,70.167 30.725,70.167 31.000 C 70.167 31.275,70.092 31.500,70.000 31.500 C 69.908 31.500,69.833 31.688,69.833 31.917 C 69.833 32.146,69.753 32.333,69.655 32.333 C 69.557 32.333,69.522 32.474,69.578 32.649 C 69.633 32.823,69.574 33.069,69.447 33.196 C 69.248 33.395,69.063 34.015,68.969 34.792 C 68.956 34.906,68.898 35.000,68.841 35.000 C 68.784 35.000,68.725 35.167,68.710 35.372 C 68.684 35.714,68.535 36.109,68.147 36.873 C 68.066 37.032,68.000 37.376,68.000 37.637 C 68.000 37.898,67.944 38.167,67.875 38.236 C 67.743 38.368,67.721 38.459,67.688 39.010 C 67.676 39.199,67.592 39.307,67.500 39.250 C 67.408 39.193,67.333 39.301,67.333 39.490 C 67.333 39.679,67.254 39.833,67.157 39.833 C 67.060 39.833,67.026 39.908,67.082 39.998 C 67.138 40.089,67.076 40.408,66.945 40.706 C 66.439 41.856,66.299 42.337,66.396 42.589 C 66.454 42.740,66.426 42.807,66.331 42.749 C 66.237 42.690,66.167 42.863,66.167 43.157 C 66.167 43.437,66.110 43.667,66.042 43.668 C 65.973 43.669,65.830 43.856,65.724 44.085 C 65.618 44.313,65.601 44.457,65.686 44.405 C 65.772 44.352,65.696 44.568,65.518 44.885 C 65.269 45.328,65.239 45.510,65.389 45.672 C 65.526 45.820,65.527 45.851,65.394 45.776 C 65.279 45.712,65.168 45.851,65.112 46.127 C 64.914 47.111,64.779 47.587,64.675 47.667 C 64.541 47.770,64.094 49.201,64.139 49.384 C 64.158 49.458,64.059 49.681,63.920 49.880 C 63.781 50.078,63.667 50.449,63.667 50.704 C 63.667 50.958,63.608 51.167,63.535 51.167 C 63.463 51.167,63.392 51.334,63.376 51.539 C 63.361 51.744,63.270 51.938,63.174 51.970 C 63.078 52.002,63.000 52.247,63.000 52.514 C 63.000 52.781,62.925 53.000,62.833 53.000 C 62.742 53.000,62.667 53.225,62.667 53.500 C 62.667 53.775,62.601 54.000,62.521 54.000 C 62.378 54.000,62.094 54.943,62.151 55.228 C 62.167 55.307,62.062 55.551,61.919 55.769 C 61.776 55.988,61.695 56.167,61.739 56.167 C 61.783 56.167,61.710 56.475,61.577 56.851 C 61.444 57.228,61.377 57.603,61.428 57.684 C 61.478 57.766,61.456 57.833,61.379 57.833 C 61.301 57.833,61.225 58.001,61.210 58.206 C 61.194 58.411,61.103 58.605,61.007 58.636 C 60.912 58.668,60.833 58.871,60.833 59.087 C 60.833 59.304,60.758 59.527,60.667 59.583 C 60.575 59.640,60.500 59.869,60.500 60.093 C 60.500 60.317,60.425 60.500,60.333 60.500 C 60.242 60.500,60.167 60.688,60.167 60.918 C 60.167 61.149,60.025 61.655,59.852 62.043 C 59.272 63.343,58.993 64.187,59.090 64.344 C 59.143 64.430,59.107 64.500,59.010 64.500 C 58.913 64.500,58.845 64.556,58.860 64.625 C 58.874 64.694,58.828 64.884,58.756 65.049 C 58.684 65.213,58.668 65.390,58.721 65.443 C 58.805 65.527,58.578 66.262,58.162 67.250 C 58.085 67.433,57.926 67.883,57.810 68.250 C 57.693 68.617,57.519 69.025,57.424 69.157 C 57.292 69.340,57.303 69.365,57.471 69.265 C 57.653 69.155,57.654 69.192,57.472 69.483 C 57.352 69.675,57.213 69.833,57.163 69.833 C 57.113 69.833,57.057 70.028,57.037 70.265 C 57.017 70.502,56.945 70.783,56.877 70.890 C 55.878 72.441,56.439 76.333,57.661 76.333 C 57.756 76.333,57.833 76.408,57.833 76.500 C 57.833 76.592,57.946 76.667,58.083 76.667 C 58.221 76.667,58.333 76.742,58.333 76.833 C 58.333 76.925,58.483 77.000,58.667 77.000 C 58.850 77.000,59.000 77.059,59.000 77.131 C 59.000 77.203,59.168 77.275,59.373 77.290 C 59.577 77.306,59.771 77.397,59.803 77.493 C 59.835 77.588,60.150 77.667,60.504 77.667 C 60.858 77.667,61.187 77.732,61.237 77.812 C 61.361 78.012,62.798 78.025,62.921 77.827 C 62.975 77.739,63.203 77.667,63.427 77.667 C 63.650 77.667,63.833 77.592,63.833 77.500 C 63.833 77.408,63.948 77.333,64.089 77.333 C 64.229 77.333,64.387 77.221,64.439 77.084 C 64.492 76.947,64.614 76.884,64.710 76.943 C 64.807 77.004,64.836 76.972,64.774 76.873 C 64.713 76.774,64.777 76.580,64.915 76.442 C 65.053 76.304,65.167 76.110,65.167 76.012 C 65.167 75.914,65.242 75.833,65.333 75.833 C 65.425 75.833,65.500 75.683,65.500 75.500 C 65.500 75.317,65.557 75.167,65.626 75.167 C 65.802 75.167,66.196 73.849,66.077 73.657 C 66.024 73.571,66.060 73.500,66.157 73.500 C 66.254 73.500,66.333 73.313,66.333 73.083 C 66.333 72.854,66.392 72.667,66.464 72.667 C 66.535 72.667,66.611 72.460,66.632 72.208 C 66.653 71.956,66.744 71.725,66.835 71.694 C 66.926 71.664,67.000 71.458,67.000 71.236 C 67.000 71.015,67.075 70.833,67.167 70.833 C 67.258 70.833,67.333 70.608,67.333 70.333 C 67.333 70.058,67.408 69.833,67.500 69.833 C 67.592 69.833,67.667 69.608,67.667 69.333 C 67.667 69.058,67.723 68.833,67.793 68.833 C 67.944 68.833,68.333 67.641,68.333 67.179 C 68.333 67.000,68.415 66.802,68.516 66.740 C 68.616 66.678,68.664 66.449,68.622 66.230 C 68.580 66.012,68.611 65.833,68.690 65.833 C 68.769 65.833,68.833 65.688,68.833 65.510 C 68.833 65.332,68.908 65.140,69.000 65.083 C 69.092 65.027,69.167 64.797,69.167 64.573 C 69.167 64.350,69.242 64.167,69.333 64.167 C 69.425 64.167,69.500 63.937,69.500 63.657 C 69.500 63.376,69.559 63.184,69.631 63.228 C 69.704 63.273,69.779 63.108,69.799 62.863 C 69.820 62.618,69.911 62.392,70.001 62.361 C 70.092 62.331,70.167 62.087,70.167 61.819 C 70.167 61.552,70.242 61.333,70.333 61.333 C 70.425 61.333,70.500 61.195,70.500 61.026 C 70.500 60.856,70.623 60.472,70.773 60.171 C 70.923 59.871,71.054 59.372,71.064 59.063 C 71.075 58.753,71.140 58.500,71.208 58.500 C 71.277 58.500,71.333 58.317,71.333 58.093 C 71.333 57.869,71.408 57.640,71.500 57.583 C 71.592 57.527,71.667 57.222,71.667 56.907 C 71.667 56.591,71.742 56.333,71.833 56.333 C 71.925 56.333,72.000 56.104,72.000 55.823 C 72.000 55.526,72.069 55.357,72.167 55.417 C 72.264 55.477,72.333 55.304,72.333 55.000 C 72.333 54.696,72.403 54.523,72.500 54.583 C 72.595 54.642,72.667 54.502,72.667 54.260 C 72.667 54.025,72.742 53.833,72.833 53.833 C 72.925 53.833,73.000 53.687,73.000 53.508 C 73.000 53.329,73.069 53.010,73.153 52.800 C 73.586 51.718,73.566 51.789,73.766 50.529 C 73.843 50.044,73.927 49.880,74.021 50.029 C 74.110 50.169,74.163 49.986,74.164 49.532 C 74.166 49.096,74.232 48.854,74.333 48.917 C 74.431 48.977,74.500 48.807,74.500 48.510 C 74.500 48.229,74.588 48.000,74.694 48.000 C 74.801 48.000,74.846 47.957,74.794 47.905 C 74.695 47.806,75.197 46.248,75.389 46.055 C 75.450 45.994,75.500 45.769,75.500 45.556 C 75.500 45.342,75.588 45.167,75.694 45.167 C 75.801 45.167,75.842 45.120,75.784 45.062 C 75.727 45.005,75.782 44.761,75.907 44.520 C 76.031 44.278,76.181 43.782,76.238 43.416 C 76.296 43.050,76.416 42.725,76.505 42.694 C 76.594 42.664,76.667 42.439,76.667 42.194 C 76.668 41.950,76.822 41.497,77.011 41.188 C 77.199 40.879,77.316 40.530,77.271 40.412 C 77.226 40.295,77.295 40.061,77.423 39.891 C 77.551 39.722,77.658 39.415,77.661 39.208 C 77.664 39.002,77.751 38.833,77.854 38.833 C 77.976 38.833,77.961 38.735,77.812 38.551 C 77.657 38.360,77.650 38.309,77.792 38.395 C 77.931 38.478,78.000 38.409,78.000 38.186 C 78.000 38.003,78.075 37.807,78.167 37.750 C 78.258 37.693,78.333 37.431,78.333 37.167 C 78.333 36.902,78.408 36.640,78.500 36.583 C 78.592 36.527,78.671 36.279,78.677 36.032 C 78.688 35.585,78.688 35.585,78.844 35.974 C 78.930 36.188,78.959 36.432,78.907 36.515 C 78.856 36.599,78.893 36.667,78.990 36.667 C 79.087 36.667,79.167 36.839,79.167 37.050 C 79.167 37.261,79.243 37.510,79.337 37.604 C 79.431 37.698,79.539 37.919,79.577 38.096 C 79.702 38.674,80.277 40.168,80.347 40.097 C 80.386 40.060,80.433 40.260,80.454 40.543 C 80.474 40.826,80.568 41.135,80.662 41.229 C 80.756 41.323,80.833 41.593,80.833 41.830 C 80.833 42.066,80.935 42.407,81.060 42.588 C 81.185 42.769,81.266 43.048,81.241 43.209 C 81.216 43.370,81.271 43.455,81.362 43.399 C 81.459 43.339,81.509 43.460,81.481 43.690 C 81.455 43.906,81.526 44.252,81.639 44.458 C 81.752 44.665,81.790 44.833,81.723 44.833 C 81.655 44.833,81.690 44.923,81.800 45.033 C 81.910 45.143,82.000 45.406,82.000 45.617 C 82.000 45.828,82.075 46.000,82.167 46.000 C 82.258 46.000,82.333 46.175,82.333 46.389 C 82.333 46.603,82.385 46.829,82.448 46.892 C 82.614 47.058,82.995 48.201,82.997 48.542 C 82.999 48.702,83.075 48.833,83.167 48.833 C 83.258 48.833,83.333 49.063,83.333 49.343 C 83.333 49.624,83.393 49.816,83.465 49.772 C 83.537 49.727,83.735 50.322,83.905 51.095 C 84.074 51.868,84.282 52.500,84.366 52.500 C 84.451 52.500,84.473 52.575,84.417 52.667 C 84.360 52.758,84.380 52.833,84.461 52.833 C 84.542 52.833,84.576 53.058,84.536 53.333 C 84.492 53.633,84.536 53.833,84.648 53.833 C 84.750 53.833,84.833 53.983,84.833 54.167 C 84.833 54.350,84.890 54.500,84.959 54.500 C 85.095 54.500,85.500 55.674,85.500 56.067 C 85.500 56.198,85.574 56.331,85.665 56.361 C 85.756 56.392,85.847 56.623,85.868 56.875 C 85.889 57.127,85.965 57.333,86.036 57.333 C 86.108 57.333,86.169 57.502,86.172 57.708 C 86.178 58.108,86.711 59.767,86.892 59.948 C 86.951 60.007,87.000 60.222,87.000 60.425 C 87.000 60.629,87.109 61.005,87.241 61.261 C 87.374 61.517,87.441 61.793,87.391 61.875 C 87.340 61.957,87.475 62.219,87.691 62.456 C 87.907 62.693,87.977 62.825,87.847 62.750 C 87.663 62.643,87.639 62.683,87.741 62.931 C 87.812 63.106,87.909 63.381,87.955 63.542 C 88.001 63.702,88.105 63.833,88.186 63.833 C 88.267 63.833,88.333 64.016,88.333 64.240 C 88.333 64.464,88.400 64.688,88.481 64.738 C 88.562 64.788,88.679 65.167,88.741 65.580 C 88.803 65.993,88.862 66.387,88.873 66.457 C 88.884 66.526,88.989 66.679,89.106 66.796 C 89.223 66.914,89.278 67.118,89.227 67.251 C 89.176 67.383,89.251 67.608,89.393 67.751 C 89.536 67.893,89.610 68.120,89.558 68.255 C 89.507 68.390,89.547 68.500,89.649 68.500 C 89.750 68.500,89.833 68.683,89.833 68.907 C 89.833 69.131,89.908 69.360,90.000 69.417 C 90.092 69.473,90.167 69.745,90.167 70.020 C 90.167 70.311,90.236 70.477,90.333 70.417 C 90.432 70.355,90.500 70.551,90.500 70.897 C 90.500 71.218,90.575 71.527,90.667 71.583 C 90.758 71.640,90.833 71.830,90.833 72.005 C 90.833 72.180,90.988 72.598,91.176 72.933 C 91.365 73.269,91.480 73.644,91.433 73.767 C 91.386 73.889,91.420 74.034,91.507 74.088 C 91.595 74.142,91.667 74.365,91.667 74.583 C 91.667 74.802,91.742 75.027,91.833 75.083 C 91.925 75.140,92.000 75.322,92.000 75.487 C 92.000 75.975,93.670 77.574,94.250 77.642 C 94.525 77.674,94.876 77.768,95.031 77.850 C 95.406 78.051,96.122 78.041,96.250 77.833 C 96.307 77.742,96.691 77.667,97.103 77.667 C 97.561 77.667,97.813 77.602,97.750 77.500 C 97.693 77.408,97.786 77.333,97.957 77.333 C 98.337 77.333,99.164 76.963,99.165 76.792 C 99.166 76.723,99.275 76.667,99.408 76.667 C 99.665 76.667,100.500 75.966,100.500 75.750 C 100.500 75.680,100.632 75.501,100.793 75.353 C 101.069 75.099,101.209 74.448,101.192 73.500 C 101.171 72.354,101.126 72.092,100.888 71.729 C 100.746 71.513,100.673 71.223,100.726 71.085 C 100.779 70.946,100.750 70.833,100.661 70.833 C 100.573 70.833,100.500 70.661,100.500 70.450 C 100.500 70.239,100.430 69.995,100.344 69.908 C 100.258 69.821,100.160 69.547,100.128 69.298 C 100.095 69.049,100.015 68.793,99.951 68.729 C 99.886 68.664,99.833 68.441,99.833 68.232 C 99.833 68.024,99.758 67.807,99.667 67.750 C 99.575 67.693,99.500 67.464,99.500 67.240 C 99.500 67.016,99.425 66.833,99.333 66.833 C 99.242 66.833,99.167 66.608,99.167 66.333 C 99.167 66.058,99.104 65.833,99.028 65.833 C 98.900 65.833,98.608 64.902,98.387 63.793 C 98.337 63.542,98.229 63.378,98.148 63.428 C 98.067 63.479,98.000 63.253,98.000 62.927 C 98.000 62.600,97.925 62.333,97.833 62.333 C 97.742 62.333,97.667 62.146,97.667 61.917 C 97.667 61.688,97.592 61.500,97.500 61.500 C 97.408 61.500,97.333 61.317,97.333 61.093 C 97.333 60.869,97.258 60.640,97.167 60.583 C 97.075 60.527,97.000 60.222,97.000 59.907 C 97.000 59.591,96.925 59.333,96.833 59.333 C 96.742 59.333,96.667 59.108,96.667 58.833 C 96.667 58.558,96.610 58.333,96.542 58.332 C 96.473 58.331,96.330 58.144,96.224 57.915 C 96.118 57.687,96.099 57.542,96.182 57.593 C 96.265 57.644,96.333 57.607,96.333 57.510 C 96.333 57.413,96.261 57.333,96.172 57.333 C 96.083 57.333,96.050 57.231,96.098 57.105 C 96.146 56.980,96.031 56.602,95.843 56.267 C 95.654 55.931,95.500 55.471,95.500 55.245 C 95.500 55.019,95.425 54.833,95.333 54.833 C 95.242 54.833,95.167 54.652,95.167 54.431 C 95.167 54.209,95.092 54.003,95.001 53.972 C 94.911 53.942,94.819 53.710,94.798 53.458 C 94.778 53.206,94.702 53.000,94.630 53.000 C 94.559 53.000,94.500 52.775,94.500 52.500 C 94.500 52.225,94.425 52.000,94.333 52.000 C 94.242 52.000,94.167 51.849,94.167 51.664 C 94.167 51.304,93.855 50.660,93.583 50.461 C 93.485 50.389,93.520 50.336,93.667 50.333 C 93.889 50.329,93.889 50.310,93.667 50.167 C 93.525 50.075,93.501 50.004,93.610 50.003 C 93.805 50.000,93.273 48.202,92.635 46.710 C 92.469 46.322,92.333 45.890,92.333 45.752 C 92.333 45.613,92.258 45.500,92.167 45.500 C 92.075 45.500,92.000 45.275,92.000 45.000 C 92.000 44.725,91.925 44.500,91.833 44.500 C 91.742 44.500,91.667 44.313,91.667 44.083 C 91.667 43.854,91.600 43.667,91.519 43.667 C 91.438 43.667,91.320 43.255,91.258 42.753 C 91.195 42.250,91.074 41.795,90.988 41.743 C 90.903 41.690,90.833 41.468,90.833 41.250 C 90.833 41.032,90.758 40.807,90.667 40.750 C 90.575 40.693,90.500 40.433,90.500 40.171 C 90.500 39.909,90.426 39.669,90.335 39.639 C 90.244 39.608,90.153 39.377,90.132 39.125 C 90.111 38.873,90.035 38.667,89.964 38.667 C 89.892 38.667,89.833 38.484,89.833 38.260 C 89.833 38.036,89.758 37.807,89.667 37.750 C 89.575 37.693,89.500 37.468,89.500 37.250 C 89.500 37.032,89.425 36.807,89.333 36.750 C 89.242 36.693,89.167 36.464,89.167 36.240 C 89.167 36.016,89.092 35.833,89.000 35.833 C 88.908 35.833,88.833 35.608,88.833 35.333 C 88.833 35.058,88.761 34.833,88.672 34.833 C 88.583 34.833,88.554 34.721,88.606 34.583 C 88.659 34.446,88.615 34.333,88.508 34.333 C 88.401 34.333,88.357 34.264,88.410 34.178 C 88.462 34.093,88.428 33.975,88.333 33.917 C 88.239 33.858,88.203 33.743,88.254 33.660 C 88.305 33.577,88.229 33.283,88.086 33.005 C 87.942 32.727,87.879 32.500,87.946 32.500 C 88.012 32.500,87.977 32.410,87.867 32.300 C 87.757 32.190,87.667 31.932,87.667 31.727 C 87.667 31.521,87.592 31.307,87.500 31.250 C 87.408 31.193,87.333 30.959,87.333 30.730 C 87.333 30.495,87.261 30.358,87.167 30.417 C 87.065 30.480,87.000 30.221,87.000 29.750 C 87.000 29.279,86.935 29.020,86.833 29.083 C 86.742 29.140,86.667 29.058,86.667 28.901 C 86.667 28.386,85.424 26.924,84.855 26.770 C 83.674 26.449,82.821 26.360,82.485 26.522 C 82.339 26.593,81.908 26.668,81.526 26.691 C 81.145 26.713,80.833 26.792,80.833 26.866 C 80.833 26.940,80.683 27.000,80.500 27.000 C 80.317 27.000,80.167 27.075,80.167 27.167 C 80.167 27.258,80.033 27.333,79.870 27.333 C 79.707 27.333,79.465 27.483,79.333 27.667 C 79.081 28.017,78.500 28.126,78.500 27.823 C 78.500 27.726,78.424 27.694,78.332 27.751 C 78.240 27.808,78.119 27.737,78.064 27.594 C 78.009 27.451,77.859 27.333,77.730 27.333 C 77.601 27.333,77.365 27.267,77.206 27.186 C 76.346 26.749,76.001 26.631,75.803 26.706 C 75.682 26.752,75.396 26.712,75.167 26.618 C 74.538 26.360,73.883 26.355,73.400 26.606 M131.660 26.868 C 131.163 27.052,130.256 28.071,130.194 28.516 C 130.163 28.736,130.069 28.988,129.986 29.075 C 129.779 29.290,129.791 32.121,130.000 32.250 C 130.092 32.307,130.167 32.649,130.167 33.010 C 130.167 33.371,130.242 33.667,130.333 33.667 C 130.425 33.667,130.500 33.747,130.500 33.845 C 130.500 34.111,130.939 34.500,131.238 34.500 C 131.382 34.500,131.500 34.575,131.500 34.667 C 131.500 34.758,131.725 34.833,132.000 34.833 C 132.275 34.833,132.500 34.908,132.500 35.000 C 132.500 35.108,134.472 35.167,138.083 35.167 C 143.682 35.167,144.331 35.237,143.500 35.750 C 143.408 35.807,143.333 35.999,143.333 36.177 C 143.333 36.354,143.250 36.500,143.149 36.500 C 143.047 36.500,143.007 36.610,143.058 36.745 C 143.110 36.880,143.043 37.100,142.910 37.233 C 142.776 37.367,142.667 37.669,142.667 37.905 C 142.667 38.140,142.592 38.333,142.500 38.333 C 142.408 38.333,142.333 38.446,142.333 38.583 C 142.333 38.721,142.246 38.833,142.139 38.833 C 142.032 38.833,141.995 38.884,142.056 38.945 C 142.118 39.006,142.053 39.231,141.913 39.445 C 141.773 39.659,141.710 39.833,141.772 39.833 C 141.834 39.833,141.754 39.979,141.593 40.156 C 141.432 40.334,141.350 40.559,141.410 40.656 C 141.470 40.754,141.440 40.833,141.343 40.833 C 141.246 40.833,141.167 40.983,141.167 41.167 C 141.167 41.350,141.088 41.500,140.993 41.500 C 140.897 41.500,140.839 41.594,140.863 41.708 C 140.921 41.986,140.458 43.000,140.272 43.000 C 140.192 43.000,140.226 43.131,140.349 43.292 C 140.472 43.452,140.505 43.526,140.422 43.455 C 140.273 43.329,139.500 45.006,139.500 45.455 C 139.500 45.582,139.425 45.640,139.333 45.583 C 139.240 45.526,139.167 45.654,139.167 45.875 C 139.167 46.092,139.057 46.415,138.922 46.593 C 138.787 46.771,138.675 47.048,138.672 47.208 C 138.669 47.369,138.592 47.500,138.500 47.500 C 138.408 47.500,138.333 47.688,138.333 47.917 C 138.333 48.146,138.258 48.333,138.167 48.333 C 138.075 48.333,138.000 48.483,138.000 48.667 C 138.000 48.850,137.925 49.000,137.833 49.000 C 137.742 49.000,137.667 49.094,137.667 49.208 C 137.667 49.323,137.522 49.717,137.344 50.083 C 136.857 51.087,136.550 51.840,136.306 52.625 C 136.185 53.015,136.029 53.333,135.959 53.333 C 135.890 53.333,135.833 53.521,135.833 53.750 C 135.833 53.979,135.758 54.167,135.667 54.167 C 135.575 54.167,135.500 54.317,135.500 54.500 C 135.500 54.683,135.425 54.833,135.333 54.833 C 135.242 54.833,135.167 54.983,135.167 55.167 C 135.167 55.350,135.092 55.500,135.000 55.500 C 134.908 55.500,134.833 55.598,134.833 55.719 C 134.833 55.927,134.349 57.069,133.982 57.726 C 133.860 57.944,133.861 58.002,133.988 57.924 C 134.086 57.863,134.167 57.895,134.167 57.995 C 134.167 58.095,134.054 58.220,133.917 58.273 C 133.779 58.326,133.667 58.507,133.667 58.675 C 133.667 58.843,133.592 59.027,133.500 59.083 C 133.408 59.140,133.333 59.407,133.333 59.677 C 133.333 59.946,133.258 60.167,133.167 60.167 C 133.075 60.167,133.000 60.317,133.000 60.500 C 133.000 60.683,132.925 60.833,132.833 60.833 C 132.742 60.833,132.667 60.983,132.667 61.167 C 132.667 61.350,132.587 61.500,132.490 61.500 C 132.393 61.500,132.355 61.567,132.405 61.648 C 132.455 61.729,132.385 61.888,132.248 62.002 C 132.112 62.115,132.000 62.386,132.000 62.604 C 132.000 62.822,131.921 63.000,131.823 63.000 C 131.726 63.000,131.693 63.075,131.750 63.167 C 131.807 63.258,131.788 63.333,131.708 63.333 C 131.510 63.333,130.989 65.010,131.117 65.235 C 131.174 65.335,131.162 65.364,131.090 65.300 C 130.870 65.101,130.515 65.603,130.612 65.976 C 130.673 66.209,130.613 66.364,130.436 66.432 C 130.288 66.489,130.167 66.715,130.167 66.934 C 130.167 67.154,130.092 67.333,130.000 67.333 C 129.908 67.333,129.833 67.431,129.833 67.550 C 129.833 67.857,129.441 68.664,129.292 68.665 C 129.223 68.666,129.167 68.812,129.167 68.990 C 129.167 69.168,129.096 69.357,129.010 69.411 C 128.923 69.464,128.802 69.843,128.741 70.252 C 128.680 70.662,128.578 70.965,128.516 70.927 C 128.454 70.888,128.390 71.019,128.375 71.217 C 128.360 71.416,128.270 71.605,128.174 71.636 C 128.078 71.668,128.000 71.955,128.000 72.274 C 128.000 72.592,127.939 72.815,127.865 72.769 C 127.790 72.723,127.723 73.000,127.716 73.385 C 127.709 73.769,127.762 74.121,127.835 74.167 C 127.908 74.212,128.007 74.504,128.056 74.814 C 128.111 75.166,128.363 75.584,128.725 75.925 C 129.044 76.226,129.255 76.523,129.194 76.584 C 129.133 76.645,129.158 76.670,129.250 76.641 C 129.484 76.566,130.500 77.010,130.500 77.187 C 130.500 77.267,130.672 77.333,130.883 77.333 C 131.094 77.333,131.348 77.414,131.447 77.513 C 132.027 78.094,136.009 77.531,135.768 76.903 C 135.714 76.764,135.780 76.667,135.927 76.667 C 136.065 76.667,136.220 76.555,136.273 76.418 C 136.325 76.281,136.435 76.210,136.517 76.261 C 136.600 76.312,136.668 76.217,136.670 76.052 C 136.672 75.886,136.821 75.563,137.000 75.333 C 137.179 75.104,137.328 74.748,137.330 74.542 C 137.332 74.335,137.408 74.167,137.500 74.167 C 137.592 74.167,137.667 74.017,137.667 73.833 C 137.667 73.650,137.742 73.500,137.833 73.500 C 137.925 73.500,138.000 73.350,138.000 73.167 C 138.000 72.983,138.083 72.833,138.184 72.833 C 138.286 72.833,138.328 72.726,138.277 72.594 C 138.227 72.463,138.260 72.330,138.352 72.299 C 138.443 72.269,138.540 72.133,138.566 71.997 C 138.769 70.956,139.216 69.938,139.391 70.114 C 139.451 70.173,139.500 70.027,139.500 69.788 C 139.500 69.549,139.575 69.307,139.667 69.250 C 139.758 69.193,139.833 69.001,139.833 68.823 C 139.833 68.646,139.908 68.500,140.000 68.500 C 140.092 68.500,140.167 68.313,140.167 68.083 C 140.167 67.854,140.242 67.667,140.333 67.667 C 140.425 67.667,140.500 67.517,140.500 67.333 C 140.500 67.150,140.575 67.000,140.667 67.000 C 140.758 67.000,140.833 66.862,140.833 66.694 C 140.833 66.526,140.890 66.333,140.958 66.264 C 141.027 66.195,141.092 66.089,141.102 66.028 C 141.207 65.391,141.403 64.833,141.521 64.833 C 141.601 64.833,141.667 64.641,141.667 64.407 C 141.667 64.165,141.739 64.025,141.833 64.083 C 141.925 64.140,142.000 64.032,142.000 63.843 C 142.000 63.654,142.057 63.500,142.126 63.500 C 142.277 63.500,142.548 62.854,142.825 61.833 C 142.937 61.421,143.168 60.842,143.339 60.546 C 143.510 60.251,143.699 59.745,143.760 59.421 C 143.821 59.098,143.937 58.833,144.019 58.833 C 144.100 58.833,144.167 58.721,144.167 58.583 C 144.167 58.446,144.239 58.333,144.328 58.333 C 144.417 58.333,144.447 58.221,144.394 58.085 C 144.342 57.948,144.400 57.797,144.524 57.749 C 144.648 57.702,144.761 57.479,144.774 57.254 C 144.787 57.029,144.912 56.731,145.052 56.591 C 145.192 56.451,145.389 56.086,145.490 55.780 C 145.591 55.473,145.822 54.932,146.004 54.576 C 146.185 54.220,146.333 53.760,146.333 53.553 C 146.333 53.346,146.483 52.910,146.667 52.583 C 146.850 52.257,147.000 51.875,147.000 51.735 C 147.000 51.595,147.075 51.527,147.167 51.583 C 147.258 51.640,147.333 51.532,147.333 51.343 C 147.333 51.154,147.390 50.999,147.458 50.999 C 147.604 50.997,148.000 50.193,148.000 49.899 C 148.000 49.788,148.179 49.334,148.397 48.890 C 148.615 48.447,148.911 47.822,149.054 47.503 C 149.282 46.994,149.328 46.963,149.426 47.253 C 149.689 48.026,149.923 48.500,150.041 48.500 C 150.110 48.500,150.167 48.725,150.167 49.000 C 150.167 49.275,150.242 49.500,150.333 49.500 C 150.425 49.500,150.500 49.650,150.500 49.833 C 150.500 50.017,150.575 50.167,150.667 50.167 C 150.758 50.167,150.833 50.317,150.833 50.500 C 150.833 50.683,150.908 50.833,151.000 50.833 C 151.092 50.833,151.167 50.954,151.167 51.101 C 151.167 51.248,151.354 51.742,151.583 52.198 C 151.813 52.654,152.000 53.134,152.000 53.264 C 152.000 53.394,152.075 53.500,152.167 53.500 C 152.258 53.500,152.333 53.673,152.333 53.883 C 152.333 54.094,152.395 54.338,152.471 54.425 C 152.547 54.512,152.709 54.902,152.831 55.292 C 152.953 55.681,153.116 56.000,153.193 56.000 C 153.270 56.000,153.333 56.150,153.333 56.333 C 153.333 56.517,153.400 56.667,153.481 56.667 C 153.563 56.667,153.679 56.929,153.739 57.250 C 153.799 57.571,153.910 57.833,153.986 57.833 C 154.061 57.833,154.218 58.173,154.335 58.588 C 154.451 59.002,154.610 59.382,154.690 59.431 C 154.769 59.480,154.833 59.665,154.833 59.843 C 154.833 60.021,154.908 60.167,155.000 60.167 C 155.092 60.167,155.167 60.264,155.167 60.383 C 155.167 60.690,155.559 61.497,155.708 61.499 C 155.777 61.499,155.833 61.673,155.833 61.883 C 155.833 62.333,156.190 63.163,156.385 63.165 C 156.459 63.166,156.485 63.223,156.442 63.293 C 156.399 63.362,156.507 63.713,156.682 64.072 C 156.857 64.432,157.000 64.818,157.000 64.931 C 157.000 65.186,157.706 66.564,157.875 66.639 C 157.944 66.669,158.000 66.838,158.000 67.014 C 158.000 67.190,158.075 67.333,158.167 67.333 C 158.258 67.333,158.333 67.525,158.333 67.760 C 158.333 67.994,158.393 68.150,158.465 68.105 C 158.582 68.032,158.646 68.261,158.705 68.958 C 158.714 69.073,158.785 69.167,158.861 69.167 C 158.938 69.167,159.000 69.304,159.000 69.472 C 159.000 69.640,159.056 69.834,159.125 69.903 C 159.194 69.972,159.256 70.078,159.264 70.139 C 159.296 70.385,160.170 72.376,160.684 73.373 C 160.766 73.532,160.833 73.776,160.833 73.914 C 160.833 74.053,160.908 74.167,161.000 74.167 C 161.092 74.167,161.167 74.291,161.167 74.444 C 161.167 74.740,161.917 76.105,162.281 76.470 C 162.401 76.591,162.500 76.760,162.500 76.845 C 162.500 76.930,162.612 77.000,162.750 77.000 C 162.887 77.000,163.000 77.075,163.000 77.167 C 163.000 77.258,163.150 77.333,163.333 77.333 C 163.517 77.333,163.667 77.408,163.667 77.500 C 163.667 77.601,164.389 77.667,165.500 77.667 C 166.611 77.667,167.333 77.601,167.333 77.500 C 167.333 77.408,167.517 77.333,167.741 77.333 C 167.972 77.333,168.259 77.174,168.407 76.963 C 168.559 76.746,168.667 76.688,168.667 76.822 C 168.667 76.970,168.777 76.924,168.978 76.692 C 169.149 76.495,169.353 76.333,169.431 76.333 C 169.635 76.333,170.499 75.289,170.500 75.042 C 170.500 74.927,170.559 74.833,170.632 74.833 C 170.832 74.833,170.868 72.826,170.672 72.590 C 170.578 72.476,170.484 72.184,170.464 71.941 C 170.444 71.699,170.369 71.500,170.297 71.500 C 170.225 71.500,170.167 71.350,170.167 71.167 C 170.167 70.983,170.092 70.833,170.000 70.833 C 169.908 70.833,169.833 70.608,169.833 70.333 C 169.833 70.058,169.772 69.833,169.698 69.833 C 169.623 69.833,169.459 69.571,169.333 69.250 C 169.207 68.929,169.043 68.667,168.969 68.667 C 168.894 68.667,168.833 68.498,168.832 68.292 C 168.832 68.085,168.719 67.702,168.582 67.439 C 168.445 67.177,168.333 66.825,168.333 66.657 C 168.333 66.490,168.258 66.307,168.167 66.250 C 168.075 66.193,168.000 66.001,168.000 65.823 C 168.000 65.646,167.939 65.500,167.864 65.500 C 167.712 65.500,167.227 64.341,167.292 64.133 C 167.315 64.060,167.258 64.000,167.167 64.000 C 167.075 64.000,167.000 63.850,167.000 63.667 C 167.000 63.483,166.925 63.333,166.833 63.333 C 166.742 63.333,166.667 63.183,166.667 63.000 C 166.667 62.817,166.600 62.667,166.519 62.667 C 166.378 62.667,166.210 62.272,166.062 61.592 C 166.024 61.414,165.881 61.145,165.746 60.996 C 165.611 60.846,165.500 60.565,165.500 60.372 C 165.500 60.178,165.425 59.973,165.333 59.917 C 165.242 59.860,165.167 59.664,165.167 59.480 C 165.167 59.262,165.095 59.188,164.958 59.265 C 164.801 59.353,164.796 59.332,164.939 59.177 C 165.149 58.949,164.857 58.199,164.413 57.830 C 164.278 57.718,164.167 57.406,164.167 57.136 C 164.167 56.853,164.097 56.690,164.000 56.750 C 163.908 56.807,163.833 56.717,163.832 56.552 C 163.832 56.386,163.719 56.035,163.582 55.773 C 163.445 55.510,163.333 55.190,163.333 55.062 C 163.333 54.846,163.026 54.192,162.833 54.000 C 162.588 53.754,162.333 53.120,162.333 52.752 C 162.333 52.522,162.258 52.333,162.167 52.333 C 162.075 52.333,162.000 52.146,162.000 51.917 C 162.000 51.688,161.925 51.500,161.833 51.500 C 161.742 51.500,161.667 51.350,161.667 51.167 C 161.667 50.983,161.592 50.833,161.500 50.833 C 161.408 50.833,161.333 50.683,161.333 50.500 C 161.333 50.317,161.254 50.167,161.157 50.167 C 161.060 50.167,161.027 50.091,161.084 49.999 C 161.141 49.907,161.033 49.614,160.844 49.348 C 160.655 49.083,160.500 48.679,160.500 48.450 C 160.500 48.222,160.389 47.993,160.253 47.941 C 160.112 47.887,160.048 47.735,160.104 47.590 C 160.158 47.449,160.119 47.333,160.018 47.333 C 159.916 47.333,159.833 47.146,159.833 46.917 C 159.833 46.688,159.758 46.500,159.667 46.500 C 159.575 46.500,159.500 46.346,159.500 46.157 C 159.500 45.968,159.425 45.860,159.333 45.917 C 159.239 45.975,159.167 45.835,159.167 45.593 C 159.167 45.359,159.092 45.167,159.000 45.167 C 158.908 45.167,158.833 44.996,158.833 44.787 C 158.833 44.578,158.730 44.260,158.605 44.079 C 158.479 43.898,158.323 43.506,158.258 43.208 C 158.193 42.910,158.078 42.667,158.002 42.667 C 157.927 42.667,157.904 42.517,157.952 42.333 C 158.000 42.147,157.957 42.000,157.853 42.000 C 157.750 42.000,157.667 41.887,157.667 41.750 C 157.667 41.612,157.592 41.500,157.500 41.500 C 157.408 41.500,157.333 41.281,157.333 41.014 C 157.333 40.747,157.273 40.503,157.199 40.472 C 157.033 40.404,155.863 38.011,155.779 37.569 C 155.628 36.771,155.452 36.343,155.311 36.430 C 155.227 36.482,155.169 36.463,155.182 36.387 C 155.254 35.976,155.144 35.494,155.000 35.583 C 154.908 35.640,154.833 35.551,154.833 35.385 C 154.834 35.100,155.143 35.083,160.466 35.083 C 165.550 35.083,166.142 35.055,166.543 34.792 C 166.788 34.631,167.109 34.500,167.256 34.500 C 167.549 34.500,168.000 34.116,168.000 33.868 C 168.000 33.782,168.169 33.497,168.375 33.235 C 168.820 32.669,168.952 28.886,168.542 28.475 C 168.427 28.360,168.333 28.132,168.333 27.967 C 168.333 27.798,168.212 27.667,168.056 27.667 C 167.903 27.667,167.824 27.620,167.881 27.563 C 167.938 27.507,167.872 27.348,167.734 27.210 C 167.597 27.073,167.438 27.006,167.382 27.062 C 167.326 27.118,167.189 27.087,167.076 26.994 C 166.840 26.798,132.183 26.675,131.660 26.868 M118.000 45.667 C 118.000 45.758,117.775 45.833,117.500 45.833 C 117.225 45.833,117.000 45.908,117.000 46.000 C 117.000 46.092,116.917 46.167,116.816 46.167 C 116.581 46.167,115.345 47.130,114.946 47.625 C 114.778 47.832,114.534 48.109,114.404 48.239 C 114.273 48.369,114.166 48.575,114.166 48.696 C 114.165 48.818,114.062 49.114,113.936 49.355 C 113.644 49.914,113.561 53.415,113.836 53.585 C 113.939 53.648,113.982 53.805,113.933 53.934 C 113.882 54.068,113.947 54.167,114.089 54.167 C 114.223 54.167,114.324 54.223,114.314 54.292 C 114.261 54.623,114.367 54.852,114.750 55.235 C 114.979 55.464,115.167 55.724,115.167 55.812 C 115.167 55.900,115.392 56.072,115.667 56.193 C 115.942 56.315,116.167 56.471,116.167 56.541 C 116.167 56.610,116.284 56.667,116.427 56.667 C 116.569 56.667,116.640 56.742,116.583 56.833 C 116.525 56.927,116.660 57.000,116.893 57.000 C 117.120 57.000,117.331 57.076,117.362 57.169 C 117.393 57.262,117.810 57.346,118.289 57.357 C 118.768 57.368,119.124 57.434,119.080 57.505 C 119.037 57.576,119.263 57.633,119.584 57.633 C 119.905 57.633,120.209 57.566,120.260 57.483 C 120.311 57.401,120.682 57.333,121.083 57.333 C 121.485 57.333,121.860 57.258,121.917 57.167 C 121.973 57.075,122.135 57.000,122.275 57.000 C 122.645 57.000,123.826 56.125,123.830 55.847 C 123.832 55.717,123.879 55.657,123.934 55.712 C 124.081 55.859,124.833 55.061,124.833 54.758 C 124.833 54.616,124.908 54.500,125.000 54.500 C 125.092 54.500,125.167 54.313,125.167 54.083 C 125.167 53.854,125.242 53.667,125.333 53.667 C 125.425 53.667,125.500 53.362,125.500 52.990 C 125.500 52.618,125.561 52.351,125.636 52.398 C 125.710 52.444,125.777 52.035,125.784 51.489 C 125.791 50.944,125.730 50.456,125.649 50.406 C 125.567 50.355,125.500 50.108,125.500 49.856 C 125.500 49.604,125.315 49.147,125.089 48.841 C 124.863 48.534,124.709 48.233,124.747 48.172 C 124.784 48.111,124.669 47.955,124.491 47.827 C 124.313 47.698,124.167 47.455,124.167 47.285 C 124.167 47.047,124.086 47.003,123.812 47.090 C 123.588 47.161,123.497 47.140,123.564 47.031 C 123.684 46.837,122.907 46.167,122.561 46.167 C 122.436 46.167,122.333 46.092,122.333 46.000 C 122.333 45.908,122.113 45.833,121.843 45.833 C 121.574 45.833,121.307 45.758,121.250 45.667 C 121.193 45.575,120.443 45.500,119.573 45.500 C 118.636 45.500,118.000 45.567,118.000 45.667 M188.912 45.658 C 188.978 45.766,188.823 45.833,188.510 45.833 C 188.229 45.833,188.000 45.907,188.000 45.997 C 188.000 46.087,187.794 46.211,187.542 46.273 C 187.290 46.336,186.962 46.525,186.814 46.693 C 186.666 46.862,186.447 47.000,186.328 47.000 C 186.209 47.000,186.153 47.042,186.205 47.094 C 186.256 47.145,186.121 47.378,185.905 47.611 C 185.689 47.845,185.416 48.252,185.299 48.518 C 185.181 48.783,185.029 49.000,184.959 49.000 C 184.890 49.000,184.833 49.183,184.833 49.407 C 184.833 49.631,184.755 49.862,184.660 49.921 C 184.449 50.051,184.473 53.297,184.686 53.429 C 184.767 53.479,184.833 53.627,184.833 53.759 C 184.833 53.890,184.991 54.179,185.184 54.401 C 185.377 54.622,185.543 54.867,185.555 54.943 C 185.604 55.277,187.171 56.667,187.498 56.667 C 187.693 56.667,187.807 56.742,187.750 56.833 C 187.693 56.925,187.801 57.000,187.990 57.000 C 188.179 57.000,188.333 57.075,188.333 57.167 C 188.333 57.258,188.708 57.333,189.167 57.333 C 189.625 57.333,190.000 57.401,190.000 57.484 C 190.000 57.567,190.300 57.623,190.667 57.609 C 191.033 57.595,191.333 57.527,191.333 57.458 C 191.333 57.390,191.708 57.333,192.167 57.333 C 192.625 57.333,193.000 57.258,193.000 57.167 C 193.000 57.075,193.154 57.000,193.343 57.000 C 193.532 57.000,193.650 56.941,193.605 56.869 C 193.561 56.796,193.725 56.648,193.970 56.538 C 194.555 56.278,195.833 55.065,195.833 54.771 C 195.833 54.644,195.946 54.447,196.083 54.333 C 196.221 54.219,196.333 53.952,196.333 53.739 C 196.333 53.527,196.411 53.305,196.505 53.247 C 196.694 53.130,196.705 49.833,196.516 49.833 C 196.454 49.833,196.314 49.504,196.206 49.100 C 196.099 48.697,195.910 48.266,195.788 48.142 C 195.665 48.018,195.514 47.784,195.453 47.621 C 195.391 47.459,195.208 47.277,195.045 47.218 C 194.883 47.158,194.543 46.897,194.290 46.638 C 194.037 46.379,193.719 46.167,193.582 46.167 C 193.445 46.167,193.333 46.092,193.333 46.000 C 193.333 45.908,193.066 45.833,192.740 45.833 C 192.414 45.833,192.188 45.767,192.238 45.687 C 192.288 45.606,191.535 45.527,190.566 45.512 C 189.371 45.493,188.838 45.540,188.912 45.658 " stroke="none" fill="#fcc4c4" fill-rule="evenodd"></path><path id="path2" d="" stroke="none" fill="#fcf0100" fill-rule="evenodd"></path><path id="path3" d="" stroke="none" fill="#fcd0e4" fill-rule="evenodd"></path><path id="path4" d="M141.138 26.792 C 145.751 26.816,153.251 26.816,157.804 26.792 C 162.358 26.767,158.583 26.747,149.417 26.747 C 140.250 26.747,136.524 26.767,141.138 26.792 " stroke="none" fill="#fcd4c4" fill-rule="evenodd"></path></g></svg>