<svg id="svg" version="1.1" xmlns="http://www.w3.org/2000/svg" xmlns:xlink="http://www.w3.org/1999/xlink" width="400" height="112.5" viewBox="0, 0, 400,112.5"><g id="svgg"><path id="path0" d="M328.333 22.167 C 328.333 22.258,328.115 22.333,327.849 22.333 C 326.841 22.333,325.762 23.072,325.208 24.141 L 324.833 24.865 324.833 53.766 C 324.833 72.922,324.890 82.667,325.000 82.667 C 325.092 82.667,325.167 82.817,325.167 83.000 C 325.167 83.183,325.242 83.333,325.333 83.333 C 325.425 83.333,325.500 83.412,325.500 83.508 C 325.500 83.811,326.304 84.500,326.659 84.500 C 326.847 84.500,327.000 84.575,327.000 84.667 C 327.000 84.758,327.225 84.833,327.500 84.833 C 327.775 84.833,328.000 84.908,328.000 85.000 C 328.000 85.100,328.667 85.167,329.667 85.167 C 330.667 85.167,331.333 85.100,331.333 85.000 C 331.333 84.908,331.558 84.833,331.833 84.833 C 332.108 84.833,332.333 84.758,332.333 84.667 C 332.333 84.575,332.447 84.500,332.585 84.500 C 332.883 84.500,333.833 83.630,333.833 83.357 C 333.833 83.252,333.908 83.167,334.000 83.167 C 334.092 83.167,334.167 82.904,334.167 82.583 C 334.167 82.262,334.242 82.000,334.333 82.000 C 334.444 82.000,334.500 72.417,334.500 53.583 C 334.500 34.750,334.444 25.167,334.333 25.167 C 334.242 25.167,334.167 24.942,334.167 24.667 C 334.167 24.392,334.092 24.167,334.000 24.167 C 333.908 24.167,333.833 24.067,333.833 23.946 C 333.833 23.678,333.139 23.000,332.864 23.000 C 332.756 23.000,332.666 22.944,332.665 22.875 C 332.663 22.691,331.824 22.333,331.393 22.333 C 331.188 22.333,330.973 22.258,330.917 22.167 C 330.860 22.075,330.256 22.000,329.573 22.000 C 328.858 22.000,328.333 22.070,328.333 22.167 M251.500 22.500 C 251.500 22.592,251.350 22.667,251.167 22.667 C 250.983 22.667,250.833 22.742,250.833 22.833 C 250.833 22.925,250.717 23.000,250.576 23.000 C 250.295 23.000,249.705 23.556,249.375 24.132 C 249.213 24.415,249.167 27.716,249.167 39.073 C 249.167 53.483,249.201 54.500,249.693 54.500 C 249.770 54.500,249.833 54.650,249.833 54.833 C 249.833 55.042,249.944 55.167,250.130 55.167 C 250.293 55.167,250.535 55.317,250.667 55.500 C 250.799 55.683,251.073 55.833,251.277 55.833 C 251.480 55.833,251.693 55.908,251.750 56.000 C 251.810 56.097,252.721 56.167,253.917 56.167 C 255.113 56.167,256.024 56.097,256.083 56.000 C 256.140 55.908,256.334 55.833,256.514 55.833 C 256.940 55.833,258.333 54.440,258.333 54.014 C 258.333 53.834,258.408 53.640,258.500 53.583 C 258.609 53.516,258.667 48.557,258.667 39.250 C 258.667 29.943,258.609 24.984,258.500 24.917 C 258.408 24.860,258.333 24.666,258.333 24.486 C 258.333 24.060,256.940 22.667,256.514 22.667 C 256.334 22.667,256.140 22.592,256.083 22.500 C 256.023 22.402,255.054 22.333,253.740 22.333 C 252.358 22.333,251.500 22.397,251.500 22.500 M294.500 23.167 C 294.500 23.258,294.162 23.333,293.750 23.333 C 293.337 23.333,293.000 23.400,293.000 23.481 C 293.000 23.562,292.587 23.680,292.083 23.743 C 291.579 23.806,291.167 23.927,291.167 24.012 C 291.167 24.097,291.024 24.167,290.849 24.167 C 290.475 24.167,289.223 24.791,288.760 25.208 C 288.583 25.369,288.339 25.500,288.219 25.500 C 288.098 25.500,288.000 25.575,288.000 25.667 C 288.000 25.758,287.892 25.833,287.760 25.833 C 287.465 25.833,284.574 28.685,284.000 29.542 C 283.771 29.884,283.527 30.165,283.458 30.166 C 283.390 30.166,283.333 30.300,283.333 30.463 C 283.333 30.626,283.183 30.868,283.000 31.000 C 282.817 31.132,282.667 31.336,282.667 31.453 C 282.667 31.571,282.599 31.667,282.517 31.667 C 282.316 31.667,281.167 34.075,281.167 34.498 C 281.167 34.682,281.092 34.833,281.000 34.833 C 280.908 34.833,280.833 34.983,280.833 35.167 C 280.833 35.350,280.758 35.500,280.667 35.500 C 280.575 35.500,280.500 35.688,280.500 35.917 C 280.500 36.146,280.425 36.333,280.333 36.333 C 280.242 36.333,280.167 36.483,280.167 36.667 C 280.167 36.850,280.092 37.000,280.000 37.000 C 279.908 37.000,279.833 37.225,279.833 37.500 C 279.833 37.775,279.758 38.000,279.667 38.000 C 279.575 38.000,279.500 38.183,279.500 38.407 C 279.500 38.631,279.425 38.860,279.333 38.917 C 279.242 38.973,279.167 39.263,279.167 39.560 C 279.167 39.857,279.093 40.173,279.004 40.263 C 278.914 40.352,278.791 41.080,278.729 41.880 C 278.668 42.679,278.554 43.333,278.475 43.333 C 278.397 43.333,278.333 43.896,278.333 44.583 C 278.333 45.306,278.263 45.833,278.167 45.833 C 278.061 45.833,278.000 47.108,278.000 49.323 C 278.000 51.470,278.064 52.853,278.167 52.917 C 278.258 52.973,278.333 53.578,278.333 54.260 C 278.333 54.942,278.397 55.500,278.475 55.500 C 278.553 55.500,278.665 56.114,278.722 56.864 C 278.780 57.614,278.904 58.304,278.997 58.397 C 279.090 58.490,279.167 58.810,279.167 59.107 C 279.167 59.404,279.242 59.693,279.333 59.750 C 279.425 59.807,279.500 60.032,279.500 60.250 C 279.500 60.468,279.575 60.693,279.667 60.750 C 279.758 60.807,279.833 61.036,279.833 61.260 C 279.833 61.484,279.908 61.667,280.000 61.667 C 280.092 61.667,280.167 61.817,280.167 62.000 C 280.167 62.183,280.242 62.333,280.333 62.333 C 280.425 62.333,280.500 62.479,280.500 62.657 C 280.500 62.835,280.575 63.027,280.667 63.083 C 280.758 63.140,280.833 63.332,280.833 63.510 C 280.833 63.688,280.908 63.833,281.000 63.833 C 281.092 63.833,281.167 63.987,281.167 64.174 C 281.167 64.580,282.335 67.000,282.531 67.000 C 282.606 67.000,282.667 67.101,282.667 67.225 C 282.667 67.349,282.892 67.686,283.167 67.974 C 283.442 68.262,283.667 68.561,283.667 68.638 C 283.667 68.941,286.453 72.000,286.728 72.000 C 286.808 72.000,287.070 72.218,287.311 72.484 C 287.553 72.750,288.275 73.245,288.917 73.583 C 289.558 73.921,290.155 74.266,290.242 74.349 C 290.329 74.432,290.573 74.500,290.783 74.500 C 290.994 74.500,291.167 74.575,291.167 74.667 C 291.167 74.758,291.354 74.833,291.583 74.833 C 291.813 74.833,292.000 74.908,292.000 75.000 C 292.000 75.092,292.221 75.167,292.490 75.167 C 292.760 75.167,293.027 75.242,293.083 75.333 C 293.140 75.425,293.557 75.500,294.010 75.500 C 294.463 75.500,294.833 75.575,294.833 75.667 C 294.833 75.769,295.611 75.833,296.833 75.833 C 298.056 75.833,298.833 75.769,298.833 75.667 C 298.833 75.574,299.274 75.500,299.823 75.500 C 300.368 75.500,300.860 75.425,300.917 75.333 C 300.973 75.242,301.240 75.167,301.510 75.167 C 301.779 75.167,302.000 75.092,302.000 75.000 C 302.000 74.908,302.225 74.833,302.500 74.833 C 302.775 74.833,303.000 74.758,303.000 74.667 C 303.000 74.575,303.150 74.500,303.333 74.500 C 303.517 74.500,303.667 74.425,303.667 74.333 C 303.667 74.242,303.779 74.167,303.917 74.167 C 304.054 74.167,304.167 74.092,304.167 74.000 C 304.167 73.908,304.306 73.833,304.477 73.833 C 304.647 73.833,305.063 73.646,305.401 73.417 C 305.739 73.188,306.051 73.000,306.095 73.000 C 306.168 73.000,306.482 72.710,308.201 71.055 C 309.330 69.968,310.833 68.146,310.833 67.864 C 310.833 67.778,310.946 67.614,311.083 67.500 C 311.221 67.386,311.333 67.152,311.333 66.980 C 311.333 66.807,311.408 66.667,311.500 66.667 C 311.592 66.667,311.667 66.568,311.667 66.448 C 311.667 66.328,311.817 66.069,312.000 65.872 C 312.183 65.675,312.333 65.361,312.333 65.174 C 312.333 64.986,312.408 64.833,312.500 64.833 C 312.592 64.833,312.667 64.683,312.667 64.500 C 312.667 64.317,312.742 64.167,312.833 64.167 C 312.925 64.167,313.000 64.053,313.000 63.914 C 313.000 63.776,313.066 63.532,313.146 63.373 C 313.586 62.503,313.833 61.767,313.833 61.328 C 313.833 61.056,313.908 60.833,314.000 60.833 C 314.092 60.833,314.167 60.608,314.167 60.333 C 314.167 60.058,314.242 59.833,314.333 59.833 C 314.425 59.833,314.500 59.571,314.500 59.250 C 314.500 58.929,314.575 58.667,314.667 58.667 C 314.758 58.667,314.833 58.442,314.833 58.167 C 314.833 57.892,314.908 57.667,315.000 57.667 C 315.092 57.667,315.167 57.259,315.167 56.760 C 315.167 56.261,315.242 55.807,315.333 55.750 C 315.425 55.693,315.500 55.131,315.500 54.500 C 315.500 53.869,315.575 53.307,315.667 53.250 C 315.770 53.186,315.833 51.693,315.833 49.323 C 315.833 46.886,315.773 45.500,315.667 45.500 C 315.570 45.500,315.500 44.972,315.500 44.250 C 315.500 43.528,315.430 43.000,315.333 43.000 C 315.242 43.000,315.167 42.587,315.167 42.083 C 315.167 41.579,315.092 41.167,315.000 41.167 C 314.908 41.167,314.833 40.867,314.833 40.500 C 314.833 40.133,314.758 39.833,314.667 39.833 C 314.575 39.833,314.500 39.571,314.500 39.250 C 314.500 38.929,314.425 38.667,314.333 38.667 C 314.242 38.667,314.167 38.442,314.167 38.167 C 314.167 37.892,314.092 37.667,314.000 37.667 C 313.908 37.667,313.833 37.478,313.833 37.247 C 313.833 37.016,313.646 36.365,313.417 35.801 C 313.188 35.237,313.000 34.676,313.000 34.555 C 313.000 34.433,312.925 34.333,312.833 34.333 C 312.742 34.333,312.667 34.183,312.667 34.000 C 312.667 33.817,312.592 33.667,312.500 33.667 C 312.408 33.667,312.333 33.517,312.333 33.333 C 312.333 33.150,312.258 33.000,312.167 33.000 C 312.075 33.000,312.000 32.867,312.000 32.703 C 312.000 32.540,311.850 32.299,311.667 32.167 C 311.483 32.035,311.333 31.828,311.333 31.707 C 311.333 31.462,310.903 30.750,310.460 30.260 C 310.299 30.083,310.167 29.871,310.167 29.790 C 310.167 29.709,310.073 29.544,309.958 29.422 C 309.844 29.301,309.450 28.845,309.083 28.408 C 307.902 27.003,306.602 25.840,306.208 25.836 C 306.094 25.834,306.000 25.758,306.000 25.667 C 306.000 25.575,305.887 25.500,305.750 25.500 C 305.612 25.500,305.500 25.436,305.500 25.358 C 305.500 25.280,304.994 24.972,304.375 24.674 C 303.756 24.376,303.130 24.071,302.983 23.996 C 302.836 23.922,302.366 23.809,301.939 23.745 C 301.512 23.681,301.122 23.562,301.071 23.481 C 301.021 23.400,300.647 23.333,300.240 23.333 C 299.833 23.333,299.500 23.258,299.500 23.167 C 299.500 23.063,298.556 23.000,297.000 23.000 C 295.444 23.000,294.500 23.063,294.500 23.167 M207.250 24.057 C 206.975 24.160,206.620 24.396,206.461 24.581 C 206.303 24.765,206.096 25.007,206.003 25.118 C 205.910 25.229,205.833 25.435,205.833 25.576 C 205.833 25.718,205.758 25.833,205.667 25.833 C 205.564 25.833,205.500 26.667,205.500 28.000 C 205.500 29.333,205.564 30.167,205.667 30.167 C 205.758 30.167,205.833 30.317,205.833 30.500 C 205.833 30.683,205.908 30.833,206.000 30.833 C 206.092 30.833,206.167 30.946,206.167 31.083 C 206.167 31.221,206.245 31.333,206.340 31.333 C 206.436 31.333,206.675 31.483,206.872 31.667 C 207.223 31.994,207.460 32.000,219.188 32.000 L 231.146 32.000 231.264 32.784 C 231.421 33.832,231.193 39.568,230.992 39.639 C 230.905 39.669,230.833 39.951,230.833 40.264 C 230.833 40.577,230.758 40.833,230.667 40.833 C 230.575 40.833,230.500 41.021,230.500 41.250 C 230.500 41.479,230.425 41.667,230.333 41.667 C 230.242 41.667,230.167 41.892,230.167 42.167 C 230.167 42.442,230.104 42.667,230.028 42.667 C 229.952 42.667,229.783 42.873,229.653 43.125 C 229.524 43.377,229.376 43.621,229.325 43.667 C 229.274 43.712,229.095 44.045,228.927 44.406 C 228.759 44.767,228.482 45.213,228.311 45.396 C 228.140 45.579,228.000 45.828,228.000 45.948 C 228.000 46.068,227.926 46.167,227.835 46.167 C 227.589 46.167,226.770 47.071,226.408 47.744 C 226.234 48.068,226.014 48.333,225.920 48.334 C 225.625 48.334,223.667 50.067,223.667 50.328 C 223.667 50.423,223.573 50.500,223.458 50.500 C 223.278 50.500,222.976 50.713,222.049 51.497 C 221.938 51.590,221.770 51.667,221.675 51.667 C 221.580 51.667,221.409 51.817,221.295 52.000 C 221.180 52.183,220.985 52.333,220.860 52.333 C 220.736 52.333,220.424 52.558,220.167 52.833 C 219.910 53.108,219.580 53.333,219.433 53.333 C 219.287 53.333,219.167 53.397,219.167 53.474 C 219.167 53.551,218.904 53.756,218.583 53.928 C 218.262 54.101,218.000 54.300,218.000 54.371 C 218.000 54.442,217.867 54.500,217.703 54.500 C 217.540 54.500,217.299 54.650,217.167 54.833 C 217.035 55.017,216.793 55.167,216.630 55.167 C 216.467 55.167,216.333 55.242,216.333 55.333 C 216.333 55.425,216.237 55.500,216.120 55.500 C 216.003 55.500,215.799 55.650,215.667 55.833 C 215.535 56.017,215.310 56.167,215.169 56.167 C 215.027 56.167,214.635 56.354,214.298 56.583 C 213.960 56.813,213.605 57.000,213.509 57.000 C 213.412 57.000,213.333 57.075,213.333 57.167 C 213.333 57.258,213.183 57.333,213.000 57.333 C 212.817 57.333,212.667 57.408,212.667 57.500 C 212.667 57.592,212.517 57.667,212.333 57.667 C 212.150 57.667,212.000 57.728,212.000 57.802 C 212.000 57.877,211.737 58.041,211.417 58.167 C 211.096 58.293,210.833 58.457,210.833 58.531 C 210.833 58.606,210.702 58.667,210.542 58.667 C 210.381 58.668,209.881 58.855,209.430 59.084 C 208.979 59.313,208.473 59.500,208.305 59.500 C 208.137 59.500,208.000 59.575,208.000 59.667 C 208.000 59.758,207.850 59.833,207.667 59.833 C 207.483 59.833,207.333 59.908,207.333 60.000 C 207.333 60.092,207.146 60.167,206.917 60.167 C 206.688 60.167,206.500 60.242,206.500 60.333 C 206.500 60.425,206.350 60.500,206.167 60.500 C 205.983 60.500,205.833 60.575,205.833 60.667 C 205.833 60.758,205.683 60.833,205.500 60.833 C 205.317 60.833,205.167 60.903,205.167 60.988 C 205.167 61.074,205.005 61.167,204.808 61.197 C 203.821 61.343,203.391 63.301,203.938 65.153 C 204.267 66.264,205.667 68.000,206.236 68.000 C 206.381 68.000,206.500 68.080,206.500 68.178 C 206.500 68.297,207.009 68.330,208.042 68.277 C 209.856 68.183,210.833 68.021,210.833 67.815 C 210.833 67.733,211.021 67.667,211.250 67.667 C 211.479 67.667,211.667 67.592,211.667 67.500 C 211.667 67.408,211.812 67.333,211.990 67.333 C 212.168 67.333,212.360 67.258,212.417 67.167 C 212.473 67.075,212.703 67.000,212.927 67.000 C 213.150 67.000,213.333 66.925,213.333 66.833 C 213.333 66.742,213.521 66.667,213.750 66.667 C 213.979 66.667,214.167 66.592,214.167 66.500 C 214.167 66.408,214.354 66.333,214.582 66.333 C 215.057 66.333,216.333 65.819,216.333 65.627 C 216.333 65.557,216.479 65.500,216.657 65.500 C 216.835 65.500,217.027 65.425,217.083 65.333 C 217.140 65.242,217.369 65.167,217.593 65.167 C 217.817 65.167,218.000 65.106,218.000 65.031 C 218.000 64.957,218.262 64.793,218.583 64.667 C 218.904 64.541,219.167 64.377,219.167 64.302 C 219.167 64.228,219.317 64.167,219.500 64.167 C 219.683 64.167,219.833 64.092,219.833 64.000 C 219.833 63.908,219.945 63.833,220.082 63.833 C 220.430 63.833,221.667 63.282,221.667 63.127 C 221.667 63.057,221.817 63.000,222.000 63.000 C 222.183 63.000,222.333 62.925,222.333 62.833 C 222.333 62.742,222.467 62.667,222.630 62.667 C 222.793 62.667,223.035 62.517,223.167 62.333 C 223.299 62.150,223.503 62.000,223.620 62.000 C 223.737 62.000,223.833 61.925,223.833 61.833 C 223.833 61.742,223.983 61.667,224.167 61.667 C 224.350 61.667,224.500 61.603,224.500 61.525 C 224.500 61.448,224.800 61.249,225.167 61.083 C 225.533 60.918,225.833 60.719,225.833 60.641 C 225.833 60.564,225.929 60.500,226.047 60.500 C 226.164 60.500,226.368 60.350,226.500 60.167 C 226.632 59.983,226.844 59.833,226.970 59.833 C 227.096 59.833,227.398 59.622,227.641 59.365 C 228.423 58.536,228.977 58.510,228.333 59.333 C 228.130 59.593,228.006 60.013,228.004 60.448 C 228.002 60.833,227.925 61.193,227.833 61.250 C 227.725 61.317,227.667 65.335,227.667 72.760 C 227.667 80.253,227.724 84.167,227.833 84.167 C 227.925 84.167,228.000 84.542,228.000 85.000 C 228.000 85.458,228.075 85.833,228.167 85.833 C 228.258 85.833,228.333 85.946,228.333 86.083 C 228.333 86.221,228.408 86.333,228.500 86.333 C 228.592 86.333,228.669 86.465,228.672 86.625 C 228.680 87.017,229.239 87.667,229.568 87.667 C 229.714 87.667,229.833 87.742,229.833 87.833 C 229.833 87.925,229.983 88.000,230.167 88.000 C 230.350 88.000,230.500 88.075,230.500 88.167 C 230.500 88.277,237.528 88.333,251.250 88.333 C 262.662 88.333,272.000 88.277,272.000 88.207 C 272.000 88.138,272.218 87.985,272.485 87.867 C 274.538 86.958,273.899 80.500,271.756 80.500 C 271.523 80.500,271.333 80.425,271.333 80.333 C 271.333 80.223,265.556 80.167,254.333 80.167 L 237.333 80.167 237.333 78.250 L 237.333 76.333 253.683 76.333 C 268.637 76.333,270.072 76.310,270.502 76.056 C 270.969 75.780,271.333 75.204,271.333 74.742 C 271.333 74.609,271.408 74.500,271.500 74.500 C 271.603 74.500,271.667 73.667,271.667 72.333 C 271.667 71.000,271.603 70.167,271.500 70.167 C 271.408 70.167,271.333 70.020,271.333 69.840 C 271.333 69.373,270.507 68.667,269.960 68.667 C 269.707 68.667,269.500 68.592,269.500 68.500 C 269.500 68.390,264.028 68.333,253.417 68.333 L 237.333 68.333 237.333 66.750 L 237.333 65.167 253.669 65.167 C 266.428 65.167,270.086 65.121,270.375 64.958 C 270.857 64.688,271.360 64.123,271.792 63.369 C 272.045 62.926,272.080 59.569,271.833 59.417 C 271.742 59.360,271.667 59.168,271.667 58.990 C 271.667 58.812,271.592 58.667,271.500 58.667 C 271.408 58.667,271.333 58.520,271.333 58.340 C 271.333 57.905,270.700 57.333,270.219 57.333 C 270.007 57.333,269.833 57.258,269.833 57.167 C 269.833 57.057,263.278 57.000,250.500 57.000 C 237.722 57.000,231.167 57.057,231.167 57.167 C 231.167 57.258,230.942 57.333,230.667 57.333 C 230.392 57.333,230.167 57.258,230.167 57.167 C 230.167 57.075,230.238 57.000,230.326 57.000 C 230.523 57.000,232.333 55.310,232.333 55.125 C 232.333 55.052,232.671 54.654,233.083 54.241 C 233.496 53.829,233.833 53.411,233.833 53.312 C 233.833 53.214,234.058 52.924,234.333 52.667 C 234.608 52.410,234.833 52.110,234.833 52.000 C 234.833 51.890,235.058 51.590,235.333 51.333 C 235.608 51.076,235.833 50.784,235.833 50.683 C 235.833 50.582,235.907 50.500,235.997 50.500 C 236.087 50.500,236.211 50.294,236.273 50.042 C 236.336 49.790,236.525 49.462,236.693 49.314 C 236.862 49.166,237.000 48.959,237.000 48.855 C 237.000 48.752,237.075 48.667,237.167 48.667 C 237.258 48.667,237.333 48.533,237.333 48.370 C 237.333 48.207,237.483 47.965,237.667 47.833 C 237.850 47.701,238.000 47.460,238.000 47.297 C 238.000 47.133,238.075 47.000,238.167 47.000 C 238.258 47.000,238.333 46.850,238.333 46.667 C 238.333 46.483,238.405 46.333,238.492 46.333 C 238.580 46.333,238.701 46.071,238.761 45.750 C 238.821 45.429,238.937 45.167,239.019 45.167 C 239.100 45.167,239.167 45.021,239.167 44.843 C 239.167 44.665,239.242 44.473,239.333 44.417 C 239.425 44.360,239.500 44.168,239.500 43.990 C 239.500 43.812,239.575 43.667,239.667 43.667 C 239.758 43.667,239.833 43.442,239.833 43.167 C 239.833 42.892,239.908 42.667,240.000 42.667 C 240.092 42.667,240.167 42.442,240.167 42.167 C 240.167 41.892,240.242 41.667,240.333 41.667 C 240.425 41.667,240.500 41.296,240.500 40.843 C 240.500 40.390,240.575 39.973,240.667 39.917 C 240.773 39.851,240.833 37.609,240.833 33.740 C 240.833 29.802,240.775 27.667,240.667 27.667 C 240.575 27.667,240.500 27.457,240.500 27.200 C 240.500 26.693,240.160 25.837,239.958 25.835 C 239.890 25.834,239.833 25.717,239.833 25.576 C 239.833 25.051,238.987 24.448,237.655 24.023 C 236.818 23.756,207.965 23.788,207.250 24.057 M298.000 31.500 C 298.000 31.592,298.300 31.667,298.667 31.667 C 299.033 31.667,299.333 31.742,299.333 31.833 C 299.333 31.925,299.521 32.000,299.750 32.000 C 299.979 32.000,300.167 32.062,300.167 32.139 C 300.167 32.215,300.362 32.382,300.602 32.510 C 301.123 32.789,302.333 33.972,302.333 34.203 C 302.333 34.293,302.558 34.576,302.833 34.833 C 303.108 35.090,303.333 35.384,303.333 35.486 C 303.333 35.588,303.402 35.801,303.485 35.961 C 303.569 36.120,303.764 36.625,303.919 37.083 C 304.343 38.334,304.568 38.833,304.707 38.833 C 304.777 38.833,304.833 39.058,304.833 39.333 C 304.833 39.608,304.908 39.833,305.000 39.833 C 305.092 39.833,305.167 40.091,305.167 40.407 C 305.167 40.722,305.242 41.027,305.333 41.083 C 305.425 41.140,305.500 41.444,305.500 41.760 C 305.500 42.075,305.575 42.333,305.667 42.333 C 305.758 42.333,305.833 42.746,305.833 43.250 C 305.833 43.754,305.908 44.167,306.000 44.167 C 306.108 44.167,306.167 46.000,306.167 49.333 C 306.167 52.667,306.108 54.500,306.000 54.500 C 305.908 54.500,305.833 54.908,305.833 55.407 C 305.833 55.906,305.758 56.360,305.667 56.417 C 305.575 56.473,305.500 56.778,305.500 57.093 C 305.500 57.409,305.425 57.667,305.333 57.667 C 305.242 57.667,305.167 57.929,305.167 58.250 C 305.167 58.571,305.092 58.833,305.000 58.833 C 304.908 58.833,304.833 59.016,304.833 59.240 C 304.833 59.464,304.758 59.693,304.667 59.750 C 304.575 59.807,304.500 59.999,304.500 60.177 C 304.500 60.354,304.444 60.500,304.375 60.500 C 304.306 60.500,304.105 60.969,303.929 61.542 C 303.752 62.115,303.546 62.655,303.470 62.742 C 303.395 62.829,303.333 63.016,303.333 63.159 C 303.333 63.301,303.108 63.630,302.833 63.890 C 302.558 64.149,302.333 64.433,302.333 64.520 C 302.333 64.607,302.071 64.940,301.750 65.261 C 301.429 65.582,301.167 65.917,301.167 66.006 C 301.167 66.094,301.022 66.167,300.845 66.167 C 300.668 66.167,300.411 66.279,300.274 66.417 C 300.136 66.554,299.873 66.667,299.688 66.667 C 299.504 66.667,299.307 66.742,299.250 66.833 C 299.193 66.925,298.889 67.000,298.573 67.000 C 298.258 67.000,298.000 67.075,298.000 67.167 C 298.000 67.259,297.556 67.333,297.000 67.333 C 296.444 67.333,296.000 67.259,296.000 67.167 C 296.000 67.075,295.774 67.000,295.498 67.000 C 295.221 67.000,294.865 66.933,294.706 66.852 C 294.547 66.770,294.135 66.566,293.792 66.397 C 293.448 66.229,293.167 66.033,293.167 65.962 C 293.167 65.891,293.083 65.833,292.981 65.833 C 292.772 65.833,291.667 64.679,291.667 64.460 C 291.667 64.382,291.479 64.117,291.250 63.869 C 291.021 63.622,290.831 63.344,290.828 63.252 C 290.825 63.159,290.600 62.635,290.328 62.088 C 290.056 61.540,289.833 60.959,289.833 60.796 C 289.833 60.633,289.758 60.500,289.667 60.500 C 289.575 60.500,289.500 60.350,289.500 60.167 C 289.500 59.983,289.425 59.833,289.333 59.833 C 289.242 59.833,289.167 59.646,289.167 59.417 C 289.167 59.188,289.099 59.000,289.016 59.000 C 288.934 59.000,288.812 58.534,288.746 57.965 C 288.680 57.396,288.566 56.815,288.492 56.673 C 287.877 55.489,287.884 42.687,288.501 41.917 C 288.574 41.825,288.688 41.318,288.753 40.789 C 288.819 40.261,288.939 39.788,289.019 39.738 C 289.100 39.688,289.167 39.464,289.167 39.240 C 289.167 39.016,289.223 38.833,289.292 38.832 C 289.461 38.830,289.833 38.006,289.833 37.633 C 289.833 37.468,289.908 37.333,290.000 37.333 C 290.092 37.333,290.167 37.183,290.167 37.000 C 290.167 36.817,290.242 36.667,290.333 36.667 C 290.425 36.667,290.500 36.521,290.500 36.343 C 290.500 36.165,290.575 35.973,290.667 35.917 C 290.758 35.860,290.833 35.668,290.833 35.490 C 290.833 35.312,290.894 35.167,290.968 35.167 C 291.042 35.167,291.235 34.867,291.397 34.500 C 291.558 34.133,291.758 33.833,291.841 33.833 C 291.924 33.833,292.329 33.496,292.741 33.083 C 293.154 32.671,293.568 32.333,293.662 32.333 C 293.756 32.333,293.833 32.258,293.833 32.167 C 293.833 32.075,294.016 32.000,294.240 32.000 C 294.464 32.000,294.693 31.925,294.750 31.833 C 294.807 31.742,295.111 31.667,295.427 31.667 C 295.742 31.667,296.000 31.592,296.000 31.500 C 296.000 31.407,296.444 31.333,297.000 31.333 C 297.556 31.333,298.000 31.407,298.000 31.500 M264.083 32.833 C 264.027 32.925,263.835 33.000,263.657 33.000 C 263.479 33.000,263.333 33.075,263.333 33.167 C 263.333 33.258,263.218 33.333,263.076 33.333 C 262.797 33.333,262.613 33.466,261.741 34.297 C 261.425 34.598,261.167 34.958,261.167 35.096 C 261.167 35.234,261.017 35.508,260.833 35.705 C 260.650 35.902,260.500 36.274,260.500 36.531 C 260.500 36.789,260.425 37.000,260.333 37.000 C 260.234 37.000,260.167 37.639,260.167 38.583 C 260.167 39.528,260.234 40.167,260.333 40.167 C 260.425 40.167,260.500 40.392,260.500 40.667 C 260.500 40.942,260.575 41.167,260.667 41.167 C 260.758 41.167,260.833 41.279,260.833 41.417 C 260.833 41.554,260.897 41.667,260.975 41.667 C 261.052 41.667,261.244 41.950,261.400 42.296 C 261.688 42.935,262.853 43.833,263.392 43.833 C 263.543 43.833,263.667 43.908,263.667 44.000 C 263.667 44.092,263.854 44.167,264.083 44.167 C 264.313 44.167,264.500 44.242,264.500 44.333 C 264.500 44.433,265.163 44.500,266.157 44.500 C 267.082 44.500,267.859 44.426,267.917 44.333 C 267.973 44.242,268.203 44.167,268.427 44.167 C 268.650 44.167,268.833 44.092,268.833 44.000 C 268.833 43.908,268.982 43.833,269.163 43.833 C 269.592 43.833,271.333 42.092,271.333 41.663 C 271.333 41.482,271.408 41.333,271.500 41.333 C 271.592 41.333,271.667 41.221,271.667 41.083 C 271.667 40.946,271.742 40.833,271.833 40.833 C 271.926 40.833,272.000 40.389,272.000 39.833 C 272.000 39.278,272.074 38.833,272.167 38.833 C 272.258 38.833,272.333 38.646,272.333 38.417 C 272.333 38.188,272.258 38.000,272.167 38.000 C 272.075 38.000,272.000 37.625,272.000 37.167 C 272.000 36.708,271.925 36.333,271.833 36.333 C 271.742 36.333,271.667 36.146,271.667 35.917 C 271.667 35.688,271.597 35.500,271.511 35.500 C 271.426 35.500,271.307 35.345,271.247 35.156 C 271.083 34.640,270.172 33.667,269.853 33.667 C 269.699 33.667,269.465 33.517,269.333 33.333 C 269.201 33.150,268.922 33.000,268.713 33.000 C 268.504 33.000,268.333 32.925,268.333 32.833 C 268.333 32.731,267.531 32.667,266.260 32.667 C 265.057 32.667,264.143 32.737,264.083 32.833 M128.872 70.667 C 128.872 70.987,128.906 71.119,128.948 70.958 C 128.990 70.798,128.990 70.535,128.948 70.375 C 128.906 70.215,128.872 70.346,128.872 70.667 " stroke="none" fill="#fcfcfc" fill-rule="evenodd"></path><path id="path1" d="M107.293 22.195 C 107.178 22.268,106.840 22.329,106.542 22.331 C 106.244 22.332,106.000 22.408,106.000 22.500 C 106.000 22.592,105.865 22.667,105.699 22.667 C 105.416 22.667,104.132 23.703,104.161 23.907 C 104.169 23.960,104.059 24.402,103.917 24.890 C 103.511 26.288,103.615 82.173,104.026 82.917 C 104.585 83.930,105.748 84.833,106.495 84.833 C 106.670 84.833,106.860 84.908,106.917 85.000 C 107.051 85.217,109.949 85.217,110.083 85.000 C 110.140 84.908,110.393 84.833,110.645 84.833 C 110.897 84.833,111.265 84.683,111.462 84.500 C 111.658 84.317,111.907 84.167,112.015 84.167 C 112.285 84.167,112.822 83.519,112.939 83.053 C 112.993 82.840,113.103 82.667,113.185 82.667 C 113.271 82.667,113.333 70.586,113.333 53.783 C 113.333 24.713,113.320 24.007,112.792 24.001 C 112.723 24.001,112.667 23.885,112.667 23.745 C 112.667 23.604,112.535 23.439,112.375 23.378 C 112.215 23.317,111.938 23.132,111.760 22.967 C 111.583 22.802,111.339 22.667,111.219 22.667 C 111.098 22.667,111.000 22.592,111.000 22.500 C 111.000 22.408,110.675 22.333,110.278 22.333 C 109.881 22.333,109.501 22.279,109.435 22.212 C 109.268 22.045,107.551 22.031,107.293 22.195 M178.408 22.181 C 178.356 22.265,178.098 22.333,177.833 22.333 C 177.569 22.333,177.307 22.408,177.250 22.500 C 177.193 22.592,176.959 22.667,176.730 22.667 C 176.501 22.667,176.350 22.726,176.395 22.798 C 176.439 22.870,176.256 23.026,175.988 23.145 C 175.693 23.276,175.500 23.488,175.500 23.681 C 175.500 23.856,175.444 24.001,175.375 24.001 C 174.846 24.007,174.833 24.712,174.833 53.835 C 174.833 82.540,174.836 82.773,175.167 83.128 C 175.350 83.325,175.500 83.537,175.500 83.599 C 175.500 83.781,176.398 84.500,176.625 84.500 C 176.740 84.500,176.833 84.575,176.833 84.667 C 176.833 84.758,177.096 84.833,177.417 84.833 C 177.737 84.833,178.000 84.908,178.000 85.000 C 178.000 85.099,178.611 85.167,179.500 85.167 C 180.389 85.167,181.000 85.099,181.000 85.000 C 181.000 84.908,181.300 84.833,181.667 84.833 C 182.033 84.833,182.333 84.758,182.333 84.667 C 182.333 84.575,182.488 84.500,182.677 84.500 C 182.865 84.500,182.973 84.425,182.917 84.333 C 182.860 84.242,182.898 84.167,183.002 84.167 C 183.219 84.167,183.771 83.654,183.707 83.512 C 183.683 83.460,183.777 83.285,183.915 83.123 C 184.137 82.864,184.167 79.442,184.167 53.885 L 184.167 24.940 183.804 24.137 C 183.604 23.695,183.376 23.333,183.297 23.333 C 183.217 23.333,182.992 23.183,182.795 23.000 C 182.598 22.817,182.339 22.667,182.219 22.667 C 182.098 22.667,182.000 22.599,182.000 22.517 C 182.000 22.257,178.559 21.936,178.408 22.181 M74.500 23.765 C 73.470 24.148,72.667 24.796,72.667 25.242 C 72.667 25.384,72.592 25.500,72.500 25.500 C 72.408 25.500,72.333 25.650,72.333 25.833 C 72.333 26.017,72.258 26.167,72.167 26.167 C 72.075 26.167,72.000 26.354,72.000 26.583 C 72.000 26.813,71.925 27.000,71.833 27.000 C 71.742 27.000,71.667 27.146,71.667 27.323 C 71.667 27.501,71.599 27.689,71.516 27.740 C 71.433 27.792,71.313 28.209,71.250 28.667 C 71.187 29.125,71.067 29.500,70.984 29.500 C 70.901 29.500,70.833 29.725,70.833 30.000 C 70.833 30.275,70.758 30.500,70.667 30.500 C 70.575 30.500,70.500 30.651,70.500 30.836 C 70.500 31.020,70.434 31.301,70.353 31.461 C 70.054 32.048,69.696 32.994,69.581 33.500 C 69.515 33.789,69.104 35.153,68.977 35.502 C 68.894 35.733,68.785 36.145,68.736 36.419 C 68.687 36.693,68.576 36.988,68.490 37.075 C 68.404 37.162,68.333 37.406,68.333 37.617 C 68.333 37.827,68.258 38.000,68.167 38.000 C 68.075 38.000,68.000 38.225,68.000 38.500 C 68.000 38.775,67.925 39.000,67.833 39.000 C 67.742 39.000,67.667 39.188,67.667 39.417 C 67.667 39.646,67.592 39.833,67.500 39.833 C 67.408 39.833,67.333 40.058,67.333 40.333 C 67.333 40.608,67.277 40.833,67.208 40.833 C 67.038 40.833,66.458 42.684,66.458 43.228 C 66.458 43.469,66.393 43.667,66.313 43.667 C 66.232 43.667,66.167 43.929,66.167 44.250 C 66.167 44.571,66.092 44.833,66.000 44.833 C 65.908 44.833,65.833 44.979,65.833 45.157 C 65.833 45.335,65.758 45.527,65.667 45.583 C 65.575 45.640,65.500 45.833,65.500 46.012 C 65.500 46.191,65.425 46.487,65.333 46.669 C 65.242 46.851,65.092 47.149,65.000 47.331 C 64.908 47.513,64.833 47.777,64.833 47.917 C 64.833 48.057,64.767 48.301,64.686 48.461 C 64.373 49.076,64.182 49.606,64.072 50.161 C 64.009 50.479,63.899 50.854,63.828 50.995 C 63.757 51.135,63.610 51.587,63.500 52.000 C 63.390 52.413,63.233 52.880,63.150 53.039 C 63.068 53.199,63.000 53.443,63.000 53.583 C 63.000 53.723,62.934 53.968,62.853 54.127 C 62.635 54.556,62.404 55.167,62.179 55.917 C 62.068 56.283,61.912 56.733,61.831 56.917 C 61.545 57.563,61.167 58.849,61.167 59.172 C 61.167 59.353,61.092 59.500,61.000 59.500 C 60.908 59.500,60.833 59.688,60.833 59.917 C 60.833 60.146,60.758 60.333,60.667 60.333 C 60.575 60.333,60.500 60.521,60.500 60.750 C 60.500 60.979,60.416 61.167,60.314 61.167 C 60.212 61.167,60.164 61.306,60.209 61.476 C 60.253 61.647,60.209 61.928,60.109 62.101 C 60.010 62.275,59.926 62.492,59.923 62.583 C 59.914 62.816,58.662 66.686,58.481 67.039 C 58.400 67.199,58.333 67.480,58.333 67.664 C 58.333 67.849,58.258 68.000,58.167 68.000 C 58.075 68.000,58.000 68.183,58.000 68.407 C 58.000 68.631,57.925 68.860,57.833 68.917 C 57.740 68.974,57.667 69.765,57.667 70.718 C 57.667 72.598,57.813 72.921,58.958 73.589 C 59.256 73.763,59.500 73.964,59.500 74.036 C 59.500 74.108,59.646 74.167,59.823 74.167 C 60.001 74.167,60.193 74.242,60.250 74.333 C 60.307 74.425,60.536 74.500,60.760 74.500 C 60.984 74.500,61.167 74.575,61.167 74.667 C 61.167 74.758,61.429 74.833,61.750 74.833 C 62.071 74.833,62.333 74.908,62.333 75.000 C 62.333 75.092,62.704 75.167,63.157 75.167 C 63.610 75.167,64.027 75.092,64.083 75.000 C 64.140 74.908,64.333 74.833,64.512 74.833 C 65.171 74.833,66.318 73.860,66.328 73.292 C 66.331 73.131,66.408 73.000,66.500 73.000 C 66.592 73.000,66.667 72.850,66.667 72.667 C 66.667 72.483,66.742 72.333,66.833 72.333 C 66.925 72.333,67.000 72.183,67.000 72.000 C 67.000 71.817,67.075 71.667,67.167 71.667 C 67.258 71.667,67.333 71.484,67.333 71.260 C 67.333 71.036,67.408 70.807,67.500 70.750 C 67.592 70.693,67.667 70.464,67.667 70.240 C 67.667 70.016,67.742 69.833,67.833 69.833 C 67.925 69.833,68.000 69.613,68.000 69.343 C 68.000 69.074,68.065 68.813,68.145 68.763 C 68.278 68.681,68.534 67.856,68.572 67.387 C 68.580 67.279,68.643 67.135,68.710 67.067 C 68.778 67.000,68.833 66.765,68.833 66.546 C 68.833 66.326,68.892 66.184,68.965 66.228 C 69.037 66.273,69.113 66.108,69.133 65.863 C 69.153 65.618,69.244 65.392,69.335 65.361 C 69.426 65.331,69.500 65.016,69.500 64.663 C 69.500 64.309,69.575 63.973,69.667 63.917 C 69.758 63.860,69.833 63.646,69.833 63.440 C 69.833 63.235,69.899 62.995,69.979 62.908 C 70.212 62.657,71.031 60.335,71.227 59.375 C 71.325 58.894,71.464 58.500,71.536 58.500 C 71.608 58.500,71.667 58.313,71.667 58.083 C 71.667 57.854,71.742 57.667,71.833 57.667 C 71.925 57.667,72.000 57.521,72.000 57.343 C 72.000 57.165,72.075 56.973,72.167 56.917 C 72.258 56.860,72.333 56.556,72.333 56.240 C 72.333 55.925,72.393 55.667,72.466 55.667 C 72.538 55.667,72.698 55.215,72.821 54.663 C 72.943 54.111,73.108 53.619,73.188 53.570 C 73.268 53.521,73.333 53.297,73.333 53.073 C 73.333 52.850,73.401 52.667,73.484 52.667 C 73.567 52.667,73.687 52.292,73.750 51.833 C 73.813 51.375,73.933 51.000,74.016 51.000 C 74.099 51.000,74.167 50.813,74.167 50.583 C 74.167 50.354,74.242 50.167,74.333 50.167 C 74.425 50.167,74.500 49.942,74.500 49.667 C 74.500 49.392,74.575 49.167,74.667 49.167 C 74.758 49.167,74.833 48.984,74.833 48.760 C 74.833 48.536,74.908 48.307,75.000 48.250 C 75.092 48.193,75.167 48.000,75.167 47.821 C 75.167 47.642,75.235 47.365,75.318 47.206 C 75.571 46.725,76.333 44.090,76.333 43.698 C 76.333 43.498,76.395 43.333,76.470 43.333 C 76.545 43.333,76.709 42.958,76.833 42.500 C 76.958 42.042,77.122 41.667,77.197 41.667 C 77.272 41.667,77.333 41.446,77.333 41.177 C 77.333 40.907,77.408 40.640,77.500 40.583 C 77.592 40.527,77.667 40.335,77.667 40.157 C 77.667 39.979,77.733 39.833,77.815 39.833 C 77.897 39.833,78.002 39.590,78.049 39.292 C 78.096 38.994,78.292 38.307,78.484 37.766 C 78.676 37.224,78.833 36.606,78.833 36.391 C 78.833 36.176,78.908 36.000,79.000 36.000 C 79.092 36.000,79.167 35.775,79.167 35.500 C 79.167 35.225,79.242 35.000,79.333 35.000 C 79.425 35.000,79.500 34.737,79.500 34.417 C 79.500 34.096,79.575 33.833,79.667 33.833 C 79.758 33.833,79.833 33.646,79.833 33.417 C 79.833 33.188,79.908 33.000,80.000 33.000 C 80.092 33.000,80.167 33.188,80.167 33.417 C 80.167 33.646,80.242 33.833,80.333 33.833 C 80.425 33.833,80.500 34.058,80.500 34.333 C 80.500 34.608,80.575 34.833,80.667 34.833 C 80.758 34.833,80.833 35.063,80.833 35.343 C 80.833 35.641,80.903 35.810,81.000 35.750 C 81.093 35.692,81.167 35.822,81.167 36.045 C 81.167 36.264,81.350 36.962,81.573 37.597 C 81.944 38.649,82.376 40.086,82.405 40.361 C 82.411 40.422,82.473 40.528,82.542 40.597 C 82.610 40.666,82.667 40.893,82.667 41.101 C 82.667 41.310,82.742 41.527,82.833 41.583 C 82.925 41.640,83.000 41.832,83.000 42.010 C 83.000 42.188,83.075 42.333,83.167 42.333 C 83.258 42.333,83.333 42.558,83.333 42.833 C 83.333 43.108,83.400 43.333,83.481 43.333 C 83.562 43.333,83.667 43.540,83.714 43.792 C 83.884 44.702,84.515 46.570,84.723 46.778 C 84.784 46.839,84.833 47.064,84.833 47.278 C 84.833 47.492,84.908 47.667,85.000 47.667 C 85.092 47.667,85.167 47.967,85.167 48.333 C 85.167 48.700,85.242 49.000,85.333 49.000 C 85.425 49.000,85.500 49.225,85.500 49.500 C 85.500 49.775,85.575 50.000,85.667 50.000 C 85.758 50.000,85.833 50.225,85.833 50.500 C 85.833 50.775,85.908 51.000,86.000 51.000 C 86.092 51.000,86.167 51.110,86.167 51.244 C 86.167 51.546,86.619 52.980,86.839 53.373 C 86.927 53.532,87.000 53.809,87.000 53.988 C 87.000 54.167,87.075 54.360,87.167 54.417 C 87.258 54.473,87.333 54.666,87.333 54.845 C 87.333 55.025,87.420 55.339,87.526 55.544 C 87.948 56.359,88.000 56.511,88.000 56.914 C 88.000 57.145,88.066 57.333,88.148 57.333 C 88.287 57.333,88.392 57.703,88.609 58.958 C 88.661 59.256,88.774 59.500,88.861 59.500 C 88.948 59.500,88.987 59.556,88.946 59.625 C 88.906 59.694,88.950 59.938,89.044 60.167 C 89.253 60.672,89.332 60.943,89.449 61.542 C 89.498 61.794,89.604 62.000,89.686 62.000 C 89.767 62.000,89.833 62.225,89.833 62.500 C 89.833 62.775,89.908 63.000,90.000 63.000 C 90.092 63.000,90.167 63.188,90.167 63.417 C 90.167 63.646,90.242 63.833,90.333 63.833 C 90.425 63.833,90.500 64.058,90.500 64.333 C 90.500 64.608,90.575 64.833,90.667 64.833 C 90.758 64.833,90.833 65.071,90.833 65.361 C 90.833 65.651,90.885 65.837,90.948 65.774 C 91.043 65.679,91.513 67.257,91.957 69.167 C 92.010 69.396,92.192 69.829,92.360 70.130 C 92.529 70.431,92.667 70.825,92.667 71.005 C 92.667 71.186,92.742 71.333,92.833 71.333 C 92.925 71.333,93.000 71.558,93.000 71.833 C 93.000 72.108,93.075 72.333,93.167 72.333 C 93.258 72.333,93.333 72.521,93.333 72.750 C 93.333 72.979,93.408 73.167,93.500 73.167 C 93.592 73.167,93.667 73.250,93.667 73.353 C 93.667 73.807,94.996 74.833,95.584 74.833 C 95.904 74.833,96.167 74.908,96.167 75.000 C 96.167 75.092,96.462 75.167,96.823 75.167 C 97.185 75.167,97.527 75.092,97.583 75.000 C 97.640 74.908,97.977 74.833,98.333 74.833 C 98.689 74.833,99.027 74.758,99.083 74.667 C 99.140 74.575,99.332 74.500,99.510 74.500 C 99.688 74.500,99.833 74.425,99.833 74.333 C 99.833 74.242,99.983 74.167,100.167 74.167 C 100.350 74.167,100.500 74.092,100.500 74.000 C 100.500 73.908,100.612 73.833,100.750 73.833 C 100.888 73.833,101.000 73.763,101.000 73.678 C 101.000 73.592,101.145 73.476,101.323 73.420 C 101.500 73.364,101.744 73.096,101.864 72.825 C 101.983 72.555,102.138 72.333,102.207 72.333 C 102.277 72.333,102.333 72.002,102.333 71.597 C 102.333 71.164,102.419 70.826,102.542 70.777 C 102.708 70.710,102.708 70.690,102.542 70.680 C 102.405 70.671,102.333 70.384,102.333 69.843 C 102.333 69.390,102.258 68.973,102.167 68.917 C 102.075 68.860,102.000 68.631,102.000 68.407 C 102.000 68.183,101.925 68.000,101.833 68.000 C 101.742 68.000,101.667 67.775,101.667 67.500 C 101.667 67.225,101.592 67.000,101.500 67.000 C 101.408 67.000,101.333 66.811,101.333 66.579 C 101.333 66.348,101.185 65.737,101.004 65.223 C 100.824 64.708,100.716 64.222,100.764 64.144 C 100.813 64.065,100.774 64.000,100.677 64.000 C 100.579 64.000,100.500 63.808,100.500 63.573 C 100.500 63.332,100.428 63.192,100.333 63.250 C 100.236 63.310,100.167 63.141,100.167 62.843 C 100.167 62.563,100.092 62.333,100.000 62.333 C 99.908 62.333,99.833 62.146,99.833 61.917 C 99.833 61.688,99.758 61.500,99.667 61.500 C 99.575 61.500,99.500 61.275,99.500 61.000 C 99.500 60.725,99.425 60.500,99.333 60.500 C 99.242 60.500,99.167 60.317,99.167 60.093 C 99.167 59.869,99.092 59.640,99.000 59.583 C 98.908 59.527,98.833 59.337,98.833 59.163 C 98.833 58.988,98.732 58.524,98.607 58.131 C 98.074 56.445,97.944 55.979,97.944 55.747 C 97.944 55.611,97.882 55.500,97.806 55.500 C 97.729 55.500,97.667 55.317,97.667 55.093 C 97.667 54.869,97.592 54.640,97.500 54.583 C 97.408 54.527,97.333 54.297,97.333 54.073 C 97.333 53.850,97.258 53.667,97.167 53.667 C 97.075 53.667,97.000 53.517,97.000 53.333 C 97.000 53.150,96.925 53.000,96.833 53.000 C 96.742 53.000,96.667 52.775,96.667 52.500 C 96.667 52.225,96.599 52.000,96.516 52.000 C 96.433 52.000,96.313 51.625,96.250 51.167 C 96.187 50.709,96.067 50.292,95.984 50.240 C 95.901 50.189,95.833 49.968,95.833 49.750 C 95.833 49.532,95.758 49.307,95.667 49.250 C 95.575 49.193,95.500 48.979,95.500 48.773 C 95.500 48.568,95.427 48.327,95.338 48.238 C 95.249 48.149,95.146 47.928,95.109 47.746 C 94.904 46.737,94.775 46.317,94.645 46.237 C 94.565 46.187,94.500 45.926,94.500 45.657 C 94.500 45.387,94.425 45.167,94.333 45.167 C 94.242 45.167,94.167 44.942,94.167 44.667 C 94.167 44.392,94.100 44.167,94.019 44.167 C 93.938 44.167,93.821 43.829,93.759 43.417 C 93.697 43.004,93.576 42.667,93.490 42.667 C 93.404 42.667,93.333 42.442,93.333 42.167 C 93.333 41.892,93.258 41.667,93.167 41.667 C 93.075 41.667,93.000 41.479,93.000 41.250 C 93.000 41.021,92.925 40.833,92.833 40.833 C 92.742 40.833,92.667 40.650,92.667 40.427 C 92.667 40.203,92.592 39.973,92.500 39.917 C 92.408 39.860,92.333 39.593,92.333 39.323 C 92.333 39.054,92.258 38.833,92.167 38.833 C 92.075 38.833,92.000 38.608,92.000 38.333 C 92.000 38.058,91.925 37.833,91.833 37.833 C 91.742 37.833,91.667 37.608,91.667 37.333 C 91.667 37.058,91.602 36.833,91.522 36.833 C 91.442 36.833,91.333 36.552,91.278 36.208 C 91.128 35.260,90.961 34.701,90.655 34.127 C 90.570 33.968,90.500 33.649,90.500 33.419 C 90.500 33.189,90.425 33.000,90.333 33.000 C 90.242 33.000,90.167 32.775,90.167 32.500 C 90.167 32.225,90.092 32.000,90.000 32.000 C 89.908 32.000,89.833 31.850,89.833 31.667 C 89.833 31.483,89.758 31.333,89.667 31.333 C 89.575 31.333,89.500 31.150,89.500 30.927 C 89.500 30.703,89.425 30.473,89.333 30.417 C 89.242 30.360,89.167 30.093,89.167 29.823 C 89.167 29.554,89.101 29.333,89.021 29.333 C 88.941 29.333,88.817 29.015,88.746 28.625 C 88.674 28.235,88.604 27.879,88.589 27.833 C 88.575 27.787,88.426 27.281,88.259 26.708 C 88.093 26.135,87.891 25.667,87.811 25.667 C 87.732 25.667,87.667 25.589,87.667 25.494 C 87.667 25.120,86.435 24.114,85.708 23.896 C 84.845 23.636,83.667 23.591,83.667 23.818 C 83.667 23.901,83.518 23.930,83.335 23.882 C 82.959 23.784,81.500 24.171,81.500 24.370 C 81.500 24.441,81.350 24.500,81.167 24.500 C 80.983 24.500,80.833 24.557,80.833 24.626 C 80.833 24.937,79.864 25.188,79.512 24.969 C 79.322 24.850,79.167 24.696,79.167 24.627 C 79.167 24.557,79.017 24.500,78.833 24.500 C 78.650 24.500,78.500 24.441,78.500 24.368 C 78.500 24.031,75.143 23.525,74.500 23.765 M132.926 24.038 C 131.606 24.517,131.250 25.376,131.250 28.084 C 131.250 30.595,131.592 31.667,132.395 31.667 C 132.534 31.667,132.693 31.742,132.750 31.833 C 132.807 31.925,133.032 32.000,133.250 32.000 C 133.468 32.000,133.693 32.075,133.750 32.167 C 133.815 32.272,135.863 32.333,139.343 32.333 C 142.363 32.333,144.833 32.368,144.833 32.410 C 144.833 32.538,144.156 34.389,143.968 34.776 C 143.873 34.973,143.845 35.217,143.907 35.317 C 143.969 35.418,143.940 35.500,143.843 35.500 C 143.746 35.500,143.667 35.650,143.667 35.833 C 143.667 36.017,143.592 36.167,143.500 36.167 C 143.408 36.167,143.333 36.279,143.333 36.417 C 143.333 36.554,143.258 36.667,143.167 36.667 C 143.075 36.667,143.000 36.817,143.000 37.000 C 143.000 37.183,142.925 37.333,142.833 37.333 C 142.742 37.333,142.667 37.521,142.667 37.750 C 142.667 37.979,142.592 38.167,142.500 38.167 C 142.408 38.167,142.333 38.279,142.333 38.417 C 142.333 38.554,142.254 38.667,142.157 38.667 C 142.060 38.667,142.018 38.728,142.065 38.804 C 142.112 38.879,142.059 39.123,141.949 39.345 C 141.838 39.568,141.604 40.200,141.428 40.750 C 141.252 41.300,141.046 41.821,140.971 41.908 C 140.895 41.995,140.833 42.202,140.833 42.367 C 140.833 42.532,140.758 42.667,140.667 42.667 C 140.575 42.667,140.500 42.817,140.500 43.000 C 140.500 43.183,140.425 43.333,140.333 43.333 C 140.242 43.333,140.167 43.444,140.167 43.578 C 140.167 43.713,140.017 44.090,139.833 44.417 C 139.650 44.743,139.500 45.120,139.500 45.255 C 139.500 45.390,139.425 45.500,139.333 45.500 C 139.242 45.500,139.167 45.650,139.167 45.833 C 139.167 46.017,139.087 46.167,138.990 46.167 C 138.893 46.167,138.858 46.239,138.912 46.327 C 138.998 46.466,138.742 47.091,138.500 47.333 C 138.454 47.379,138.391 47.604,138.359 47.833 C 138.327 48.063,138.234 48.275,138.151 48.306 C 138.068 48.336,138.000 48.468,138.000 48.599 C 138.000 48.731,137.930 48.968,137.844 49.127 C 137.759 49.286,137.590 49.660,137.470 49.958 C 137.350 50.256,137.195 50.500,137.126 50.500 C 137.057 50.500,137.000 50.638,137.000 50.808 C 137.000 51.088,136.723 51.796,136.323 52.539 C 136.237 52.699,136.167 52.942,136.167 53.081 C 136.167 53.220,136.092 53.333,136.000 53.333 C 135.908 53.333,135.833 53.483,135.833 53.667 C 135.833 53.850,135.758 54.000,135.667 54.000 C 135.575 54.000,135.500 54.188,135.500 54.417 C 135.500 54.646,135.425 54.833,135.333 54.833 C 135.242 54.833,135.167 54.932,135.167 55.052 C 135.167 55.172,135.017 55.581,134.833 55.961 C 134.650 56.340,134.500 56.804,134.500 56.992 C 134.500 57.180,134.434 57.333,134.353 57.333 C 134.272 57.333,134.165 57.502,134.116 57.708 C 133.934 58.476,133.555 59.333,133.446 59.224 C 133.384 59.162,133.333 59.311,133.333 59.556 C 133.333 59.800,133.258 60.000,133.167 60.000 C 133.075 60.000,133.000 60.154,133.000 60.343 C 133.000 60.532,132.925 60.640,132.833 60.583 C 132.736 60.523,132.667 60.693,132.667 60.990 C 132.667 61.271,132.610 61.500,132.541 61.500 C 132.471 61.500,132.330 61.706,132.227 61.958 C 131.610 63.466,131.167 64.703,131.167 64.918 C 131.167 65.055,131.092 65.167,131.000 65.167 C 130.908 65.167,130.833 65.317,130.833 65.500 C 130.833 65.683,130.758 65.833,130.667 65.833 C 130.575 65.833,130.500 65.979,130.500 66.157 C 130.500 66.335,130.425 66.527,130.333 66.583 C 130.242 66.640,130.167 66.832,130.167 67.010 C 130.167 67.188,130.092 67.333,130.000 67.333 C 129.908 67.333,129.833 67.483,129.833 67.667 C 129.833 67.850,129.758 68.000,129.667 68.000 C 129.575 68.000,129.500 68.219,129.500 68.486 C 129.500 68.753,129.406 69.003,129.292 69.042 C 128.500 69.306,129.300 73.134,130.208 73.428 C 130.369 73.480,130.500 73.592,130.500 73.678 C 130.500 73.763,130.650 73.833,130.833 73.833 C 131.017 73.833,131.167 73.908,131.167 74.000 C 131.167 74.092,131.279 74.167,131.417 74.167 C 131.554 74.167,131.667 74.242,131.667 74.333 C 131.667 74.425,131.892 74.500,132.167 74.500 C 132.442 74.500,132.667 74.575,132.667 74.667 C 132.667 74.758,133.079 74.833,133.583 74.833 C 134.185 74.833,134.500 74.902,134.500 75.033 C 134.500 75.189,134.544 75.189,134.700 75.033 C 134.810 74.923,135.223 74.833,135.617 74.833 C 136.011 74.833,136.333 74.758,136.333 74.667 C 136.333 74.575,136.448 74.500,136.588 74.500 C 137.043 74.500,138.333 72.822,138.333 72.231 C 138.333 72.104,138.408 72.000,138.500 72.000 C 138.592 72.000,138.667 71.888,138.667 71.751 C 138.667 71.404,139.218 70.167,139.373 70.167 C 139.443 70.167,139.500 70.017,139.500 69.833 C 139.500 69.650,139.575 69.500,139.667 69.500 C 139.758 69.500,139.833 69.365,139.833 69.200 C 139.833 68.827,140.206 68.003,140.375 68.001 C 140.444 68.001,140.500 67.865,140.500 67.700 C 140.500 67.535,140.564 67.329,140.643 67.242 C 140.820 67.045,141.333 65.447,141.333 65.094 C 141.333 64.950,141.408 64.833,141.500 64.833 C 141.592 64.833,141.667 64.683,141.667 64.500 C 141.667 64.317,141.742 64.167,141.833 64.167 C 141.925 64.167,142.000 64.017,142.000 63.833 C 142.000 63.650,142.075 63.500,142.167 63.500 C 142.258 63.500,142.333 63.313,142.333 63.083 C 142.333 62.854,142.408 62.667,142.500 62.667 C 142.592 62.667,142.667 62.517,142.667 62.333 C 142.667 62.150,142.742 62.000,142.833 62.000 C 142.925 62.000,143.000 61.895,143.000 61.767 C 143.000 61.639,143.187 61.208,143.415 60.809 C 143.643 60.410,143.830 59.835,143.831 59.532 C 143.833 59.207,143.902 59.023,144.000 59.083 C 144.095 59.142,144.167 59.002,144.167 58.760 C 144.167 58.525,144.242 58.333,144.333 58.333 C 144.425 58.333,144.500 58.183,144.500 58.000 C 144.500 57.817,144.575 57.667,144.667 57.667 C 144.758 57.667,144.833 57.442,144.833 57.167 C 144.833 56.892,144.894 56.667,144.969 56.667 C 145.043 56.667,145.207 56.404,145.333 56.083 C 145.459 55.762,145.623 55.500,145.698 55.500 C 145.772 55.500,145.833 55.380,145.833 55.234 C 145.833 54.985,146.163 54.126,146.514 53.461 C 146.598 53.301,146.667 53.058,146.667 52.919 C 146.667 52.780,146.742 52.667,146.833 52.667 C 146.925 52.667,147.000 52.521,147.000 52.343 C 147.000 52.165,147.068 51.978,147.151 51.926 C 147.235 51.875,147.399 51.458,147.516 51.000 C 147.634 50.541,147.791 50.167,147.865 50.167 C 147.939 50.167,148.000 50.053,148.000 49.914 C 148.000 49.776,148.073 49.532,148.162 49.373 C 148.602 48.590,149.167 47.238,149.167 46.969 C 149.167 46.803,149.242 46.667,149.333 46.667 C 149.425 46.667,149.500 46.517,149.500 46.333 C 149.500 46.150,149.560 46.000,149.632 46.000 C 149.705 46.000,149.904 45.663,150.074 45.250 C 150.388 44.489,150.833 44.236,150.833 44.819 C 150.833 44.995,150.897 45.164,150.975 45.194 C 151.118 45.250,151.788 46.918,151.952 47.625 C 152.000 47.831,152.105 48.000,152.186 48.000 C 152.267 48.000,152.333 48.110,152.333 48.245 C 152.333 48.380,152.483 48.757,152.667 49.083 C 152.850 49.410,153.000 49.787,153.000 49.922 C 153.000 50.056,153.075 50.167,153.167 50.167 C 153.258 50.167,153.333 50.317,153.333 50.500 C 153.333 50.683,153.399 50.833,153.479 50.833 C 153.559 50.833,153.669 51.116,153.724 51.461 C 153.780 51.807,154.052 52.533,154.329 53.075 C 154.606 53.617,154.833 54.160,154.833 54.281 C 154.833 54.401,154.908 54.500,155.000 54.500 C 155.092 54.500,155.167 54.650,155.167 54.833 C 155.167 55.017,155.242 55.167,155.333 55.167 C 155.425 55.167,155.500 55.312,155.500 55.490 C 155.500 55.668,155.575 55.860,155.667 55.917 C 155.758 55.973,155.833 56.165,155.833 56.343 C 155.833 56.521,155.899 56.667,155.979 56.667 C 156.059 56.667,156.182 56.910,156.252 57.208 C 156.408 57.870,156.375 57.777,156.742 58.583 C 156.910 58.950,157.101 59.400,157.169 59.583 C 157.418 60.261,158.087 61.585,158.208 61.639 C 158.277 61.669,158.333 61.907,158.333 62.167 C 158.333 62.426,158.390 62.664,158.458 62.694 C 158.649 62.779,159.167 63.970,159.167 64.325 C 159.167 64.498,159.226 64.664,159.298 64.694 C 159.459 64.762,160.167 66.456,160.167 66.772 C 160.167 66.898,160.242 67.000,160.333 67.000 C 160.425 67.000,160.500 67.150,160.500 67.333 C 160.500 67.517,160.575 67.667,160.667 67.667 C 160.758 67.667,160.833 67.854,160.833 68.083 C 160.833 68.313,160.908 68.500,161.000 68.500 C 161.092 68.500,161.167 68.610,161.167 68.744 C 161.167 68.969,161.500 69.839,161.854 70.539 C 161.934 70.699,162.000 70.942,162.000 71.081 C 162.000 71.220,162.075 71.333,162.167 71.333 C 162.258 71.333,162.333 71.483,162.333 71.667 C 162.333 71.850,162.408 72.000,162.500 72.000 C 162.592 72.000,162.667 72.150,162.667 72.333 C 162.667 72.517,162.742 72.667,162.833 72.667 C 162.925 72.667,163.001 72.760,163.002 72.875 C 163.006 73.200,164.250 74.500,164.558 74.500 C 164.709 74.500,164.833 74.575,164.833 74.667 C 164.833 74.768,165.556 74.833,166.667 74.833 C 167.778 74.833,168.500 74.768,168.500 74.667 C 168.500 74.575,168.683 74.500,168.907 74.500 C 169.131 74.500,169.360 74.425,169.417 74.333 C 169.473 74.242,169.684 74.166,169.885 74.164 C 170.148 74.162,170.188 74.122,170.028 74.021 C 169.871 73.921,169.951 73.851,170.306 73.780 C 170.623 73.717,170.916 73.495,171.106 73.174 C 171.270 72.895,171.464 72.667,171.536 72.667 C 171.608 72.667,171.667 72.517,171.667 72.333 C 171.667 72.150,171.742 72.000,171.833 72.000 C 171.929 72.000,172.000 71.500,172.000 70.833 C 172.000 70.167,171.929 69.667,171.833 69.667 C 171.742 69.667,171.667 69.516,171.667 69.331 C 171.667 69.146,171.596 68.865,171.510 68.706 C 171.423 68.547,171.226 67.985,171.070 67.458 C 170.915 66.931,170.723 66.500,170.644 66.500 C 170.565 66.500,170.500 66.350,170.500 66.167 C 170.500 65.983,170.425 65.833,170.333 65.833 C 170.242 65.833,170.167 65.646,170.167 65.417 C 170.167 65.188,170.092 65.000,170.000 65.000 C 169.908 65.000,169.833 64.850,169.833 64.667 C 169.833 64.483,169.758 64.333,169.667 64.333 C 169.575 64.333,169.500 64.108,169.500 63.833 C 169.500 63.558,169.443 63.333,169.374 63.333 C 169.215 63.333,168.625 61.931,168.592 61.472 C 168.587 61.411,168.527 61.305,168.458 61.236 C 168.390 61.167,168.333 60.974,168.333 60.806 C 168.333 60.637,168.258 60.500,168.167 60.500 C 168.075 60.500,168.000 60.350,168.000 60.167 C 168.000 59.983,167.943 59.833,167.874 59.833 C 167.805 59.833,167.650 59.590,167.530 59.292 C 167.410 58.994,167.241 58.620,167.156 58.461 C 167.070 58.301,167.000 58.058,167.000 57.919 C 167.000 57.780,166.925 57.667,166.833 57.667 C 166.742 57.667,166.667 57.521,166.667 57.343 C 166.667 57.165,166.592 56.973,166.500 56.917 C 166.408 56.860,166.333 56.643,166.333 56.435 C 166.333 56.226,166.277 55.999,166.208 55.931 C 166.140 55.862,166.082 55.756,166.080 55.694 C 166.071 55.432,165.405 54.001,165.292 54.001 C 165.223 54.000,165.167 53.850,165.167 53.667 C 165.167 53.483,165.092 53.333,165.000 53.333 C 164.908 53.333,164.833 53.183,164.833 53.000 C 164.833 52.817,164.758 52.667,164.667 52.667 C 164.575 52.667,164.500 52.479,164.500 52.250 C 164.500 52.021,164.425 51.833,164.333 51.833 C 164.242 51.833,164.167 51.683,164.167 51.500 C 164.167 51.317,164.110 51.166,164.042 51.165 C 163.973 51.164,163.779 50.696,163.611 50.124 C 163.443 49.551,163.162 48.795,162.986 48.443 C 162.811 48.090,162.667 47.696,162.667 47.568 C 162.667 47.439,162.592 47.333,162.500 47.333 C 162.408 47.333,162.333 47.183,162.333 47.000 C 162.333 46.817,162.258 46.667,162.167 46.667 C 162.075 46.667,162.000 46.521,162.000 46.343 C 162.000 46.165,161.925 45.973,161.833 45.917 C 161.742 45.860,161.667 45.674,161.667 45.504 C 161.667 45.334,161.610 45.169,161.542 45.139 C 161.409 45.080,160.820 43.560,160.793 43.208 C 160.785 43.094,160.715 43.000,160.639 43.000 C 160.563 43.000,160.500 42.850,160.500 42.667 C 160.500 42.483,160.425 42.333,160.333 42.333 C 160.242 42.333,160.167 42.146,160.167 41.917 C 160.167 41.688,160.092 41.500,160.000 41.500 C 159.908 41.500,159.833 41.350,159.833 41.167 C 159.833 40.983,159.758 40.833,159.667 40.833 C 159.575 40.833,159.500 40.698,159.500 40.533 C 159.500 40.161,159.127 39.336,158.958 39.335 C 158.890 39.334,158.833 39.196,158.833 39.028 C 158.833 38.860,158.777 38.666,158.708 38.597 C 158.640 38.528,158.575 38.422,158.565 38.361 C 158.460 37.724,158.264 37.167,158.146 37.167 C 158.066 37.167,158.000 37.017,158.000 36.833 C 158.000 36.650,157.925 36.500,157.833 36.500 C 157.742 36.500,157.667 36.350,157.667 36.167 C 157.667 35.983,157.592 35.833,157.500 35.833 C 157.408 35.833,157.333 35.683,157.333 35.500 C 157.333 35.317,157.258 35.167,157.167 35.167 C 157.075 35.167,157.000 34.900,157.000 34.573 C 157.000 34.220,156.933 34.022,156.833 34.083 C 156.739 34.141,156.667 34.006,156.667 33.774 C 156.667 33.547,156.603 33.336,156.526 33.306 C 156.448 33.275,156.334 33.044,156.273 32.792 L 156.160 32.333 161.472 32.333 C 166.635 32.333,167.251 32.283,168.333 31.778 C 169.135 31.403,169.833 30.467,169.833 29.766 C 169.833 29.543,169.927 29.323,170.042 29.277 C 170.204 29.211,170.200 29.157,170.024 29.034 C 169.866 28.923,169.853 28.841,169.982 28.761 C 170.214 28.618,170.230 26.500,170.000 26.500 C 169.908 26.500,169.833 26.311,169.833 26.081 C 169.833 25.238,168.985 24.275,168.000 23.999 C 167.163 23.764,133.578 23.801,132.926 24.038 M119.250 42.833 C 119.193 42.925,118.964 43.000,118.740 43.000 C 118.516 43.000,118.333 43.075,118.333 43.167 C 118.333 43.258,118.183 43.333,118.000 43.333 C 117.817 43.333,117.667 43.395,117.667 43.469 C 117.667 43.544,117.371 43.771,117.010 43.975 C 116.648 44.178,116.306 44.492,116.248 44.672 C 116.191 44.852,116.074 45.000,115.989 45.000 C 115.903 45.000,115.833 45.112,115.833 45.250 C 115.833 45.387,115.758 45.500,115.667 45.500 C 115.575 45.500,115.500 45.650,115.500 45.833 C 115.500 46.017,115.425 46.167,115.333 46.167 C 115.242 46.167,115.167 46.312,115.167 46.490 C 115.167 46.668,115.092 46.860,115.000 46.917 C 114.906 46.975,114.833 47.776,114.833 48.750 C 114.833 49.724,114.906 50.525,115.000 50.583 C 115.092 50.640,115.167 50.832,115.167 51.010 C 115.167 51.188,115.242 51.333,115.333 51.333 C 115.425 51.333,115.500 51.449,115.500 51.591 C 115.500 51.733,115.669 52.027,115.875 52.245 C 116.081 52.463,116.496 52.909,116.796 53.237 C 117.096 53.565,117.452 53.833,117.588 53.833 C 117.723 53.833,117.833 53.908,117.833 54.000 C 117.833 54.092,118.015 54.167,118.236 54.167 C 118.458 54.167,118.664 54.237,118.694 54.322 C 118.725 54.408,119.050 54.510,119.417 54.549 C 119.783 54.589,120.216 54.677,120.378 54.746 C 120.540 54.815,120.877 54.818,121.128 54.753 C 121.378 54.688,121.940 54.597,122.375 54.551 C 122.810 54.505,123.167 54.400,123.167 54.317 C 123.167 54.234,123.268 54.167,123.391 54.167 C 124.317 54.167,126.309 52.209,126.327 51.282 C 126.331 51.116,126.394 51.018,126.468 51.064 C 126.542 51.109,126.621 50.834,126.644 50.453 C 126.666 50.071,126.748 49.719,126.825 49.671 C 126.976 49.577,126.932 48.028,126.746 46.876 C 126.683 46.487,126.574 46.204,126.503 46.248 C 126.432 46.292,126.332 46.123,126.282 45.872 C 126.231 45.622,126.049 45.267,125.878 45.083 C 125.707 44.900,125.516 44.619,125.455 44.458 C 125.394 44.298,125.247 44.167,125.129 44.167 C 125.010 44.167,124.711 43.979,124.464 43.750 C 124.217 43.521,123.899 43.333,123.757 43.333 C 123.616 43.333,123.500 43.258,123.500 43.167 C 123.500 43.075,123.313 43.000,123.083 43.000 C 122.854 43.000,122.667 42.925,122.667 42.833 C 122.667 42.733,122.003 42.667,121.010 42.667 C 120.085 42.667,119.307 42.740,119.250 42.833 M190.167 42.833 C 190.167 42.925,189.942 43.000,189.667 43.000 C 189.392 43.000,189.167 43.075,189.167 43.167 C 189.167 43.258,189.092 43.333,189.001 43.333 C 188.843 43.333,188.645 43.484,187.381 44.566 C 186.797 45.066,186.167 46.172,186.167 46.698 C 186.167 46.864,186.092 47.000,186.000 47.000 C 185.899 47.000,185.833 47.722,185.833 48.833 C 185.833 49.944,185.899 50.667,186.000 50.667 C 186.092 50.667,186.167 50.817,186.167 51.000 C 186.167 51.183,186.234 51.333,186.315 51.333 C 186.397 51.333,186.507 51.502,186.559 51.708 C 186.696 52.250,188.263 53.833,188.663 53.833 C 188.848 53.833,189.000 53.908,189.000 54.000 C 189.000 54.092,189.150 54.167,189.333 54.167 C 189.517 54.167,189.667 54.242,189.667 54.333 C 189.667 54.425,190.000 54.500,190.407 54.500 C 190.814 54.500,191.198 54.582,191.260 54.683 C 191.329 54.795,191.605 54.824,191.978 54.757 C 192.311 54.698,192.940 54.608,193.375 54.558 C 193.810 54.509,194.167 54.400,194.167 54.317 C 194.167 54.234,194.317 54.167,194.500 54.167 C 194.683 54.167,194.833 54.092,194.833 54.000 C 194.833 53.908,194.970 53.833,195.137 53.833 C 195.417 53.833,196.995 52.316,197.004 52.039 C 197.006 51.972,197.154 51.729,197.333 51.500 C 197.513 51.271,197.661 50.910,197.663 50.698 C 197.665 50.487,197.728 50.351,197.803 50.398 C 197.993 50.515,198.055 47.432,197.870 47.057 C 197.787 46.888,197.632 46.582,197.526 46.377 C 197.420 46.172,197.333 45.908,197.333 45.789 C 197.333 45.671,197.183 45.465,197.000 45.333 C 196.817 45.201,196.667 44.960,196.667 44.797 C 196.667 44.633,196.610 44.500,196.542 44.500 C 196.434 44.500,196.086 44.238,195.215 43.503 C 195.105 43.410,194.898 43.333,194.757 43.333 C 194.616 43.333,194.500 43.258,194.500 43.167 C 194.500 43.075,194.317 43.000,194.093 43.000 C 193.869 43.000,193.640 42.925,193.583 42.833 C 193.526 42.740,192.748 42.667,191.823 42.667 C 190.830 42.667,190.167 42.733,190.167 42.833 " stroke="none" fill="#fcc4c4" fill-rule="evenodd"></path><path id="path2" d="" stroke="none" fill="#fcec100" fill-rule="evenodd"></path><path id="path3" d="" stroke="none" fill="#fcec100" fill-rule="evenodd"></path><path id="path4" d="" stroke="none" fill="#fcec100" fill-rule="evenodd"></path></g></svg>