<svg id="svg" version="1.1" xmlns="http://www.w3.org/2000/svg" xmlns:xlink="http://www.w3.org/1999/xlink" width="400" height="112.5" viewBox="0, 0, 400,112.5"><g id="svgg"><path id="path0" d="M107.590 22.155 C 107.530 22.253,107.185 22.333,106.823 22.333 C 106.462 22.333,106.167 22.408,106.167 22.500 C 106.167 22.592,106.053 22.667,105.914 22.667 C 105.518 22.667,104.228 23.495,104.613 23.503 C 104.688 23.504,104.638 23.576,104.500 23.663 C 104.362 23.750,104.247 23.880,104.244 23.952 C 104.241 24.024,104.148 24.246,104.037 24.445 C 103.882 24.723,103.845 31.399,103.876 53.695 L 103.917 82.583 104.417 83.375 C 104.692 83.810,105.015 84.166,105.135 84.166 C 105.255 84.167,105.307 84.242,105.250 84.333 C 105.193 84.425,105.301 84.500,105.490 84.500 C 105.679 84.500,105.833 84.575,105.833 84.667 C 105.833 84.758,106.129 84.833,106.490 84.833 C 106.851 84.833,107.193 84.908,107.250 85.000 C 107.386 85.220,110.167 85.220,110.167 85.000 C 110.167 84.908,110.378 84.833,110.635 84.833 C 110.893 84.833,111.265 84.683,111.462 84.500 C 111.658 84.317,111.935 84.167,112.076 84.167 C 112.218 84.167,112.333 84.106,112.333 84.031 C 112.333 83.957,112.473 83.746,112.644 83.563 C 112.815 83.379,113.039 83.071,113.142 82.879 C 113.428 82.346,113.409 24.960,113.123 24.465 C 112.789 23.885,111.530 22.667,111.264 22.667 C 111.130 22.667,110.971 22.588,110.911 22.491 C 110.852 22.395,110.716 22.347,110.610 22.386 C 110.504 22.425,110.192 22.368,109.917 22.259 C 109.256 21.997,107.730 21.929,107.590 22.155 M178.333 22.202 C 178.104 22.302,177.802 22.370,177.662 22.354 C 177.378 22.321,175.930 23.012,175.871 23.208 C 175.850 23.277,175.833 23.421,175.833 23.528 C 175.833 23.635,175.787 23.676,175.730 23.619 C 175.582 23.471,175.167 23.928,175.167 24.238 C 175.167 24.382,175.092 24.500,175.000 24.500 C 174.890 24.500,174.833 34.333,174.833 53.667 C 174.833 73.000,174.890 82.833,175.000 82.833 C 175.092 82.833,175.167 82.930,175.167 83.049 C 175.167 83.167,175.429 83.542,175.750 83.882 C 176.071 84.222,176.333 84.454,176.333 84.398 C 176.333 84.341,176.518 84.416,176.744 84.564 C 176.970 84.712,177.341 84.833,177.568 84.833 C 177.795 84.833,178.027 84.908,178.083 85.000 C 178.140 85.092,178.777 85.167,179.500 85.167 C 180.223 85.167,180.860 85.092,180.917 85.000 C 180.973 84.908,181.232 84.833,181.491 84.833 C 182.339 84.833,183.833 83.738,183.833 83.116 C 183.833 82.950,183.908 82.860,184.000 82.917 C 184.111 82.985,184.167 73.224,184.167 53.760 C 184.167 34.364,184.110 24.500,184.000 24.500 C 183.908 24.500,183.833 24.350,183.833 24.167 C 183.833 23.983,183.758 23.833,183.667 23.833 C 183.575 23.833,183.500 23.721,183.500 23.583 C 183.500 23.446,183.387 23.333,183.250 23.333 C 183.112 23.333,183.000 23.258,183.000 23.167 C 183.000 23.075,182.883 23.000,182.740 23.000 C 182.586 23.000,182.529 22.922,182.599 22.808 C 182.667 22.698,182.646 22.660,182.550 22.719 C 182.458 22.776,182.240 22.715,182.066 22.583 C 181.892 22.452,181.511 22.342,181.218 22.339 C 180.926 22.336,180.638 22.255,180.578 22.159 C 180.506 22.041,180.383 22.055,180.203 22.200 C 180.003 22.362,179.967 22.365,180.061 22.208 C 180.221 21.942,178.942 21.938,178.333 22.202 M74.750 23.815 C 74.567 23.894,74.366 23.929,74.303 23.893 C 74.241 23.857,74.143 23.904,74.085 23.997 C 74.027 24.090,73.862 24.167,73.718 24.167 C 73.421 24.167,72.667 24.974,72.667 25.292 C 72.667 25.406,72.606 25.500,72.533 25.500 C 72.401 25.500,71.751 27.093,71.750 27.417 C 71.750 27.508,71.659 27.679,71.549 27.796 C 71.438 27.914,71.387 28.112,71.435 28.238 C 71.483 28.364,71.443 28.516,71.345 28.576 C 71.247 28.637,71.167 28.865,71.167 29.083 C 71.167 29.302,71.092 29.527,71.000 29.583 C 70.908 29.640,70.833 29.833,70.833 30.012 C 70.833 30.191,70.747 30.506,70.641 30.711 C 70.236 31.493,70.167 31.670,70.167 31.914 C 70.167 32.053,70.092 32.167,70.000 32.167 C 69.908 32.167,69.842 32.223,69.853 32.292 C 69.922 32.731,69.810 33.672,69.696 33.601 C 69.621 33.555,69.461 33.907,69.341 34.383 C 69.221 34.860,69.078 35.325,69.023 35.417 C 68.905 35.611,68.921 35.551,68.755 36.455 C 68.683 36.843,68.559 37.120,68.479 37.070 C 68.399 37.021,68.333 37.210,68.333 37.490 C 68.333 37.771,68.258 38.000,68.167 38.000 C 68.075 38.000,68.000 38.183,68.000 38.407 C 68.000 38.631,67.925 38.860,67.833 38.917 C 67.742 38.973,67.667 39.203,67.667 39.427 C 67.667 39.650,67.592 39.833,67.500 39.833 C 67.408 39.833,67.333 40.007,67.333 40.219 C 67.333 40.431,67.195 40.899,67.026 41.260 C 66.857 41.621,66.585 42.517,66.421 43.250 C 66.257 43.983,66.057 44.655,65.978 44.742 C 65.898 44.829,65.833 45.068,65.833 45.273 C 65.833 45.479,65.758 45.693,65.667 45.750 C 65.575 45.807,65.500 45.999,65.500 46.177 C 65.500 46.354,65.441 46.500,65.369 46.500 C 65.297 46.500,65.219 46.744,65.197 47.042 C 65.174 47.340,65.083 47.608,64.995 47.639 C 64.906 47.669,64.833 47.838,64.833 48.014 C 64.833 48.190,64.758 48.333,64.667 48.333 C 64.575 48.333,64.500 48.508,64.500 48.722 C 64.500 48.936,64.447 49.164,64.383 49.229 C 64.318 49.293,64.239 49.539,64.208 49.775 C 64.176 50.010,64.023 50.398,63.867 50.637 C 63.639 50.985,63.633 51.042,63.833 50.927 C 64.037 50.811,64.045 50.826,63.875 51.009 C 63.760 51.132,63.661 51.500,63.655 51.825 C 63.645 52.307,63.617 52.355,63.500 52.083 C 63.379 51.802,63.355 51.834,63.345 52.282 C 63.339 52.574,63.258 52.860,63.167 52.917 C 63.075 52.973,63.000 53.320,63.000 53.686 C 63.000 54.088,62.934 54.312,62.833 54.250 C 62.736 54.190,62.667 54.355,62.667 54.643 C 62.667 54.916,62.592 55.164,62.501 55.194 C 62.411 55.225,62.319 55.456,62.298 55.708 C 62.278 55.960,62.211 56.167,62.150 56.167 C 62.050 56.167,61.945 56.415,61.726 57.167 C 61.686 57.304,61.609 57.698,61.555 58.042 C 61.501 58.385,61.391 58.667,61.311 58.667 C 61.232 58.667,61.167 58.854,61.167 59.083 C 61.167 59.313,61.092 59.500,61.000 59.500 C 60.908 59.500,60.833 59.646,60.833 59.823 C 60.833 60.001,60.758 60.193,60.667 60.250 C 60.575 60.307,60.500 60.607,60.500 60.917 C 60.500 61.227,60.425 61.527,60.333 61.583 C 60.242 61.640,60.167 61.865,60.167 62.083 C 60.167 62.302,60.092 62.527,60.000 62.583 C 59.908 62.640,59.833 62.865,59.833 63.083 C 59.833 63.302,59.758 63.527,59.667 63.583 C 59.575 63.640,59.500 63.869,59.500 64.093 C 59.500 64.317,59.416 64.500,59.314 64.500 C 59.212 64.500,59.166 64.645,59.212 64.823 C 59.259 65.000,59.188 65.300,59.055 65.489 C 58.923 65.678,58.871 65.833,58.941 65.833 C 59.010 65.833,58.977 65.923,58.867 66.033 C 58.757 66.143,58.667 66.448,58.667 66.710 C 58.667 66.972,58.607 67.149,58.533 67.104 C 58.460 67.059,58.382 67.298,58.359 67.636 C 58.337 67.974,58.247 68.275,58.159 68.306 C 58.072 68.336,58.000 68.500,58.000 68.671 C 58.000 68.841,57.921 69.029,57.825 69.088 C 57.490 69.296,57.660 72.440,58.026 72.784 C 58.201 72.949,58.494 73.239,58.677 73.429 C 58.860 73.619,59.270 73.877,59.588 74.002 C 59.906 74.127,60.167 74.290,60.167 74.364 C 60.167 74.439,60.392 74.500,60.667 74.500 C 60.942 74.500,61.167 74.575,61.167 74.667 C 61.167 74.758,61.425 74.833,61.740 74.833 C 62.056 74.833,62.360 74.908,62.417 75.000 C 62.473 75.092,62.895 75.167,63.353 75.167 C 63.866 75.167,64.147 75.103,64.083 75.000 C 64.023 74.903,64.195 74.833,64.496 74.833 C 65.366 74.833,67.000 72.811,67.000 71.734 C 67.000 71.496,67.072 71.358,67.167 71.417 C 67.261 71.475,67.333 71.338,67.333 71.103 C 67.333 70.874,67.408 70.640,67.500 70.583 C 67.592 70.527,67.667 70.293,67.667 70.064 C 67.667 69.828,67.739 69.692,67.833 69.750 C 67.931 69.810,68.000 69.641,68.000 69.343 C 68.000 69.063,68.075 68.833,68.167 68.833 C 68.258 68.833,68.333 68.716,68.333 68.573 C 68.333 68.256,68.799 66.693,69.012 66.294 C 69.097 66.135,69.167 65.858,69.167 65.679 C 69.167 65.500,69.237 65.310,69.323 65.257 C 69.409 65.204,69.484 65.030,69.491 64.872 C 69.523 64.123,69.582 63.864,69.702 63.939 C 69.774 63.983,69.833 63.790,69.833 63.510 C 69.833 63.229,69.908 63.000,70.000 63.000 C 70.092 63.000,70.167 62.874,70.167 62.720 C 70.167 62.322,70.550 61.273,70.749 61.128 C 70.841 61.060,70.862 61.004,70.796 61.003 C 70.729 61.001,70.755 60.794,70.852 60.542 C 71.052 60.025,71.161 59.626,71.286 58.958 C 71.333 58.706,71.438 58.500,71.519 58.500 C 71.600 58.500,71.667 58.275,71.667 58.000 C 71.667 57.725,71.742 57.500,71.833 57.500 C 71.925 57.500,72.000 57.271,72.000 56.990 C 72.000 56.693,72.069 56.523,72.167 56.583 C 72.260 56.641,72.333 56.513,72.333 56.293 C 72.333 56.077,72.423 55.810,72.533 55.700 C 72.643 55.590,72.683 55.500,72.621 55.500 C 72.559 55.500,72.589 55.294,72.687 55.042 C 72.786 54.790,72.903 54.358,72.948 54.083 C 72.993 53.808,73.098 53.558,73.182 53.528 C 73.265 53.497,73.333 53.325,73.333 53.145 C 73.333 52.964,73.445 52.601,73.581 52.338 C 73.772 51.969,73.781 51.840,73.623 51.776 C 73.461 51.711,73.461 51.690,73.625 51.680 C 73.740 51.673,73.833 51.475,73.833 51.240 C 73.833 50.960,73.899 50.855,74.026 50.933 C 74.132 50.999,74.173 50.979,74.118 50.889 C 74.062 50.799,74.126 50.517,74.259 50.261 C 74.391 50.005,74.500 49.654,74.500 49.481 C 74.500 49.308,74.575 49.167,74.667 49.167 C 74.758 49.167,74.833 49.016,74.833 48.831 C 74.833 48.646,74.903 48.365,74.988 48.206 C 75.264 47.688,75.438 47.100,75.529 46.375 C 75.544 46.260,75.606 46.167,75.667 46.167 C 75.728 46.167,75.789 46.073,75.802 45.958 C 75.857 45.485,75.946 45.069,76.043 44.833 C 76.099 44.696,76.279 44.115,76.443 43.542 C 76.607 42.969,76.799 42.500,76.870 42.500 C 76.942 42.500,77.000 42.313,77.000 42.083 C 77.000 41.854,77.079 41.667,77.177 41.667 C 77.274 41.667,77.316 41.607,77.272 41.535 C 77.227 41.462,77.290 41.181,77.412 40.910 C 77.535 40.639,77.733 40.060,77.854 39.625 C 77.974 39.190,78.137 38.833,78.215 38.833 C 78.293 38.833,78.337 38.665,78.312 38.458 C 78.287 38.252,78.354 37.924,78.461 37.730 C 78.671 37.347,78.979 36.242,79.117 35.373 C 79.165 35.075,79.270 34.789,79.352 34.739 C 79.433 34.688,79.500 34.468,79.500 34.250 C 79.500 34.032,79.575 33.807,79.667 33.750 C 79.758 33.693,79.833 33.501,79.833 33.323 C 79.833 33.146,79.908 33.000,80.000 33.000 C 80.092 33.000,80.167 33.188,80.167 33.417 C 80.167 33.646,80.242 33.833,80.333 33.833 C 80.425 33.833,80.500 34.058,80.500 34.333 C 80.500 34.608,80.575 34.833,80.667 34.833 C 80.758 34.833,80.833 34.981,80.833 35.162 C 80.833 35.342,80.967 35.736,81.131 36.037 C 81.295 36.337,81.418 36.752,81.404 36.958 C 81.390 37.165,81.434 37.333,81.501 37.333 C 81.647 37.333,82.023 38.631,82.286 40.042 C 82.333 40.294,82.438 40.500,82.519 40.500 C 82.600 40.500,82.667 40.721,82.667 40.990 C 82.667 41.260,82.742 41.527,82.833 41.583 C 82.925 41.640,83.000 41.832,83.000 42.010 C 83.000 42.188,83.075 42.333,83.167 42.333 C 83.258 42.333,83.333 42.558,83.333 42.833 C 83.333 43.108,83.408 43.333,83.500 43.333 C 83.592 43.333,83.667 43.516,83.667 43.740 C 83.667 43.964,83.738 44.191,83.826 44.246 C 83.914 44.300,83.946 44.447,83.898 44.572 C 83.850 44.697,83.891 44.849,83.989 44.910 C 84.087 44.970,84.167 45.203,84.167 45.427 C 84.167 45.650,84.242 45.833,84.333 45.833 C 84.425 45.833,84.500 45.977,84.500 46.153 C 84.500 46.329,84.650 46.822,84.833 47.250 C 85.017 47.678,85.167 48.242,85.167 48.504 C 85.167 48.766,85.242 49.027,85.333 49.083 C 85.425 49.140,85.500 49.332,85.500 49.510 C 85.500 49.688,85.559 49.833,85.631 49.833 C 85.703 49.833,85.781 50.077,85.803 50.375 C 85.826 50.673,85.917 50.942,86.005 50.972 C 86.094 51.003,86.167 51.167,86.167 51.337 C 86.167 51.508,86.247 51.697,86.345 51.757 C 86.443 51.818,86.483 51.970,86.435 52.095 C 86.387 52.220,86.453 52.526,86.582 52.775 C 86.711 53.023,86.778 53.288,86.732 53.363 C 86.685 53.438,86.726 53.500,86.823 53.500 C 86.921 53.500,87.000 53.725,87.000 54.000 C 87.000 54.275,87.075 54.500,87.167 54.500 C 87.258 54.500,87.333 54.650,87.333 54.833 C 87.333 55.017,87.392 55.167,87.465 55.167 C 87.537 55.167,87.614 55.410,87.637 55.708 C 87.659 56.006,87.750 56.275,87.839 56.306 C 87.927 56.336,88.000 56.499,88.000 56.667 C 88.000 56.835,88.072 56.997,88.159 57.028 C 88.247 57.058,88.337 57.360,88.359 57.698 C 88.382 58.035,88.460 58.275,88.533 58.229 C 88.607 58.184,88.667 58.447,88.667 58.814 C 88.667 59.180,88.735 59.523,88.819 59.574 C 88.903 59.626,89.022 59.968,89.083 60.334 C 89.145 60.700,89.264 61.000,89.348 61.000 C 89.432 61.000,89.500 61.183,89.500 61.407 C 89.500 61.631,89.575 61.860,89.667 61.917 C 89.758 61.973,89.833 62.240,89.833 62.510 C 89.833 62.779,89.908 63.000,90.000 63.000 C 90.092 63.000,90.167 63.188,90.167 63.417 C 90.167 63.646,90.242 63.833,90.333 63.833 C 90.425 63.833,90.500 64.008,90.500 64.222 C 90.500 64.436,90.550 64.661,90.611 64.722 C 90.773 64.884,91.324 66.500,91.217 66.500 C 91.167 66.500,91.216 66.609,91.327 66.743 C 91.438 66.876,91.480 67.064,91.421 67.159 C 91.362 67.255,91.401 67.333,91.508 67.333 C 91.615 67.333,91.662 67.437,91.614 67.564 C 91.565 67.691,91.616 67.935,91.726 68.106 C 91.836 68.277,91.950 68.642,91.979 68.917 C 92.008 69.192,92.099 69.442,92.182 69.472 C 92.265 69.503,92.333 69.747,92.333 70.014 C 92.333 70.281,92.408 70.500,92.500 70.500 C 92.592 70.500,92.667 70.688,92.667 70.917 C 92.667 71.146,92.742 71.333,92.833 71.333 C 92.925 71.333,93.000 71.558,93.000 71.833 C 93.000 72.108,93.075 72.333,93.167 72.333 C 93.258 72.333,93.333 72.521,93.333 72.750 C 93.333 72.979,93.408 73.167,93.500 73.167 C 93.592 73.167,93.667 73.259,93.667 73.371 C 93.667 73.762,95.018 74.833,95.511 74.833 C 95.769 74.833,96.027 74.908,96.083 75.000 C 96.140 75.092,96.519 75.167,96.927 75.167 C 97.334 75.167,97.667 75.092,97.667 75.000 C 97.667 74.908,97.962 74.833,98.323 74.833 C 98.685 74.833,99.027 74.758,99.083 74.667 C 99.140 74.575,99.332 74.500,99.510 74.500 C 99.688 74.500,99.833 74.425,99.833 74.333 C 99.833 74.242,99.983 74.167,100.167 74.167 C 100.350 74.167,100.500 74.092,100.500 74.000 C 100.500 73.908,100.594 73.832,100.708 73.831 C 100.984 73.827,101.902 72.983,101.972 72.668 C 102.002 72.532,102.104 72.372,102.198 72.314 C 102.431 72.170,102.415 69.153,102.181 69.009 C 102.082 68.948,101.985 68.701,101.965 68.461 C 101.946 68.221,101.870 68.061,101.798 68.105 C 101.726 68.150,101.667 67.957,101.667 67.677 C 101.667 67.396,101.592 67.167,101.500 67.167 C 101.408 67.167,101.333 67.033,101.333 66.870 C 101.333 66.706,101.216 66.163,101.073 65.661 C 100.930 65.160,100.813 64.619,100.813 64.458 C 100.813 64.298,100.742 64.167,100.656 64.167 C 100.570 64.167,100.500 64.013,100.500 63.825 C 100.500 63.638,100.350 63.173,100.167 62.794 C 99.983 62.415,99.833 61.973,99.833 61.812 C 99.833 61.651,99.758 61.473,99.667 61.417 C 99.575 61.360,99.500 61.131,99.500 60.907 C 99.500 60.683,99.425 60.500,99.333 60.500 C 99.242 60.500,99.167 60.271,99.167 59.990 C 99.167 59.693,99.097 59.523,99.000 59.583 C 98.905 59.642,98.833 59.499,98.833 59.252 C 98.833 59.012,98.719 58.596,98.580 58.327 C 98.441 58.057,98.331 57.798,98.336 57.750 C 98.369 57.454,97.909 55.667,97.800 55.667 C 97.727 55.667,97.667 55.484,97.667 55.260 C 97.667 55.036,97.592 54.807,97.500 54.750 C 97.408 54.693,97.333 54.459,97.333 54.230 C 97.333 53.995,97.261 53.858,97.167 53.917 C 97.069 53.977,97.000 53.807,97.000 53.510 C 97.000 53.229,96.925 53.000,96.833 53.000 C 96.742 53.000,96.667 52.775,96.667 52.500 C 96.667 52.225,96.601 52.000,96.521 52.000 C 96.441 52.000,96.317 51.681,96.246 51.292 C 96.174 50.902,96.102 50.546,96.086 50.500 C 96.069 50.454,95.961 50.192,95.846 49.917 C 95.731 49.642,95.597 49.173,95.547 48.875 C 95.497 48.577,95.391 48.333,95.312 48.333 C 95.232 48.333,95.167 48.152,95.167 47.931 C 95.167 47.709,95.084 47.500,94.983 47.467 C 94.882 47.433,94.800 47.127,94.800 46.787 C 94.800 46.446,94.732 46.209,94.650 46.260 C 94.567 46.311,94.500 46.124,94.500 45.843 C 94.500 45.563,94.425 45.333,94.333 45.333 C 94.242 45.333,94.167 45.108,94.167 44.833 C 94.167 44.558,94.092 44.333,94.000 44.333 C 93.908 44.333,93.833 44.158,93.833 43.944 C 93.833 43.731,93.777 43.499,93.708 43.431 C 93.640 43.362,93.577 43.256,93.570 43.194 C 93.528 42.850,93.274 42.018,93.080 41.590 C 92.957 41.319,92.893 41.038,92.938 40.965 C 92.983 40.893,92.940 40.833,92.843 40.833 C 92.746 40.833,92.667 40.608,92.667 40.333 C 92.667 40.058,92.592 39.833,92.500 39.833 C 92.408 39.833,92.333 39.683,92.333 39.500 C 92.333 39.317,92.258 39.167,92.167 39.167 C 92.075 39.167,92.000 38.871,92.000 38.510 C 92.000 38.149,91.925 37.807,91.833 37.750 C 91.742 37.693,91.667 37.464,91.667 37.240 C 91.667 37.016,91.592 36.833,91.500 36.833 C 91.408 36.833,91.333 36.608,91.333 36.333 C 91.333 36.058,91.265 35.833,91.181 35.833 C 91.098 35.833,91.050 35.702,91.074 35.542 C 91.099 35.381,91.057 35.210,90.982 35.160 C 90.906 35.111,90.826 34.829,90.803 34.535 C 90.781 34.241,90.703 34.000,90.631 34.000 C 90.559 34.000,90.500 33.854,90.500 33.677 C 90.500 33.499,90.425 33.307,90.333 33.250 C 90.242 33.193,90.167 32.978,90.167 32.771 C 90.167 32.565,90.017 32.085,89.833 31.706 C 89.650 31.327,89.500 30.900,89.500 30.758 C 89.500 30.616,89.425 30.500,89.333 30.500 C 89.242 30.500,89.167 30.311,89.167 30.081 C 89.167 29.851,89.093 29.532,89.004 29.373 C 88.914 29.214,88.752 28.746,88.642 28.333 C 88.533 27.921,88.414 27.471,88.377 27.333 C 88.340 27.196,88.310 26.952,88.311 26.792 C 88.312 26.631,88.242 26.500,88.156 26.500 C 88.070 26.500,88.000 26.350,88.000 26.167 C 88.000 25.983,87.925 25.833,87.833 25.833 C 87.742 25.833,87.667 25.715,87.667 25.570 C 87.667 25.328,86.449 24.018,86.195 23.986 C 86.133 23.978,85.896 23.933,85.667 23.885 C 84.415 23.624,81.777 23.914,81.498 24.342 C 81.452 24.414,81.304 24.498,81.169 24.528 C 81.035 24.559,80.824 24.677,80.701 24.791 C 80.310 25.155,79.698 25.222,79.409 24.932 C 79.069 24.593,77.463 23.853,77.057 23.849 C 76.888 23.847,76.375 23.806,75.917 23.759 C 75.458 23.711,74.933 23.736,74.750 23.815 M133.000 23.985 C 133.000 24.063,132.785 24.215,132.522 24.324 C 132.260 24.433,131.941 24.723,131.814 24.969 C 131.688 25.215,131.510 25.469,131.420 25.534 C 131.167 25.714,131.097 29.238,131.329 30.068 C 131.560 30.892,132.161 31.667,132.571 31.667 C 132.749 31.667,132.809 31.743,132.733 31.875 C 132.667 31.990,132.672 32.030,132.744 31.965 C 132.817 31.900,133.138 31.956,133.458 32.090 C 134.125 32.369,134.365 32.403,134.000 32.167 C 133.850 32.070,133.829 32.004,133.948 32.003 C 134.058 32.001,134.193 32.075,134.250 32.167 C 134.315 32.272,136.280 32.333,139.593 32.333 C 144.722 32.333,144.833 32.340,144.833 32.667 C 144.833 32.850,144.754 33.000,144.657 33.000 C 144.560 33.000,144.516 33.058,144.560 33.128 C 144.603 33.199,144.499 33.555,144.328 33.920 C 144.157 34.285,143.924 34.940,143.810 35.375 C 143.697 35.810,143.543 36.167,143.468 36.167 C 143.394 36.167,143.333 36.279,143.333 36.417 C 143.333 36.554,143.258 36.667,143.167 36.667 C 143.075 36.667,143.000 36.764,143.000 36.883 C 143.000 37.190,142.608 37.997,142.458 37.999 C 142.390 37.999,142.333 38.146,142.333 38.323 C 142.333 38.501,142.258 38.693,142.167 38.750 C 142.075 38.807,142.000 39.036,142.000 39.260 C 142.000 39.484,141.943 39.667,141.872 39.667 C 141.724 39.667,141.167 41.166,141.167 41.564 C 141.167 41.712,141.092 41.833,141.000 41.833 C 140.908 41.833,140.833 41.979,140.833 42.157 C 140.833 42.335,140.758 42.527,140.667 42.583 C 140.575 42.640,140.500 42.832,140.500 43.010 C 140.500 43.188,140.425 43.333,140.333 43.333 C 140.242 43.333,140.167 43.483,140.167 43.667 C 140.167 43.850,140.110 44.001,140.042 44.001 C 139.873 44.003,139.500 44.827,139.500 45.200 C 139.500 45.365,139.425 45.500,139.333 45.500 C 139.242 45.500,139.167 45.646,139.167 45.823 C 139.167 46.001,139.087 46.197,138.989 46.257 C 138.891 46.318,138.851 46.472,138.900 46.600 C 138.949 46.728,138.917 46.833,138.828 46.833 C 138.739 46.833,138.667 46.983,138.667 47.167 C 138.667 47.350,138.592 47.500,138.500 47.500 C 138.408 47.500,138.333 47.683,138.333 47.907 C 138.333 48.131,138.258 48.360,138.167 48.417 C 138.075 48.473,138.000 48.665,138.000 48.843 C 138.000 49.021,137.925 49.167,137.833 49.167 C 137.742 49.167,137.667 49.317,137.667 49.500 C 137.667 49.683,137.592 49.833,137.500 49.833 C 137.408 49.833,137.333 50.016,137.333 50.240 C 137.333 50.464,137.258 50.693,137.167 50.750 C 137.075 50.807,137.000 50.999,137.000 51.177 C 137.000 51.354,136.921 51.500,136.823 51.500 C 136.726 51.500,136.688 51.567,136.738 51.648 C 136.789 51.729,136.715 51.891,136.574 52.008 C 136.433 52.125,136.357 52.321,136.404 52.443 C 136.451 52.566,136.417 52.667,136.328 52.667 C 136.239 52.667,136.167 52.892,136.167 53.167 C 136.167 53.442,136.106 53.667,136.031 53.667 C 135.837 53.667,135.167 54.971,135.167 55.349 C 135.167 55.524,135.104 55.667,135.028 55.667 C 134.951 55.667,134.883 55.760,134.877 55.875 C 134.856 56.220,134.429 57.241,134.250 57.372 C 134.158 57.440,134.148 57.496,134.228 57.497 C 134.307 57.499,134.249 57.688,134.099 57.917 C 133.949 58.146,133.860 58.333,133.903 58.333 C 133.945 58.333,133.727 58.836,133.418 59.450 C 133.108 60.065,132.892 60.627,132.938 60.700 C 132.983 60.774,132.940 60.833,132.843 60.833 C 132.746 60.833,132.667 60.983,132.667 61.167 C 132.667 61.350,132.585 61.500,132.486 61.500 C 132.387 61.500,132.340 61.594,132.381 61.708 C 132.423 61.823,132.368 62.029,132.259 62.167 C 132.150 62.304,131.852 62.979,131.596 63.667 C 130.909 65.512,130.765 65.833,130.626 65.833 C 130.557 65.833,130.500 65.947,130.500 66.086 C 130.500 66.224,130.430 66.468,130.344 66.627 C 130.259 66.786,130.090 67.160,129.970 67.458 C 129.850 67.756,129.708 68.000,129.654 68.000 C 129.600 68.000,129.555 68.094,129.554 68.208 C 129.553 68.323,129.383 68.951,129.176 69.605 C 128.882 70.533,128.840 70.868,128.983 71.135 C 129.084 71.324,129.167 71.633,129.167 71.822 C 129.167 72.012,129.242 72.167,129.333 72.167 C 129.425 72.167,129.500 72.271,129.500 72.398 C 129.500 72.685,130.663 73.833,130.953 73.833 C 131.071 73.833,131.167 73.890,131.168 73.958 C 131.170 74.125,131.992 74.500,132.357 74.500 C 132.516 74.500,132.693 74.575,132.750 74.667 C 132.869 74.859,136.333 74.899,136.333 74.707 C 136.333 74.638,136.558 74.482,136.833 74.360 C 137.108 74.238,137.333 74.033,137.333 73.903 C 137.333 73.773,137.408 73.667,137.500 73.667 C 137.592 73.667,137.667 73.554,137.667 73.417 C 137.667 73.279,137.742 73.167,137.833 73.167 C 137.925 73.167,138.000 73.054,138.000 72.917 C 138.000 72.779,138.075 72.667,138.167 72.667 C 138.258 72.667,138.333 72.521,138.333 72.343 C 138.333 72.165,138.403 71.977,138.487 71.925 C 138.572 71.872,138.690 71.605,138.750 71.331 C 138.811 71.057,138.929 70.833,139.013 70.833 C 139.098 70.833,139.167 70.646,139.167 70.417 C 139.167 70.188,139.242 70.000,139.333 70.000 C 139.425 70.000,139.500 69.887,139.500 69.750 C 139.500 69.612,139.559 69.500,139.630 69.500 C 139.702 69.500,139.778 69.294,139.798 69.042 C 139.819 68.790,139.911 68.558,140.001 68.528 C 140.092 68.497,140.167 68.392,140.167 68.294 C 140.167 68.196,140.357 67.712,140.590 67.220 C 140.823 66.727,140.969 66.251,140.914 66.162 C 140.859 66.073,140.890 66.000,140.983 66.000 C 141.076 66.000,141.201 65.737,141.261 65.417 C 141.321 65.096,141.437 64.833,141.519 64.833 C 141.600 64.833,141.667 64.683,141.667 64.500 C 141.667 64.317,141.742 64.167,141.833 64.167 C 141.925 64.167,142.000 64.017,142.000 63.833 C 142.000 63.650,142.075 63.500,142.167 63.500 C 142.258 63.500,142.333 63.357,142.333 63.182 C 142.333 62.842,143.001 61.453,143.208 61.361 C 143.277 61.331,143.333 61.087,143.333 60.819 C 143.333 60.552,143.416 60.333,143.518 60.333 C 143.619 60.333,143.658 60.217,143.603 60.075 C 143.548 59.932,143.565 59.854,143.640 59.900 C 143.716 59.947,143.878 59.613,144.002 59.159 C 144.126 58.705,144.288 58.333,144.363 58.333 C 144.439 58.333,144.500 58.188,144.500 58.010 C 144.500 57.832,144.575 57.640,144.667 57.583 C 144.758 57.527,144.833 57.297,144.833 57.073 C 144.833 56.850,144.908 56.667,145.000 56.667 C 145.092 56.667,145.167 56.517,145.167 56.333 C 145.167 56.150,145.223 56.000,145.293 56.000 C 145.407 56.000,145.538 55.740,145.924 54.750 C 145.996 54.567,146.071 54.379,146.091 54.333 C 146.112 54.288,146.183 54.081,146.250 53.875 C 146.317 53.669,146.422 53.500,146.483 53.500 C 146.544 53.500,146.611 53.294,146.632 53.042 C 146.653 52.790,146.744 52.558,146.835 52.528 C 146.926 52.497,147.000 52.380,147.000 52.267 C 147.000 52.155,147.140 51.767,147.312 51.406 C 147.484 51.045,147.724 50.469,147.846 50.125 C 147.967 49.781,148.127 49.500,148.200 49.500 C 148.273 49.500,148.336 49.369,148.339 49.208 C 148.341 49.048,148.528 48.542,148.754 48.083 C 148.979 47.625,149.164 47.119,149.165 46.958 C 149.166 46.798,149.242 46.667,149.333 46.667 C 149.425 46.667,149.500 46.517,149.500 46.333 C 149.500 46.150,149.575 46.000,149.667 46.000 C 149.758 46.000,149.833 45.850,149.833 45.667 C 149.833 45.483,149.893 45.333,149.966 45.333 C 150.038 45.333,150.169 45.095,150.257 44.803 C 150.451 44.157,150.831 43.977,150.839 44.528 C 150.842 44.742,150.952 45.059,151.083 45.233 C 151.215 45.407,151.283 45.613,151.235 45.691 C 151.187 45.769,151.231 45.833,151.333 45.833 C 151.436 45.833,151.474 45.907,151.418 45.998 C 151.314 46.166,152.316 48.372,152.542 48.472 C 152.610 48.503,152.667 48.672,152.667 48.847 C 152.667 49.023,152.742 49.167,152.833 49.167 C 152.925 49.167,153.000 49.354,153.000 49.583 C 153.000 49.813,153.057 50.000,153.126 50.000 C 153.289 50.000,153.678 50.880,153.712 51.324 C 153.726 51.512,153.797 51.667,153.869 51.667 C 153.941 51.667,153.990 51.723,153.978 51.792 C 153.928 52.069,154.218 53.000,154.354 53.000 C 154.434 53.000,154.500 53.188,154.500 53.417 C 154.500 53.646,154.575 53.833,154.667 53.833 C 154.758 53.833,154.833 53.983,154.833 54.167 C 154.833 54.350,154.896 54.500,154.973 54.500 C 155.050 54.500,155.212 54.800,155.333 55.167 C 155.454 55.533,155.616 55.833,155.693 55.833 C 155.770 55.833,155.833 56.021,155.833 56.250 C 155.833 56.479,155.908 56.667,156.000 56.667 C 156.092 56.667,156.167 56.812,156.167 56.990 C 156.167 57.168,156.243 57.361,156.336 57.418 C 156.429 57.476,156.465 57.588,156.417 57.667 C 156.368 57.746,156.404 57.857,156.497 57.915 C 156.590 57.973,156.667 58.198,156.667 58.417 C 156.667 58.635,156.742 58.860,156.833 58.917 C 156.925 58.973,157.002 59.146,157.004 59.302 C 157.006 59.457,157.154 59.771,157.333 60.000 C 157.513 60.229,157.661 60.548,157.663 60.708 C 157.665 60.869,157.742 61.000,157.833 61.000 C 157.925 61.000,158.000 61.150,158.000 61.333 C 158.000 61.517,158.075 61.667,158.167 61.667 C 158.258 61.667,158.333 61.850,158.333 62.073 C 158.333 62.297,158.400 62.521,158.481 62.572 C 158.562 62.622,158.678 62.926,158.739 63.248 C 158.799 63.570,158.904 63.833,158.971 63.833 C 159.039 63.833,159.193 64.170,159.315 64.582 C 159.437 64.994,159.603 65.289,159.685 65.239 C 159.766 65.188,159.843 65.301,159.854 65.490 C 159.888 66.041,159.910 66.132,160.042 66.264 C 160.110 66.333,160.167 66.526,160.167 66.694 C 160.167 66.862,160.223 67.001,160.292 67.001 C 160.461 67.003,160.833 67.827,160.833 68.200 C 160.833 68.365,160.908 68.500,161.000 68.500 C 161.092 68.500,161.167 68.650,161.167 68.833 C 161.167 69.017,161.245 69.167,161.341 69.167 C 161.436 69.167,161.498 69.260,161.477 69.375 C 161.456 69.490,161.565 69.874,161.719 70.229 C 161.874 70.584,162.000 70.940,162.000 71.020 C 162.000 71.101,162.075 71.167,162.167 71.167 C 162.258 71.167,162.333 71.317,162.333 71.500 C 162.333 71.683,162.408 71.833,162.500 71.833 C 162.592 71.833,162.667 72.004,162.667 72.213 C 162.667 72.422,162.817 72.701,163.000 72.833 C 163.183 72.965,163.333 73.211,163.333 73.380 C 163.333 73.548,163.393 73.650,163.465 73.605 C 163.537 73.560,163.744 73.743,163.923 74.011 C 164.103 74.280,164.375 74.499,164.528 74.500 C 164.681 74.500,164.834 74.584,164.868 74.687 C 164.950 74.934,168.387 74.922,168.469 74.675 C 168.502 74.579,168.747 74.500,169.014 74.500 C 169.281 74.500,169.500 74.425,169.500 74.333 C 169.500 74.242,169.608 74.167,169.740 74.167 C 170.073 74.167,171.667 72.610,171.667 72.285 C 171.667 72.139,171.747 71.970,171.844 71.910 C 172.083 71.763,171.996 69.864,171.728 69.347 C 171.612 69.123,171.555 68.879,171.602 68.804 C 171.648 68.728,171.607 68.667,171.510 68.667 C 171.413 68.667,171.333 68.517,171.333 68.333 C 171.333 68.150,171.275 68.000,171.203 68.000 C 171.131 68.000,171.056 67.801,171.036 67.559 C 171.016 67.316,170.925 67.028,170.835 66.918 C 170.744 66.809,170.719 66.670,170.779 66.610 C 170.840 66.549,170.801 66.500,170.694 66.500 C 170.588 66.500,170.500 66.350,170.500 66.167 C 170.500 65.983,170.432 65.833,170.349 65.833 C 170.266 65.833,170.101 65.458,169.984 65.000 C 169.866 64.542,169.721 64.167,169.662 64.167 C 169.602 64.167,169.451 63.848,169.325 63.458 C 169.200 63.069,169.057 62.712,169.007 62.667 C 168.889 62.558,168.314 60.979,168.293 60.708 C 168.285 60.594,168.215 60.500,168.139 60.500 C 168.063 60.500,168.000 60.350,168.000 60.167 C 168.000 59.983,167.925 59.833,167.833 59.833 C 167.742 59.833,167.667 59.690,167.667 59.514 C 167.667 59.338,167.607 59.169,167.534 59.139 C 167.330 59.054,166.667 57.547,166.667 57.168 C 166.667 56.984,166.605 56.833,166.530 56.833 C 166.425 56.833,165.823 55.277,165.757 54.833 C 165.750 54.788,165.472 54.188,165.139 53.500 C 164.806 52.813,164.433 52.006,164.310 51.708 C 164.186 51.410,164.038 51.167,163.980 51.167 C 163.895 51.167,163.695 50.535,163.602 49.972 C 163.592 49.911,163.527 49.805,163.458 49.736 C 163.390 49.667,163.333 49.474,163.333 49.306 C 163.333 49.138,163.258 49.000,163.167 49.000 C 163.075 49.000,163.000 48.850,163.000 48.667 C 163.000 48.483,162.941 48.333,162.870 48.333 C 162.798 48.333,162.723 48.139,162.704 47.902 C 162.684 47.664,162.518 47.259,162.334 47.001 C 162.150 46.743,162.000 46.375,162.000 46.183 C 162.000 45.991,161.943 45.833,161.874 45.833 C 161.754 45.833,161.592 45.491,161.083 44.167 C 160.575 42.843,160.412 42.500,160.293 42.500 C 160.223 42.500,160.165 42.294,160.163 42.042 C 160.161 41.790,160.013 41.396,159.833 41.167 C 159.654 40.938,159.506 40.581,159.504 40.375 C 159.502 40.169,159.425 40.000,159.333 40.000 C 159.242 40.000,159.167 39.896,159.167 39.769 C 159.167 39.642,159.055 39.323,158.918 39.061 C 158.781 38.798,158.668 38.452,158.668 38.292 C 158.667 38.131,158.592 38.000,158.500 38.000 C 158.408 38.000,158.333 37.869,158.332 37.708 C 158.332 37.548,158.182 37.192,158.000 36.917 C 157.818 36.642,157.668 36.285,157.668 36.125 C 157.667 35.965,157.592 35.833,157.500 35.833 C 157.408 35.833,157.333 35.723,157.333 35.588 C 157.333 35.454,157.183 35.076,157.000 34.750 C 156.817 34.424,156.667 34.045,156.667 33.909 C 156.667 33.773,156.597 33.532,156.512 33.373 C 156.101 32.602,155.949 31.917,156.244 32.162 C 156.734 32.569,168.494 32.228,168.238 31.815 C 168.188 31.733,168.269 31.667,168.419 31.667 C 168.925 31.667,169.540 30.805,169.913 29.573 C 170.214 28.583,170.210 28.620,169.983 28.760 C 169.861 28.836,169.866 28.750,169.999 28.503 C 170.120 28.276,170.152 27.895,170.082 27.524 C 170.019 27.190,169.934 26.655,169.894 26.335 C 169.853 26.015,169.748 25.682,169.660 25.593 C 169.572 25.505,169.500 25.332,169.500 25.209 C 169.500 24.957,168.918 24.357,168.370 24.043 C 167.944 23.799,133.000 23.742,133.000 23.985 M119.167 42.833 C 119.167 42.925,118.979 43.000,118.750 43.000 C 118.521 43.000,118.333 43.057,118.333 43.126 C 118.333 43.195,118.117 43.348,117.853 43.464 C 117.589 43.581,117.158 43.862,116.895 44.088 C 116.632 44.314,116.356 44.500,116.282 44.500 C 116.208 44.500,116.193 44.575,116.250 44.667 C 116.307 44.758,116.269 44.833,116.167 44.833 C 116.064 44.833,116.018 44.895,116.065 44.970 C 116.111 45.045,116.003 45.211,115.824 45.340 C 115.646 45.468,115.500 45.703,115.500 45.860 C 115.500 46.018,115.425 46.193,115.333 46.250 C 115.242 46.307,115.167 46.499,115.167 46.677 C 115.167 46.854,115.100 47.000,115.019 47.000 C 114.806 47.000,114.781 50.448,114.994 50.579 C 115.089 50.638,115.167 50.832,115.167 51.010 C 115.167 51.188,115.242 51.333,115.333 51.333 C 115.425 51.333,115.500 51.437,115.500 51.563 C 115.500 51.690,115.800 52.102,116.166 52.480 C 116.533 52.858,116.777 53.168,116.708 53.170 C 116.448 53.178,117.431 53.826,117.708 53.830 C 117.869 53.832,118.000 53.908,118.000 54.000 C 118.000 54.092,118.150 54.167,118.333 54.167 C 118.517 54.167,118.667 54.242,118.667 54.333 C 118.667 54.425,118.939 54.500,119.272 54.500 C 119.605 54.500,120.175 54.589,120.537 54.697 C 121.045 54.850,121.269 54.850,121.513 54.697 C 121.687 54.589,122.092 54.500,122.414 54.500 C 122.736 54.500,123.000 54.425,123.000 54.333 C 123.000 54.242,123.192 54.167,123.427 54.167 C 123.661 54.167,123.810 54.098,123.758 54.014 C 123.706 53.929,123.871 53.814,124.124 53.757 C 124.979 53.565,126.333 52.012,126.333 51.224 C 126.333 51.101,126.408 51.000,126.500 51.000 C 126.592 51.000,126.667 50.700,126.667 50.333 C 126.667 49.967,126.742 49.667,126.833 49.667 C 127.062 49.667,127.045 48.048,126.816 47.906 C 126.687 47.826,126.700 47.748,126.857 47.648 C 127.024 47.543,127.028 47.504,126.875 47.503 C 126.760 47.501,126.667 47.309,126.667 47.075 C 126.667 46.841,126.552 46.429,126.412 46.158 C 126.273 45.888,126.197 45.667,126.244 45.667 C 126.587 45.667,124.649 43.761,124.026 43.485 C 123.737 43.357,123.500 43.195,123.500 43.126 C 123.500 43.057,123.317 43.000,123.093 43.000 C 122.869 43.000,122.640 42.925,122.583 42.833 C 122.526 42.740,121.748 42.667,120.823 42.667 C 119.830 42.667,119.167 42.733,119.167 42.833 M190.167 42.833 C 190.167 42.925,190.016 43.000,189.831 43.000 C 189.436 43.000,188.861 43.301,188.485 43.705 C 188.337 43.864,188.168 43.945,188.108 43.886 C 188.049 43.826,188.000 43.865,188.000 43.972 C 188.000 44.079,187.892 44.167,187.759 44.167 C 187.627 44.167,187.386 44.392,187.223 44.667 C 187.061 44.942,186.874 45.167,186.809 45.167 C 186.678 45.167,186.414 45.841,186.467 46.042 C 186.485 46.110,186.425 46.167,186.333 46.167 C 186.242 46.167,186.167 46.354,186.167 46.583 C 186.167 46.813,186.092 47.000,186.000 47.000 C 185.900 47.000,185.833 47.691,185.833 48.740 C 185.833 49.720,185.906 50.525,186.000 50.583 C 186.092 50.640,186.167 50.823,186.167 50.989 C 186.167 51.156,186.279 51.386,186.417 51.500 C 186.554 51.614,186.667 51.814,186.667 51.944 C 186.667 52.074,186.967 52.458,187.335 52.798 C 188.351 53.739,188.472 53.833,188.660 53.833 C 188.755 53.833,188.833 53.908,188.833 54.000 C 188.833 54.092,188.979 54.167,189.157 54.167 C 189.335 54.167,189.527 54.242,189.583 54.333 C 189.640 54.425,190.015 54.500,190.417 54.500 C 190.818 54.500,191.193 54.575,191.250 54.667 C 191.307 54.758,191.569 54.833,191.833 54.833 C 192.098 54.833,192.360 54.758,192.417 54.667 C 192.473 54.575,192.815 54.500,193.177 54.500 C 193.538 54.500,193.833 54.425,193.833 54.333 C 193.833 54.242,193.967 54.167,194.131 54.167 C 194.906 54.167,197.000 52.551,197.000 51.953 C 197.000 51.836,197.150 51.632,197.333 51.500 C 197.517 51.368,197.667 51.093,197.667 50.890 C 197.667 50.686,197.732 50.479,197.813 50.429 C 198.041 50.288,197.994 47.473,197.756 47.000 C 197.640 46.771,197.579 46.490,197.620 46.375 C 197.661 46.260,197.632 46.167,197.555 46.167 C 197.478 46.167,197.320 45.952,197.204 45.690 C 196.857 44.907,195.217 43.333,194.748 43.333 C 194.612 43.333,194.500 43.258,194.500 43.167 C 194.500 43.075,194.275 43.000,194.000 43.000 C 193.725 43.000,193.500 42.925,193.500 42.833 C 193.500 42.733,192.833 42.667,191.833 42.667 C 190.833 42.667,190.167 42.733,190.167 42.833 " stroke="none" fill="#dc8404" fill-rule="evenodd"></path><path id="path1" d="M328.333 22.194 C 328.333 22.271,328.115 22.333,327.849 22.333 C 326.840 22.333,325.762 23.072,325.207 24.142 L 324.832 24.868 324.834 53.767 C 324.836 72.704,324.894 82.667,325.002 82.667 C 325.093 82.667,325.167 82.817,325.167 83.000 C 325.167 83.183,325.242 83.333,325.333 83.333 C 325.425 83.333,325.500 83.412,325.500 83.508 C 325.500 83.811,326.304 84.500,326.659 84.500 C 326.847 84.500,327.000 84.575,327.000 84.667 C 327.000 84.758,327.225 84.833,327.500 84.833 C 327.775 84.833,328.000 84.908,328.000 85.000 C 328.000 85.100,328.667 85.167,329.667 85.167 C 330.667 85.167,331.333 85.100,331.333 85.000 C 331.333 84.908,331.558 84.833,331.833 84.833 C 332.108 84.833,332.333 84.758,332.333 84.667 C 332.333 84.575,332.451 84.500,332.595 84.500 C 332.865 84.500,333.465 84.009,333.220 83.988 C 333.145 83.982,333.233 83.918,333.417 83.846 C 333.600 83.775,333.759 83.630,333.771 83.525 C 333.782 83.420,333.801 83.254,333.813 83.157 C 333.824 83.060,333.908 83.027,334.000 83.083 C 334.099 83.145,334.167 82.946,334.167 82.593 C 334.167 82.267,334.242 82.000,334.333 82.000 C 334.444 82.000,334.500 72.417,334.500 53.583 C 334.500 34.750,334.444 25.167,334.333 25.167 C 334.242 25.167,334.167 24.979,334.167 24.750 C 334.167 24.521,334.092 24.333,334.000 24.333 C 333.908 24.333,333.833 24.196,333.833 24.029 C 333.833 23.695,333.179 23.000,332.864 23.000 C 332.756 23.000,332.667 22.921,332.667 22.823 C 332.667 22.726,332.600 22.688,332.519 22.738 C 332.438 22.789,332.278 22.718,332.165 22.581 C 332.052 22.445,331.758 22.333,331.513 22.333 C 331.267 22.333,330.966 22.240,330.842 22.125 C 330.660 21.956,330.644 21.963,330.758 22.167 C 330.876 22.378,330.856 22.383,330.629 22.199 C 330.334 21.960,328.333 21.956,328.333 22.194 M251.500 22.500 C 251.500 22.592,251.350 22.667,251.167 22.667 C 250.983 22.667,250.833 22.742,250.833 22.833 C 250.833 22.925,250.715 23.000,250.571 23.000 C 250.246 23.000,250.009 23.240,249.537 24.051 L 249.167 24.686 249.167 39.260 C 249.167 49.406,249.220 53.833,249.343 53.833 C 249.440 53.833,249.477 53.902,249.425 53.987 C 249.373 54.071,249.443 54.253,249.582 54.391 C 249.720 54.530,249.833 54.761,249.833 54.905 C 249.833 55.049,249.967 55.167,250.130 55.167 C 250.293 55.167,250.532 55.313,250.660 55.491 C 250.789 55.669,250.942 55.786,251.001 55.750 C 251.059 55.713,251.323 55.796,251.587 55.932 C 252.122 56.210,255.928 56.252,256.095 55.982 C 256.145 55.900,256.320 55.833,256.483 55.833 C 256.903 55.833,258.333 54.436,258.333 54.026 C 258.333 53.839,258.408 53.640,258.500 53.583 C 258.609 53.516,258.667 48.557,258.667 39.250 C 258.667 29.943,258.609 24.984,258.500 24.917 C 258.408 24.860,258.333 24.666,258.333 24.486 C 258.333 24.060,256.940 22.667,256.514 22.667 C 256.334 22.667,256.140 22.592,256.083 22.500 C 256.023 22.402,255.054 22.333,253.740 22.333 C 252.358 22.333,251.500 22.397,251.500 22.500 M294.500 23.167 C 294.500 23.258,294.162 23.333,293.750 23.333 C 293.337 23.333,293.000 23.400,293.000 23.482 C 293.000 23.563,292.756 23.670,292.458 23.720 C 291.530 23.873,290.420 24.237,289.956 24.542 C 289.712 24.702,289.431 24.833,289.332 24.833 C 289.234 24.833,288.992 24.983,288.795 25.167 C 288.598 25.350,288.339 25.500,288.219 25.500 C 288.098 25.500,288.000 25.575,288.000 25.667 C 288.000 25.758,287.888 25.833,287.751 25.833 C 287.615 25.833,287.409 25.983,287.295 26.167 C 287.180 26.350,287.015 26.500,286.927 26.500 C 286.758 26.500,284.501 28.807,284.499 28.981 C 284.499 29.037,284.236 29.369,283.916 29.718 C 283.595 30.066,283.333 30.460,283.333 30.593 C 283.333 30.725,283.258 30.833,283.167 30.833 C 283.075 30.833,283.000 30.950,283.000 31.093 C 283.000 31.236,282.925 31.307,282.833 31.250 C 282.742 31.193,282.667 31.230,282.667 31.330 C 282.667 31.431,282.517 31.675,282.333 31.872 C 282.030 32.197,281.920 32.517,281.984 32.887 C 281.998 32.963,281.935 32.980,281.846 32.924 C 281.757 32.869,281.634 33.089,281.573 33.412 C 281.513 33.735,281.396 34.000,281.315 34.000 C 281.233 34.000,281.167 34.188,281.167 34.417 C 281.167 34.646,281.092 34.833,281.000 34.833 C 280.908 34.833,280.833 34.983,280.833 35.167 C 280.833 35.350,280.758 35.500,280.667 35.500 C 280.575 35.500,280.500 35.725,280.500 36.000 C 280.500 36.275,280.425 36.500,280.333 36.500 C 280.242 36.500,280.167 36.612,280.167 36.750 C 280.167 36.887,280.092 37.000,280.000 37.000 C 279.908 37.000,279.833 37.225,279.833 37.500 C 279.833 37.775,279.767 38.000,279.686 38.000 C 279.547 38.000,279.487 38.202,279.229 39.542 C 279.172 39.840,279.069 40.158,279.002 40.250 C 278.934 40.342,278.908 40.617,278.943 40.863 C 278.979 41.108,278.931 41.356,278.837 41.414 C 278.743 41.472,278.667 41.928,278.667 42.427 C 278.667 42.925,278.592 43.333,278.500 43.333 C 278.403 43.333,278.333 43.889,278.333 44.667 C 278.333 45.473,278.265 46.000,278.161 46.000 C 277.941 46.000,277.959 52.788,278.179 52.924 C 278.264 52.977,278.333 53.578,278.333 54.260 C 278.333 54.976,278.404 55.500,278.500 55.500 C 278.592 55.500,278.667 55.913,278.667 56.417 C 278.667 56.921,278.732 57.333,278.813 57.333 C 278.893 57.333,278.940 57.560,278.916 57.836 C 278.893 58.112,278.940 58.379,279.020 58.429 C 279.101 58.479,279.167 58.679,279.167 58.873 C 279.167 59.248,279.444 60.225,279.687 60.706 C 279.768 60.865,279.833 61.146,279.833 61.331 C 279.833 61.516,279.908 61.667,280.000 61.667 C 280.092 61.667,280.167 61.817,280.167 62.000 C 280.167 62.183,280.242 62.333,280.333 62.333 C 280.425 62.333,280.500 62.479,280.500 62.657 C 280.500 62.835,280.575 63.027,280.667 63.083 C 280.758 63.140,280.833 63.332,280.833 63.510 C 280.833 63.688,280.908 63.833,281.000 63.833 C 281.092 63.833,281.167 64.021,281.167 64.250 C 281.167 64.479,281.242 64.667,281.333 64.667 C 281.425 64.667,281.500 64.777,281.500 64.911 C 281.500 65.260,282.034 66.333,282.207 66.333 C 282.287 66.333,282.310 66.402,282.258 66.487 C 282.206 66.571,282.277 66.753,282.415 66.891 C 282.553 67.030,282.667 67.214,282.667 67.301 C 282.667 67.388,282.973 67.775,283.347 68.161 C 283.721 68.546,283.985 68.904,283.932 68.957 C 283.880 69.009,284.062 69.265,284.335 69.527 C 284.609 69.789,284.833 70.061,284.833 70.132 C 284.833 70.298,286.581 72.000,286.752 72.000 C 286.823 72.000,287.081 72.210,287.326 72.466 C 287.798 72.960,289.183 73.833,289.495 73.833 C 289.597 73.833,289.842 73.983,290.038 74.167 C 290.235 74.350,290.570 74.500,290.781 74.500 C 290.993 74.500,291.167 74.575,291.167 74.667 C 291.167 74.758,291.354 74.833,291.583 74.833 C 291.813 74.833,292.000 74.908,292.000 75.000 C 292.000 75.092,292.221 75.167,292.490 75.167 C 292.760 75.167,293.027 75.242,293.083 75.333 C 293.140 75.425,293.557 75.500,294.010 75.500 C 294.463 75.500,294.833 75.571,294.833 75.657 C 294.833 75.748,295.686 75.813,296.833 75.810 C 297.933 75.808,298.833 75.737,298.833 75.653 C 298.833 75.569,299.279 75.500,299.823 75.500 C 300.368 75.500,300.860 75.425,300.917 75.333 C 300.973 75.242,301.240 75.167,301.510 75.167 C 301.779 75.167,302.000 75.092,302.000 75.000 C 302.000 74.908,302.225 74.833,302.500 74.833 C 302.775 74.833,303.000 74.758,303.000 74.667 C 303.000 74.575,303.154 74.500,303.343 74.500 C 303.532 74.500,303.640 74.425,303.583 74.333 C 303.527 74.242,303.635 74.167,303.823 74.167 C 304.012 74.167,304.167 74.092,304.167 74.000 C 304.167 73.908,304.298 73.828,304.458 73.821 C 304.619 73.814,304.975 73.665,305.250 73.490 C 305.525 73.314,305.862 73.117,306.000 73.052 C 306.137 72.987,306.601 72.574,307.031 72.134 C 307.460 71.693,307.881 71.333,307.966 71.333 C 308.051 71.333,308.262 71.139,308.435 70.901 C 308.608 70.663,308.975 70.231,309.250 69.941 C 310.035 69.113,310.775 68.113,310.904 67.706 C 310.969 67.501,311.092 67.333,311.178 67.333 C 311.263 67.333,311.333 67.183,311.333 67.000 C 311.333 66.817,311.408 66.667,311.500 66.667 C 311.592 66.667,311.667 66.533,311.667 66.370 C 311.667 66.207,311.817 65.965,312.000 65.833 C 312.183 65.701,312.333 65.422,312.333 65.213 C 312.333 65.004,312.408 64.833,312.500 64.833 C 312.592 64.833,312.667 64.683,312.667 64.500 C 312.667 64.317,312.742 64.167,312.833 64.167 C 312.925 64.167,313.000 64.032,313.000 63.867 C 313.000 63.702,313.069 63.495,313.152 63.408 C 313.236 63.321,313.330 63.063,313.361 62.833 C 313.391 62.604,313.510 62.318,313.625 62.196 C 313.740 62.075,313.833 61.719,313.833 61.405 C 313.833 61.090,313.908 60.833,314.000 60.833 C 314.092 60.833,314.167 60.608,314.167 60.333 C 314.167 60.058,314.242 59.833,314.333 59.833 C 314.425 59.833,314.500 59.529,314.500 59.157 C 314.500 58.748,314.566 58.521,314.667 58.583 C 314.764 58.643,314.833 58.474,314.833 58.177 C 314.833 57.896,314.908 57.667,315.000 57.667 C 315.092 57.667,315.167 57.259,315.167 56.760 C 315.167 56.261,315.242 55.807,315.333 55.750 C 315.425 55.693,315.500 55.139,315.500 54.518 C 315.500 53.897,315.556 53.333,315.625 53.264 C 315.796 53.093,315.807 45.500,315.636 45.500 C 315.561 45.500,315.500 44.938,315.500 44.250 C 315.500 43.528,315.430 43.000,315.333 43.000 C 315.242 43.000,315.167 42.587,315.167 42.083 C 315.167 41.579,315.092 41.167,315.000 41.167 C 314.908 41.167,314.833 40.867,314.833 40.500 C 314.833 40.133,314.758 39.833,314.667 39.833 C 314.575 39.833,314.500 39.571,314.500 39.250 C 314.500 38.929,314.425 38.667,314.333 38.667 C 314.242 38.667,314.167 38.442,314.167 38.167 C 314.167 37.892,314.092 37.667,314.000 37.667 C 313.908 37.667,313.833 37.478,313.833 37.247 C 313.833 37.016,313.646 36.365,313.417 35.801 C 313.188 35.237,313.000 34.676,313.000 34.555 C 313.000 34.433,312.925 34.333,312.833 34.333 C 312.742 34.333,312.667 34.183,312.667 34.000 C 312.667 33.817,312.592 33.667,312.500 33.667 C 312.408 33.667,312.333 33.517,312.333 33.333 C 312.333 33.150,312.258 33.000,312.167 33.000 C 312.075 33.000,312.000 32.867,312.000 32.703 C 312.000 32.540,311.850 32.299,311.667 32.167 C 311.483 32.035,311.333 31.828,311.333 31.707 C 311.333 31.435,310.857 30.673,310.463 30.314 C 310.300 30.166,310.167 29.917,310.167 29.762 C 310.167 29.607,310.092 29.527,310.000 29.583 C 309.908 29.640,309.833 29.567,309.833 29.421 C 309.833 29.275,309.590 28.902,309.292 28.593 C 308.994 28.284,308.441 27.705,308.063 27.307 C 307.222 26.422,306.486 25.839,306.208 25.836 C 306.094 25.834,306.000 25.758,306.000 25.667 C 306.000 25.575,305.894 25.500,305.764 25.500 C 305.634 25.500,305.503 25.438,305.472 25.361 C 305.365 25.092,303.570 24.231,302.500 23.935 C 301.904 23.770,301.286 23.567,301.127 23.484 C 300.968 23.401,300.537 23.333,300.169 23.333 C 299.801 23.333,299.500 23.258,299.500 23.167 C 299.500 23.063,298.556 23.000,297.000 23.000 C 295.444 23.000,294.500 23.063,294.500 23.167 M207.250 24.058 C 206.975 24.160,206.620 24.396,206.461 24.581 C 206.303 24.765,206.096 25.007,206.003 25.118 C 205.910 25.229,205.833 25.435,205.833 25.576 C 205.833 25.718,205.758 25.833,205.667 25.833 C 205.564 25.833,205.500 26.667,205.500 28.000 C 205.500 29.333,205.564 30.167,205.667 30.167 C 205.758 30.167,205.833 30.317,205.833 30.500 C 205.833 30.683,205.908 30.833,206.000 30.833 C 206.092 30.833,206.167 30.946,206.167 31.083 C 206.167 31.221,206.245 31.333,206.340 31.333 C 206.436 31.333,206.675 31.483,206.872 31.667 C 207.223 31.994,207.460 32.000,219.177 32.000 L 231.125 32.000 231.229 32.521 C 231.459 33.668,231.239 39.898,230.975 39.734 C 230.897 39.686,230.833 39.914,230.833 40.240 C 230.833 40.566,230.758 40.833,230.667 40.833 C 230.575 40.833,230.500 41.021,230.500 41.250 C 230.500 41.479,230.425 41.667,230.333 41.667 C 230.242 41.667,230.167 41.892,230.167 42.167 C 230.167 42.442,230.106 42.667,230.031 42.667 C 229.919 42.667,229.309 43.717,229.257 44.000 C 229.230 44.147,228.595 45.073,228.293 45.406 C 228.132 45.584,228.000 45.785,228.000 45.854 C 228.000 45.922,227.630 46.357,227.178 46.822 C 226.726 47.286,226.314 47.799,226.262 47.963 C 226.210 48.127,225.939 48.396,225.661 48.560 C 225.383 48.725,224.698 49.303,224.140 49.846 C 223.582 50.389,223.017 50.833,222.886 50.833 C 222.755 50.833,222.688 50.900,222.739 50.982 C 222.790 51.064,222.644 51.178,222.416 51.235 C 222.187 51.293,222.000 51.413,222.000 51.503 C 222.000 51.593,221.904 51.667,221.787 51.667 C 221.670 51.667,221.465 51.817,221.333 52.000 C 221.201 52.183,221.008 52.333,220.905 52.333 C 220.801 52.333,220.481 52.558,220.193 52.833 C 219.905 53.108,219.557 53.333,219.418 53.333 C 219.280 53.333,219.167 53.410,219.167 53.503 C 219.167 53.596,218.904 53.797,218.583 53.950 C 218.262 54.103,218.000 54.290,218.000 54.364 C 218.000 54.439,217.902 54.500,217.781 54.500 C 217.661 54.500,217.417 54.631,217.240 54.792 C 217.062 54.952,216.692 55.195,216.417 55.332 C 216.142 55.469,215.804 55.701,215.667 55.847 C 215.529 55.994,215.228 56.160,214.997 56.217 C 214.766 56.274,214.413 56.473,214.212 56.660 C 214.011 56.847,213.732 57.000,213.590 57.000 C 213.449 57.000,213.333 57.075,213.333 57.167 C 213.333 57.258,213.183 57.333,213.000 57.333 C 212.817 57.333,212.666 57.390,212.666 57.458 C 212.666 57.527,212.254 57.771,211.750 58.000 C 211.246 58.229,210.834 58.473,210.834 58.542 C 210.834 58.610,210.702 58.669,210.542 58.672 C 210.381 58.675,210.104 58.787,209.926 58.922 C 209.749 59.057,209.467 59.167,209.301 59.167 C 209.136 59.167,209.000 59.228,209.000 59.303 C 209.000 59.378,208.625 59.542,208.167 59.667 C 207.708 59.791,207.333 59.955,207.333 60.030 C 207.333 60.105,207.188 60.167,207.010 60.167 C 206.832 60.167,206.640 60.242,206.583 60.333 C 206.527 60.425,206.335 60.500,206.157 60.500 C 205.979 60.500,205.833 60.575,205.833 60.667 C 205.833 60.758,205.683 60.833,205.500 60.833 C 205.317 60.833,205.167 60.908,205.167 61.000 C 205.167 61.092,205.028 61.167,204.859 61.167 C 203.934 61.167,203.420 63.159,203.883 64.952 C 204.186 66.123,205.640 68.000,206.246 68.000 C 206.386 68.000,206.500 68.075,206.500 68.167 C 206.500 68.387,209.447 68.387,209.583 68.167 C 209.640 68.075,209.902 68.000,210.167 68.000 C 210.431 68.000,210.693 67.925,210.750 67.833 C 210.807 67.742,211.036 67.667,211.260 67.667 C 211.484 67.667,211.667 67.592,211.667 67.500 C 211.667 67.408,211.812 67.333,211.990 67.333 C 212.168 67.333,212.360 67.258,212.417 67.167 C 212.473 67.075,212.703 67.000,212.927 67.000 C 213.150 67.000,213.333 66.925,213.333 66.833 C 213.333 66.742,213.521 66.667,213.750 66.667 C 213.979 66.667,214.167 66.592,214.167 66.500 C 214.167 66.408,214.354 66.333,214.582 66.333 C 215.057 66.333,216.333 65.819,216.333 65.627 C 216.333 65.557,216.447 65.500,216.586 65.500 C 216.724 65.500,216.968 65.433,217.127 65.352 C 217.286 65.270,217.792 65.026,218.250 64.810 C 218.708 64.594,219.108 64.360,219.139 64.292 C 219.169 64.223,219.338 64.167,219.514 64.167 C 219.690 64.167,219.833 64.092,219.833 64.000 C 219.833 63.908,219.945 63.833,220.082 63.833 C 220.430 63.833,221.667 63.282,221.667 63.127 C 221.667 63.057,221.817 63.000,222.000 63.000 C 222.183 63.000,222.333 62.925,222.333 62.833 C 222.333 62.742,222.432 62.667,222.552 62.667 C 222.672 62.667,222.931 62.517,223.128 62.333 C 223.325 62.150,223.558 62.000,223.646 62.000 C 223.734 62.000,223.831 61.944,223.861 61.875 C 223.935 61.709,224.801 61.195,225.375 60.976 C 225.627 60.879,225.833 60.733,225.833 60.650 C 225.833 60.568,225.929 60.500,226.047 60.500 C 226.164 60.500,226.368 60.350,226.500 60.167 C 226.632 59.983,226.825 59.833,226.929 59.833 C 227.032 59.833,227.353 59.608,227.640 59.333 C 227.928 59.058,228.239 58.833,228.332 58.833 C 228.424 58.833,228.500 58.758,228.500 58.667 C 228.500 58.575,228.579 58.500,228.676 58.500 C 228.856 58.500,228.354 59.537,228.125 59.639 C 228.056 59.669,228.000 60.063,228.000 60.514 C 228.000 60.965,227.924 61.333,227.831 61.333 C 227.719 61.333,227.665 65.150,227.669 72.750 C 227.673 80.039,227.734 84.167,227.838 84.167 C 227.927 84.167,228.000 84.542,228.000 85.000 C 228.000 85.458,228.075 85.833,228.167 85.833 C 228.258 85.833,228.333 85.946,228.333 86.083 C 228.333 86.221,228.408 86.333,228.500 86.333 C 228.592 86.333,228.669 86.465,228.672 86.625 C 228.680 87.017,229.239 87.667,229.568 87.667 C 229.714 87.667,229.833 87.742,229.833 87.833 C 229.833 87.925,229.979 88.000,230.157 88.000 C 230.335 88.000,230.527 88.075,230.583 88.167 C 230.705 88.364,272.000 88.405,272.000 88.207 C 272.000 88.138,272.225 87.982,272.501 87.860 C 272.776 87.738,272.960 87.569,272.908 87.486 C 272.856 87.402,272.879 87.333,272.959 87.333 C 273.584 87.333,273.975 83.218,273.462 82.050 C 273.171 81.388,272.171 80.500,271.717 80.500 C 271.506 80.500,271.333 80.425,271.333 80.333 C 271.333 80.223,265.556 80.167,254.333 80.167 L 237.333 80.167 237.333 78.250 L 237.333 76.333 253.750 76.333 C 265.193 76.333,270.167 76.280,270.167 76.157 C 270.167 76.060,270.242 76.027,270.333 76.083 C 270.425 76.140,270.500 76.107,270.500 76.010 C 270.500 75.913,270.594 75.833,270.708 75.832 C 270.924 75.831,271.333 75.099,271.333 74.717 C 271.333 74.598,271.408 74.500,271.500 74.500 C 271.603 74.500,271.667 73.667,271.667 72.333 C 271.667 71.000,271.603 70.167,271.500 70.167 C 271.408 70.167,271.333 70.029,271.333 69.861 C 271.333 69.435,270.423 68.667,269.918 68.667 C 269.688 68.667,269.500 68.592,269.500 68.500 C 269.500 68.390,264.028 68.333,253.417 68.333 L 237.333 68.333 237.333 66.750 L 237.333 65.167 253.669 65.167 C 266.428 65.167,270.086 65.121,270.375 64.958 C 270.707 64.772,270.913 64.574,271.497 63.882 C 271.590 63.771,271.667 63.565,271.667 63.424 C 271.667 63.282,271.742 63.167,271.833 63.167 C 271.934 63.167,272.000 62.448,272.000 61.343 C 272.000 60.307,271.928 59.475,271.833 59.417 C 271.742 59.360,271.667 59.168,271.667 58.990 C 271.667 58.812,271.592 58.667,271.500 58.667 C 271.408 58.667,271.333 58.530,271.333 58.362 C 271.333 57.953,270.649 57.333,270.198 57.333 C 269.997 57.333,269.833 57.258,269.833 57.167 C 269.833 57.057,263.278 57.000,250.500 57.000 C 237.722 57.000,231.167 57.057,231.167 57.167 C 231.167 57.258,230.942 57.333,230.667 57.333 C 230.392 57.333,230.167 57.258,230.167 57.167 C 230.167 57.075,230.240 57.000,230.329 57.000 C 230.522 57.000,232.333 55.274,232.333 55.090 C 232.333 55.020,232.671 54.631,233.083 54.224 C 233.496 53.817,233.833 53.375,233.833 53.242 C 233.833 53.109,233.908 53.000,234.000 53.000 C 234.092 53.000,234.167 52.875,234.167 52.722 C 234.167 52.569,234.213 52.491,234.270 52.548 C 234.402 52.680,234.833 52.253,234.833 51.990 C 234.833 51.879,234.965 51.668,235.127 51.520 C 235.603 51.082,236.333 50.040,236.333 49.798 C 236.333 49.675,236.483 49.465,236.667 49.333 C 236.850 49.201,237.000 48.960,237.000 48.797 C 237.000 48.633,237.075 48.500,237.167 48.500 C 237.258 48.500,237.333 48.422,237.333 48.326 C 237.333 48.231,237.483 47.992,237.667 47.795 C 237.850 47.598,238.000 47.339,238.000 47.219 C 238.000 47.098,238.075 47.000,238.167 47.000 C 238.258 47.000,238.333 46.864,238.333 46.699 C 238.333 46.533,238.443 46.251,238.578 46.074 C 238.713 45.896,238.825 45.619,238.828 45.458 C 238.831 45.298,238.908 45.167,239.000 45.167 C 239.092 45.167,239.167 45.053,239.167 44.914 C 239.167 44.670,239.236 44.493,239.641 43.711 C 239.747 43.506,239.833 43.187,239.833 43.002 C 239.833 42.818,239.908 42.667,240.000 42.667 C 240.092 42.667,240.167 42.446,240.167 42.177 C 240.167 41.907,240.242 41.640,240.333 41.583 C 240.425 41.527,240.500 41.152,240.500 40.750 C 240.500 40.348,240.575 39.973,240.667 39.917 C 240.773 39.851,240.833 37.609,240.833 33.740 C 240.833 29.802,240.775 27.667,240.667 27.667 C 240.575 27.667,240.500 27.457,240.500 27.200 C 240.500 26.693,240.160 25.837,239.958 25.835 C 239.890 25.834,239.833 25.717,239.833 25.576 C 239.833 25.149,239.138 24.594,238.167 24.245 C 237.069 23.852,208.270 23.677,207.250 24.058 M298.003 31.542 C 298.004 31.681,298.059 31.667,298.167 31.500 C 298.274 31.333,298.329 31.319,298.331 31.458 C 298.332 31.578,298.546 31.667,298.833 31.667 C 299.108 31.667,299.333 31.742,299.333 31.833 C 299.333 31.925,299.521 32.000,299.750 32.000 C 299.979 32.000,300.167 32.062,300.167 32.139 C 300.167 32.215,300.370 32.383,300.619 32.514 C 301.141 32.786,302.333 33.962,302.333 34.203 C 302.333 34.293,302.558 34.576,302.833 34.833 C 303.108 35.090,303.333 35.420,303.333 35.567 C 303.333 35.713,303.408 35.833,303.500 35.833 C 303.592 35.833,303.667 36.021,303.667 36.250 C 303.667 36.479,303.745 36.667,303.841 36.667 C 303.936 36.667,303.997 36.760,303.975 36.875 C 303.902 37.254,304.493 38.833,304.707 38.833 C 304.777 38.833,304.833 39.016,304.833 39.240 C 304.833 39.464,304.908 39.693,305.000 39.750 C 305.092 39.807,305.167 40.111,305.167 40.427 C 305.167 40.742,305.242 41.000,305.333 41.000 C 305.425 41.000,305.500 41.300,305.500 41.667 C 305.500 42.033,305.575 42.333,305.667 42.333 C 305.758 42.333,305.833 42.746,305.833 43.250 C 305.833 43.754,305.908 44.167,306.000 44.167 C 306.108 44.167,306.167 46.000,306.167 49.333 C 306.167 52.667,306.108 54.500,306.000 54.500 C 305.908 54.500,305.833 54.908,305.833 55.407 C 305.833 55.906,305.758 56.360,305.667 56.417 C 305.575 56.473,305.500 56.778,305.500 57.093 C 305.500 57.409,305.425 57.667,305.333 57.667 C 305.242 57.667,305.167 57.929,305.167 58.250 C 305.167 58.571,305.092 58.833,305.000 58.833 C 304.908 58.833,304.833 59.016,304.833 59.240 C 304.833 59.464,304.758 59.693,304.667 59.750 C 304.575 59.807,304.500 60.041,304.500 60.270 C 304.500 60.499,304.434 60.646,304.354 60.596 C 304.207 60.505,303.930 61.403,303.985 61.792 C 304.001 61.906,303.936 62.000,303.841 62.000 C 303.745 62.000,303.667 62.114,303.667 62.252 C 303.667 62.391,303.600 62.635,303.519 62.794 C 303.438 62.953,303.277 63.287,303.161 63.536 C 303.045 63.785,302.886 63.949,302.808 63.901 C 302.730 63.853,302.667 63.931,302.667 64.073 C 302.667 64.216,302.592 64.333,302.500 64.333 C 302.408 64.333,302.333 64.408,302.333 64.500 C 302.333 64.591,302.071 64.944,301.750 65.284 C 301.429 65.624,301.167 65.962,301.167 66.035 C 301.167 66.107,301.022 66.167,300.845 66.167 C 300.668 66.167,300.411 66.279,300.274 66.417 C 300.136 66.554,299.873 66.667,299.688 66.667 C 299.504 66.667,299.307 66.742,299.250 66.833 C 299.193 66.925,298.889 67.000,298.573 67.000 C 298.258 67.000,298.000 67.075,298.000 67.167 C 298.000 67.261,297.531 67.333,296.927 67.333 C 296.336 67.333,295.807 67.258,295.750 67.167 C 295.693 67.075,295.468 67.000,295.250 67.000 C 295.032 67.000,294.807 66.925,294.750 66.833 C 294.693 66.742,294.498 66.667,294.316 66.667 C 294.008 66.667,293.848 66.572,293.256 66.042 C 293.128 65.927,292.983 65.833,292.934 65.833 C 292.736 65.833,291.667 64.738,291.667 64.535 C 291.667 64.415,291.479 64.144,291.250 63.931 C 291.021 63.719,290.833 63.422,290.833 63.273 C 290.833 63.123,290.758 63.000,290.667 63.000 C 290.575 63.000,290.500 62.852,290.500 62.672 C 290.500 62.491,290.350 62.076,290.167 61.750 C 289.983 61.424,289.833 61.009,289.833 60.828 C 289.833 60.648,289.758 60.500,289.667 60.500 C 289.575 60.500,289.500 60.350,289.500 60.167 C 289.500 59.983,289.425 59.833,289.333 59.833 C 289.242 59.833,289.167 59.646,289.167 59.417 C 289.167 59.188,289.101 59.000,289.021 59.000 C 288.887 59.000,288.576 57.428,288.647 57.107 C 288.664 57.029,288.611 56.879,288.529 56.774 C 287.923 56.002,287.907 42.095,288.511 41.864 C 288.587 41.835,288.700 41.293,288.762 40.659 C 288.825 40.025,288.941 39.547,289.021 39.596 C 289.101 39.646,289.167 39.494,289.167 39.260 C 289.167 39.025,289.223 38.833,289.292 38.832 C 289.461 38.830,289.833 38.006,289.833 37.633 C 289.833 37.468,289.908 37.333,290.000 37.333 C 290.092 37.333,290.167 37.183,290.167 37.000 C 290.167 36.817,290.242 36.667,290.333 36.667 C 290.425 36.667,290.500 36.521,290.500 36.343 C 290.500 36.165,290.575 35.973,290.667 35.917 C 290.758 35.860,290.833 35.700,290.833 35.562 C 290.833 35.423,290.946 35.197,291.083 35.060 C 291.221 34.922,291.333 34.681,291.333 34.525 C 291.333 34.368,291.494 34.130,291.689 33.995 C 291.885 33.860,292.364 33.431,292.754 33.042 C 293.144 32.652,293.547 32.333,293.648 32.333 C 293.750 32.333,293.833 32.258,293.833 32.167 C 293.833 32.075,294.025 32.000,294.260 32.000 C 294.494 32.000,294.649 31.939,294.603 31.865 C 294.557 31.791,294.834 31.712,295.218 31.690 C 295.602 31.668,295.942 31.579,295.972 31.492 C 296.059 31.244,297.999 31.292,298.003 31.542 M264.083 32.833 C 264.027 32.925,263.835 33.000,263.657 33.000 C 263.479 33.000,263.333 33.075,263.333 33.167 C 263.333 33.258,263.217 33.333,263.076 33.333 C 262.838 33.333,262.519 33.584,261.542 34.542 C 261.335 34.744,261.167 35.042,261.167 35.205 C 261.167 35.367,261.110 35.501,261.042 35.501 C 260.875 35.503,260.500 36.325,260.500 36.690 C 260.500 36.850,260.425 37.027,260.333 37.083 C 260.242 37.140,260.167 37.857,260.167 38.677 C 260.167 39.559,260.235 40.167,260.333 40.167 C 260.425 40.167,260.500 40.318,260.500 40.502 C 260.500 40.899,260.801 41.472,261.208 41.851 C 261.369 42.000,261.500 42.231,261.500 42.364 C 261.500 42.616,262.227 43.333,262.481 43.333 C 262.561 43.333,262.719 43.446,262.833 43.583 C 262.947 43.721,263.182 43.833,263.354 43.833 C 263.526 43.833,263.667 43.908,263.667 44.000 C 263.667 44.092,263.850 44.167,264.073 44.167 C 264.297 44.167,264.527 44.242,264.583 44.333 C 264.640 44.425,265.391 44.500,266.260 44.500 C 267.198 44.500,267.833 44.433,267.833 44.333 C 267.833 44.242,268.058 44.167,268.333 44.167 C 268.608 44.167,268.833 44.092,268.833 44.000 C 268.833 43.908,268.982 43.833,269.163 43.833 C 269.592 43.833,271.333 42.092,271.333 41.663 C 271.333 41.482,271.390 41.333,271.458 41.332 C 271.708 41.329,272.000 40.415,272.000 39.633 C 272.000 39.193,272.075 38.833,272.167 38.833 C 272.258 38.833,272.333 38.688,272.333 38.510 C 272.333 38.332,272.258 38.140,272.167 38.083 C 272.075 38.027,272.000 37.605,272.000 37.147 C 272.000 36.634,271.936 36.353,271.833 36.417 C 271.736 36.477,271.667 36.307,271.667 36.010 C 271.667 35.729,271.597 35.500,271.511 35.500 C 271.426 35.500,271.307 35.345,271.247 35.156 C 271.093 34.671,270.180 33.667,269.892 33.667 C 269.761 33.667,269.492 33.517,269.295 33.333 C 269.098 33.150,268.801 33.000,268.635 33.000 C 268.469 33.000,268.333 32.925,268.333 32.833 C 268.333 32.731,267.531 32.667,266.260 32.667 C 265.057 32.667,264.143 32.737,264.083 32.833 M287.787 47.539 C 287.750 47.838,287.719 47.633,287.718 47.083 C 287.717 46.533,287.748 46.288,287.786 46.539 C 287.824 46.789,287.825 47.239,287.787 47.539 M287.787 52.205 C 287.750 52.505,287.719 52.300,287.718 51.750 C 287.717 51.200,287.748 50.955,287.786 51.205 C 287.824 51.456,287.825 51.906,287.787 52.205 " stroke="none" fill="#7c4c04" fill-rule="evenodd"></path><path id="path2" d="" stroke="none" fill="#c88804" fill-rule="evenodd"></path><path id="path3" d="" stroke="none" fill="#946c04" fill-rule="evenodd"></path><path id="path4" d="M103.748 53.500 C 103.748 68.854,103.768 75.135,103.792 67.458 C 103.816 59.781,103.816 47.219,103.792 39.542 C 103.768 31.865,103.748 38.146,103.748 53.500 M287.718 47.083 C 287.719 47.633,287.750 47.838,287.787 47.539 C 287.825 47.239,287.824 46.789,287.786 46.539 C 287.748 46.288,287.717 46.533,287.718 47.083 M315.709 47.917 C 315.711 48.283,315.745 48.414,315.785 48.206 C 315.824 47.999,315.823 47.699,315.781 47.540 C 315.739 47.380,315.707 47.550,315.709 47.917 M315.705 50.667 C 315.705 50.987,315.740 51.119,315.782 50.958 C 315.823 50.798,315.823 50.535,315.782 50.375 C 315.740 50.215,315.705 50.346,315.705 50.667 M287.718 51.750 C 287.719 52.300,287.750 52.505,287.787 52.205 C 287.825 51.906,287.824 51.456,287.786 51.205 C 287.748 50.955,287.717 51.200,287.718 51.750 " stroke="none" fill="#984c04" fill-rule="evenodd"></path></g></svg>